SplineFontDB: 3.0
FontName: Crimson-Roman
FullName: Crimson Roman
FamilyName: Crimson
Weight: Roman
Copyright: Copyright (c) 2010, Sebastian Kosch (sebastian@aldusleaf.org),\nwith Reserved Font Name "Crimson".\nThis Font Software is licensed under the SIL Open Font License, Version 1.1.\nThis license is available with a FAQ at: http://scripts.sil.org/OFL
Version: 0.8
ItalicAngle: 0
UnderlinePosition: -112
UnderlineWidth: 47
Ascent: 742
Descent: 282
InvalidEm: 0
LayerCount: 2
Layer: 0 0 "Back" 1
Layer: 1 0 "Fore" 0
XUID: [1021 559 149143806 1270264]
FSType: 0
OS2Version: 3
OS2_WeightWidthSlopeOnly: 0
OS2_UseTypoMetrics: 1
CreationTime: 1270926789
ModificationTime: 1413031081
PfmFamily: 17
TTFWeight: 400
TTFWidth: 5
LineGap: 256
VLineGap: 0
Panose: 2 0 5 3 0 0 0 0 0 0
OS2TypoAscent: 742
OS2TypoAOffset: 0
OS2TypoDescent: -282
OS2TypoDOffset: 0
OS2TypoLinegap: 256
OS2WinAscent: 948
OS2WinAOffset: 0
OS2WinDescent: 332
OS2WinDOffset: 0
HheadAscent: 742
HheadAOffset: 0
HheadDescent: -282
HheadDOffset: 0
OS2SubXSize: 665
OS2SubYSize: 614
OS2SubXOff: 0
OS2SubYOff: 76
OS2SupXSize: 665
OS2SupYSize: 614
OS2SupXOff: 0
OS2SupYOff: 358
OS2StrikeYSize: 47
OS2StrikeYPos: 258
OS2CapHeight: 658
OS2XHeight: 429
OS2FamilyClass: 258
OS2Vendor: 'PfEd'
Lookup: 4 0 1 "'liga' Ligatures standard lookups7" { "'liga' Ligatures standard lookups7-1"  } ['liga' ('DFLT' <'dflt' > 'cyrl' <'dflt' > 'grek' <'dflt' > 'latn' <'TRK ' 'dflt' > ) ]
Lookup: 1 0 0 "'ccmp' Turkish i" { "'ccmp' Turkish i-1"  } ['ccmp' ('latn' <'TRK ' > ) ]
Lookup: 1 0 0 "'c2sc' Capitals to Small Capitals in Latin lookup 0" { "'c2sc' Capitals to Small Capitals in Latin lookup 0 subtable" ("sc") } ['c2sc' ('DFLT' <'dflt' > 'latn' <'TRK ' 'dflt' > ) ]
Lookup: 1 0 0 "'smcp' Lowercase to Small Capitals lookup 2" { "'smcp' Lowercase to Small Capitals lookup 2-1" ("sc") } ['smcp' ('DFLT' <'dflt' > 'grek' <'dflt' > 'latn' <'TRK ' 'dflt' > ) ]

StartChar: exclam
Encoding: 33 33 1
Width: 241
Flags: W
HStem: -11 110<77.2305 163.537> 622 20G<109 140.5>
VStem: 65 110<1.23046 87.5371> 75 94<327.09 632.2>
LayerCount: 2
Back
Fore
SplineSet
65 45 m 0xe0
 65 75 91 99 121 99 c 0
 151 99 175 75 175 45 c 0
 175 15 151 -11 121 -11 c 0
 91 -11 65 15 65 45 c 0xe0
125 642 m 0
 156 642 169 610 169 584 c 0
 169 556 155 422 134 172 c 1
 130 164 127 160 118 159 c 1
 113 161 108 164 105 170 c 1
 91 331 75 533 75 584 c 0xd0
 75 612 93 642 125 642 c 0
EndSplineSet
Validated: 1
Substitution2: "'c2sc' Capitals to Small Capitals in Latin lookup 0 subtable" exclam.sc
Substitution2: "'smcp' Lowercase to Small Capitals lookup 2-1" exclam.sc
EndChar

StartChar: quotedbl
Encoding: 34 34 2
Width: 280
Flags: W
HStem: 473 226<74.0952 102.855 194.095 222.855>
VStem: 39 78<523.482 685.326> 159 78<523.482 685.326>
LayerCount: 2
Back
Fore
SplineSet
211 699 m 0
 223 699 229 696 237 686 c 1
 237 657 229 544 223 492 c 1
 220 486 211 477 203 473 c 1
 200 473 196 475 194 479 c 1
 173 551 159 601 159 629 c 0
 159 657 179 699 211 699 c 0
91 699 m 0
 103 699 109 696 117 686 c 1
 117 657 109 544 103 492 c 1
 100 486 91 477 83 473 c 1
 80 473 76 475 74 479 c 1
 53 551 39 601 39 629 c 0
 39 657 59 699 91 699 c 0
EndSplineSet
Validated: 1
EndChar

StartChar: numbersign
Encoding: 35 35 3
Width: 480
UnlinkRmOvrlpSave: 1
Flags: W
HStem: 178 49<59.7157 392.673> 369 49<86.8227 420.581>
LayerCount: 2
Back
Fore
SplineSet
414 369 m 1
 414 369 85 369 85 369 c 1
 73 369 81 414 94 418 c 9
 420 418 l 17
 434 418 427 375 414 369 c 1
386 178 m 1
 386 178 57 178 57 178 c 1
 45 178 54 223 67 227 c 9
 393 227 l 17
 407 227 399 184 386 178 c 1
374 528 m 1
 302 77 l 2
 301 73 293 64 278 64 c 0
 268 64 267 68 267 68 c 1
 339 518 l 1
 342 527 342 531 361 531 c 0
 370 531 371 530 374 528 c 1
213 528 m 1
 140 77 l 2
 139 73 132 64 117 64 c 0
 107 64 106 68 106 68 c 1
 178 518 l 1
 181 527 181 531 200 531 c 0
 209 531 210 530 213 528 c 1
EndSplineSet
Validated: 37
EndChar

StartChar: dollar
Encoding: 36 36 4
Width: 498
Flags: W
HStem: -10 34<220 310.061> 606 33<190.359 278.617>
VStem: 51 36<116.874 172.135> 69 77<435.434 551.168> 285 35<638 680.877> 364 84<85.4024 206.73> 382 32<472.037 522.954>
LayerCount: 2
Back
Fore
SplineSet
292 683 m 1xd8
 300 683 327 683 327 676 c 1
 327 676 320 633 320 633 c 1
 344 628 366 620 402 612 c 1
 414 561 413 502 414 476 c 1
 409 473 403 472 396 472 c 0
 392 472 385 474 382 477 c 1xda
 378 510 352 560 312 587 c 1
 312 587 274 355 274 355 c 1
 276 354 279 352 281 351 c 0
 344 311 448 261 448 166 c 0
 448 60 350 -10 247 -10 c 0
 236 -10 225 -10 214 -9 c 1
 214 -9 207 -52 207 -52 c 1
 198 -52 172 -50 172 -43 c 1
 172 -43 178 -4 178 -4 c 1
 139 2 104 12 74 18 c 1
 62 75 51 154 51 165 c 1
 55 169 69 173 76 173 c 0
 81 173 85 172 87 168 c 1xec
 92 145 111 66 185 36 c 1
 185 36 226 284 226 284 c 1
 154 326 69 377 69 470 c 0
 69 572 161 639 257 639 c 0
 267 639 277 639 285 638 c 1
 285 638 292 683 292 683 c 1xd8
259 265 m 1
 259 265 220 26 220 26 c 1
 229 25 239 24 249 24 c 0
 309 24 364 65 364 140 c 0xcc
 364 210 316 234 259 265 c 1
241 375 m 1
 241 375 279 602 279 602 c 1
 270 604 261 606 251 606 c 0
 167 606 146 546 146 500 c 0xd8
 146 439 191 406 241 375 c 1
EndSplineSet
Validated: 1
EndChar

StartChar: percent
Encoding: 37 37 5
Width: 667
Flags: W
HStem: -7 25<451.434 521.549> 289 24<438.266 507.513> 325 25<163.003 231.1> 621 24<149.377 218.599>
VStem: 40 64<408.045 571.079> 271 66<399.6 570.458> 328 64<76.045 237.871> 559 66<66.3943 238.458>
LayerCount: 2
Back
Fore
SplineSet
186 621 m 0xfd
 127 621 104 555 104 496 c 0
 104 427 146 350 196 350 c 0
 254 350 271 418 271 476 c 0
 271 543 239 621 186 621 c 0xfd
190 645 m 0
 277 645 337 571 337 484 c 0
 337 404 281 325 190 325 c 0
 107 325 40 396 40 484 c 0
 40 573 101 645 190 645 c 0
475 289 m 0
 416 289 392 223 392 164 c 0xfb
 392 95 435 18 485 18 c 0
 543 18 559 86 559 144 c 0
 559 211 528 289 475 289 c 0
479 313 m 0
 566 313 625 239 625 152 c 0
 625 72 570 -7 478 -7 c 0
 395 -7 328 64 328 152 c 0
 328 241 390 313 479 313 c 0
598 624 m 1
 598 624 115 0 115 0 c 2
 111 -5 94 -12 82 -12 c 0
 68 -12 65 -3 64 -1 c 1
 64 -1 546 624 546 624 c 2
 551 630 560 636 566 636 c 0
 595 636 589 633 598 624 c 1
EndSplineSet
Validated: 1
EndChar

StartChar: ampersand
Encoding: 38 38 6
Width: 683
Flags: W
HStem: -3 43<199.243 342.066 514.5 607.13> 289 23<463.686 506.937 597.031 655.236> 620 36<262.399 355.509>
VStem: 53 86<94.0843 236.46> 161 73<445.099 592.5> 385 68<465.283 594.712>
LayerCount: 2
Back
Fore
SplineSet
406 95 m 1
 341 161 242 314 242 314 c 1
 188 277 139 244 139 172 c 0
 139 78 208 40 281 40 c 0
 321 40 374 61 406 95 c 1
313 620 m 0
 270 620 234 589 234 543 c 0
 234 494 254 443 286 385 c 1
 348 421 385 453 385 530 c 0
 385 575 358 620 313 620 c 0
308 656 m 0
 396 656 453 616 453 544 c 0
 453 454 380 400 304 353 c 1
 346 282 402 210 452 154 c 1
 489 210 509 261 509 271 c 0
 509 291 471 287 464 289 c 1
 461 295 461 308 465 312 c 1
 544 312 l 2
 579 312 608 315 654 317 c 1
 657 315 656 289 653 289 c 1
 636 289 595 279 584 272 c 0
 579 269 541 194 480 123 c 1
 525 76 554 45 578 45 c 0
 599 45 625 78 630 91 c 1
 641 91 653 80 653 73 c 1
 649 64 621 0 544 0 c 0
 485 0 429 72 429 72 c 1
 381 30 313 -3 247 -3 c 0
 130 -3 53 57 53 158 c 0
 53 254 135 307 219 350 c 1
 191 398 161 450 161 519 c 0
 161 595 224 656 308 656 c 0
EndSplineSet
Validated: 1
Substitution2: "'c2sc' Capitals to Small Capitals in Latin lookup 0 subtable" ampersand.sc
Substitution2: "'smcp' Lowercase to Small Capitals lookup 2-1" ampersand.sc
EndChar

StartChar: quotesingle
Encoding: 39 39 7
Width: 160
Flags: W
HStem: 473 226<74.0952 102.855>
VStem: 39 78<523.482 685.326>
LayerCount: 2
Back
Fore
SplineSet
91 699 m 0
 103 699 109 696 117 686 c 1
 117 657 109 544 103 492 c 1
 100 486 91 477 83 473 c 1
 80 473 76 475 74 479 c 1
 53 551 39 601 39 629 c 0
 39 657 59 699 91 699 c 0
EndSplineSet
Validated: 1
Substitution2: "'c2sc' Capitals to Small Capitals in Latin lookup 0 subtable" quotesingle.sc
Substitution2: "'smcp' Lowercase to Small Capitals lookup 2-1" quotesingle.sc
EndChar

StartChar: parenleft
Encoding: 40 40 8
Width: 262
Flags: W
VStem: 37 73<122.806 447.394>
LayerCount: 2
Back
Fore
SplineSet
110 285 m 0
 110 128 162 -47 256 -130 c 1
 257 -130 244 -146 237 -150 c 1
 120 -58 37 91 37 285 c 0
 37 480 120 627 237 719 c 1
 244 715 257 699 256 699 c 1
 162 616 110 443 110 285 c 0
EndSplineSet
Validated: 1
Substitution2: "'c2sc' Capitals to Small Capitals in Latin lookup 0 subtable" parenleft.sc
Substitution2: "'smcp' Lowercase to Small Capitals lookup 2-1" parenleft.sc
EndChar

StartChar: parenright
Encoding: 41 41 9
Width: 262
Flags: W
VStem: 152 73<122.806 447.394>
LayerCount: 2
Back
Fore
SplineSet
225 285 m 0
 225 91 142 -58 25 -150 c 1
 18 -146 5 -130 6 -130 c 1
 100 -47 152 128 152 285 c 0
 152 443 100 616 6 699 c 1
 5 699 18 715 25 719 c 1
 142 627 225 480 225 285 c 0
EndSplineSet
Validated: 1
Substitution2: "'c2sc' Capitals to Small Capitals in Latin lookup 0 subtable" parenright.sc
Substitution2: "'smcp' Lowercase to Small Capitals lookup 2-1" parenright.sc
EndChar

StartChar: asterisk
Encoding: 42 42 10
Width: 443
Flags: W
HStem: 390 61<310.125 393.976> 434 65<38.5068 148.988>
VStem: 130 57<572.979 660.875> 168 66<301.606 406.954>
LayerCount: 2
Back
Fore
SplineSet
302 613 m 0x60
 319 632 343 640 358 625 c 0
 374 609 371 586 352 569 c 0
 317 537 283 532 255 505 c 1
 255 505 249 496 250 491 c 0
 251 486 255 483 260 481 c 0
 295 465 323 471 367 451 c 0
 390 441 405 421 396 402 c 0
 386 382 363 378 341 390 c 0
 299 413 284 444 250 462 c 1
 250 462 241 467 236 465 c 0
 230 462 231 457 230 452 c 0
 226 414 239 389 234 341 c 0
 231 316 217 296 196 299 c 0
 174 302 163 322 168 347 c 0x90
 177 394 202 419 209 457 c 1
 209 457 210 466 206 470 c 0
 203 474 198 474 193 473 c 0
 156 465 136 444 88 434 c 0
 64 429 39 436 36 457 c 0
 32 479 49 496 74 499 c 0
 122 505 151 489 190 494 c 1
 190 494 199 497 201 502 c 0
 203 507 202 511 199 516 c 0
 180 549 154 562 130 604 c 0
 118 626 118 650 136 660 c 0
 156 670 176 660 187 637 c 0
 207 593 201 560 218 525 c 1
 218 525 223 515 228 514 c 0
 233 513 237 516 241 520 c 0
 267 548 270 577 302 613 c 0x60
EndSplineSet
Validated: 33
EndChar

StartChar: plus
Encoding: 43 43 11
Width: 542
Flags: W
HStem: 218 56<37 242 298 507.076>
VStem: 242 56<7.125 218 274 479>
LayerCount: 2
Back
Fore
SplineSet
242 474 m 1
 258 480 278 485 285 485 c 0
 295 485 298 479 298 479 c 1
 298 274 l 25
 378 274 422 274 502 274 c 16
 506 274 511 270 511 262 c 0
 511 246 503 226 495 218 c 1
 298 218 l 25
 298 218 298 93 298 16 c 1
 286 7 265 5 255 5 c 0
 248 5 242 10 242 14 c 2
 242 218 l 25
 37 218 l 1
 37 218 31 218 31 228 c 0
 31 232 36 266 46 274 c 1
 242 274 l 9
 242 274 242 455 242 474 c 1
EndSplineSet
Validated: 1
EndChar

StartChar: comma
Encoding: 44 44 12
Width: 201
Flags: W
HStem: -139 262
VStem: 80 70<-26.8236 65>
LayerCount: 2
Back
Fore
SplineSet
106 123 m 0
 114 123 125 120 132 116 c 1
 139 104 150 84 150 46 c 0
 150 -11 83 -111 32 -139 c 1
 25 -139 17 -124 17 -118 c 1
 37 -103 80 -71 80 -7 c 0
 80 26 47 35 47 74 c 0
 47 95 70 123 106 123 c 0
EndSplineSet
Validated: 1
Substitution2: "'c2sc' Capitals to Small Capitals in Latin lookup 0 subtable" comma.sc
Substitution2: "'smcp' Lowercase to Small Capitals lookup 2-1" comma.sc
EndChar

StartChar: hyphen
Encoding: 45 45 13
Width: 377
Flags: W
HStem: 210 63<80.002 314.131>
VStem: 58 261
LayerCount: 2
Back
Fore
SplineSet
71 261 m 1
 71 261 279 272 312 273 c 0
 316 273 319 272 319 264 c 0
 319 247 314 227 306 210 c 1
 259 207 156 203 65 199 c 0
 60 199 58 201 58 210 c 0
 58 229 64 246 71 261 c 1
EndSplineSet
Validated: 1
EndChar

StartChar: slash
Encoding: 47 47 14
Width: 413
Flags: W
LayerCount: 2
Back
Fore
SplineSet
369 761 m 0
 377 761 381 755 382 752 c 1
 87 -12 l 2
 84 -19 71 -35 48 -35 c 0
 33 -35 30 -28 30 -28 c 1
 329 746 l 1
 330 749 345 761 369 761 c 0
EndSplineSet
Validated: 1
Substitution2: "'c2sc' Capitals to Small Capitals in Latin lookup 0 subtable" slash.sc
Substitution2: "'smcp' Lowercase to Small Capitals lookup 2-1" slash.sc
EndChar

StartChar: zero
Encoding: 48 48 15
Width: 497
Flags: W
HStem: -3 37<199.748 294.125> 604 37<204.754 298.704>
VStem: 30.5 88<173.11 465.617> 378.5 88<171.948 470.875>
LayerCount: 2
Back
Fore
SplineSet
254.5 604 m 0
 170.5 604 118.5 477 118.5 320 c 0
 118.5 163 170.5 34 244.5 34 c 0
 333.5 34 378.5 168 378.5 325 c 0
 378.5 482 328.5 604 254.5 604 c 0
248.5 641 m 0
 388.5 641 466.5 493 466.5 319 c 0
 466.5 145 386.5 -3 248.5 -3 c 0
 112.5 -3 30.5 145 30.5 319 c 0
 30.5 493 110.5 641 248.5 641 c 0
EndSplineSet
Validated: 1
Substitution2: "'pnum' Proportional Numbers lookup 12-1" zero.prop
Substitution2: "'zero' Slashed Zero lookup 11-1" zero.slash
Substitution2: "'onum' Oldstyle Figures lookup 3-1" zero.onum
Substitution2: "'ordn' Ordinals lookup 0-1" zero.ordn
EndChar

StartChar: one
Encoding: 49 49 16
Width: 497
Flags: W
HStem: -3 29<150.791 216.671 308.104 373.984> 622 20G<296.888 303.388>
VStem: 223.388 79<32.7426 557.993>
LayerCount: 2
Back
Fore
SplineSet
223.387695312 116 m 2
 223.387695312 520 l 2
 223.387695312 549 216.387695312 558 202.387695312 558 c 0
 187.387695312 558 148.387695312 544 132.387695312 538 c 1
 127.387695312 542 122.387695312 548 122.387695312 555 c 0
 122.387695312 557 121.387695312 560 124.387695312 561 c 0
 206.387695312 598 295.387695312 642 298.387695312 642 c 2
 300.387695312 642 l 2
 306.387695312 642 309.387695312 631 310.387695312 626 c 1
 310.387695312 626 302.387695312 590 302.387695312 529 c 2
 302.387695312 116 l 2
 302.387695312 86 302.387695312 58 307.387695312 42 c 0
 310.387695312 31 359.387695312 26 371.387695312 26 c 1
 375.387695312 21 376.387695312 2 371.387695312 -3 c 1
 330.387695312 -1 299.387695312 2 260.387695312 2 c 0
 221.387695312 2 194.387695312 -1 153.387695312 -3 c 1
 148.387695312 2 149.387695312 21 153.387695312 26 c 1
 165.387695312 26 214.387695312 31 217.387695312 42 c 0
 222.387695312 58 223.387695312 86 223.387695312 116 c 2
EndSplineSet
Validated: 1
Substitution2: "'pnum' Proportional Numbers lookup 12-1" one.prop
Substitution2: "'onum' Oldstyle Figures lookup 3-1" one.onum
Substitution2: "'ordn' Ordinals lookup 0-1" one.ordn
EndChar

StartChar: two
Encoding: 50 50 17
Width: 497
Flags: W
HStem: 0 73<139.5 389.105> 577 65<161.763 284.739>
VStem: 57.5 19<497.173 503.317> 329.5 85<378.152 530.573>
LayerCount: 2
Back
Fore
SplineSet
453.5 150 m 1
 433.5 101 405.5 18 399.5 0 c 9
 399.5 0 60.5 0 53.5 0 c 1
 49.5 2 43.5 10 43.5 14 c 1
 127.5 107 223.5 221 281.5 306 c 0
 322.5 366 329.5 407 329.5 456 c 0
 329.5 525 283.5 577 219.5 577 c 0
 139.5 577 88.5 511 76.5 491 c 1
 68.5 491 57.5 503 57.5 507 c 1
 64.5 532 136.5 642 241.5 642 c 0
 337.5 642 414.5 560 414.5 475 c 0
 414.5 418 392.5 367 357.5 324 c 0
 286.5 237 184.5 123 139.5 73 c 9
 337.5 73 l 2
 377.5 73 400.5 98 421.5 150 c 0
 423.5 155 427.5 156 433.5 156 c 0
 437.5 156 449.5 153 453.5 150 c 1
EndSplineSet
Validated: 1
Substitution2: "'pnum' Proportional Numbers lookup 12-1" two.prop
Substitution2: "'onum' Oldstyle Figures lookup 3-1" two.onum
Substitution2: "'ordn' Ordinals lookup 0-1" two.ordn
EndChar

StartChar: three
Encoding: 51 51 18
Width: 497
Flags: W
HStem: -5 40<164.183 285.893> 318 30<156.8 206.151> 589 53<173.929 281.618>
VStem: 314.5 75<445.646 556.049> 350.5 86<125.145 267.973>
LayerCount: 2
Back
Fore
SplineSet
258.5 642 m 0xf0
 309.5 642 389.5 596 389.5 514 c 0xf0
 389.5 449 331.5 400 296.5 379 c 1
 353.5 371 436.5 316 436.5 218 c 0
 436.5 81 307.5 -5 182.5 -5 c 0
 155.5 -5 112.5 2 80.5 18 c 1
 74.5 22 60.5 40 60.5 56 c 0
 60.5 85 80.5 104 102.5 104 c 0
 130.5 104 142.5 76 158.5 60 c 0
 177.5 41 205.5 35 232.5 35 c 0
 285.5 35 350.5 75 350.5 190 c 0xe8
 350.5 271 288.5 331 222.5 331 c 0
 201.5 331 174.5 321 162.5 318 c 1
 158.5 323 156.5 330 156.5 338 c 0
 156.5 342 156.5 345 158.5 348 c 1
 238.5 366 314.5 410 314.5 496 c 0
 314.5 549 273.5 589 216.5 589 c 0
 153.5 589 113.5 530 104.5 523 c 1
 98.5 523 92.5 536 92.5 545 c 1
 123.5 591 180.5 642 258.5 642 c 0xf0
EndSplineSet
Validated: 1
Substitution2: "'pnum' Proportional Numbers lookup 12-1" three.prop
Substitution2: "'onum' Oldstyle Figures lookup 3-1" three.onum
Substitution2: "'ordn' Ordinals lookup 0-1" three.ordn
EndChar

StartChar: four
Encoding: 52 52 19
Width: 497
Flags: W
HStem: -6 21G<342.5 374> 174 57<94.5 318.5 397.5 468.461> 624 20G<378.5 387.5>
VStem: 318.5 79<-1 174 231 524>
LayerCount: 2
Back
Fore
SplineSet
382.5 644 m 0
 392.5 644 397.5 634 397.5 626 c 2
 397.5 231 l 25
 456.5 231 l 18
 462.5 231 470.5 211 470.5 190 c 0
 470.5 181 468.5 177 466.5 174 c 1
 397.5 174 l 25
 397.5 -1 l 1
 397.5 -1 393.5 -6 354.5 -6 c 0
 330.5 -6 318.5 -5 318.5 2 c 2
 318.5 174 l 25
 36.5 174 l 1
 29.5 178 26.5 187 26.5 193 c 1
 352.5 619 l 2
 358.5 627 374.5 644 382.5 644 c 0
318.5 524 m 25
 94.5 231 l 25
 318.5 231 l 25
 318.5 524 l 25
EndSplineSet
Validated: 1
Substitution2: "'pnum' Proportional Numbers lookup 12-1" four.prop
Substitution2: "'onum' Oldstyle Figures lookup 3-1" four.onum
Substitution2: "'ordn' Ordinals lookup 0-1" four.ordn
EndChar

StartChar: five
Encoding: 53 53 20
Width: 497
Flags: W
HStem: -5 40<164.183 285.893> 339 56<143.696 277.139> 556 79<174.562 377.182> 624 20G<396.5 399.5>
VStem: 350.5 86<126.942 266.661>
LayerCount: 2
Back
Fore
SplineSet
248.5 395 m 0xe8
 366.5 395 436.5 303 436.5 218 c 0
 436.5 81 307.5 -5 182.5 -5 c 0
 155.5 -5 112.5 2 80.5 18 c 1
 74.5 22 60.5 40 60.5 56 c 0
 60.5 85 80.5 104 102.5 104 c 0
 130.5 104 142.5 76 158.5 60 c 0
 177.5 41 205.5 35 232.5 35 c 0
 285.5 35 350.5 74 350.5 190 c 0
 350.5 252 306.5 339 190.5 339 c 3
 169.5 339 122.5 332 106.5 324 c 1
 102.5 324 98.5 331 98.5 338 c 1
 120.5 450 145.5 574 156.5 635 c 1
 156.5 635 304.5 635 304.5 635 c 2xe8
 345.5 635 396.5 644 396.5 644 c 17xd8
 402.5 640 408.5 638 408.5 633 c 0
 408.5 627 396.5 583 378.5 562 c 1
 350.5 559 314.5 556 262.5 556 c 2
 262.5 556 191.5 556 178.5 556 c 1
 166.5 496 154.5 432 142.5 376 c 1
 170.5 387 221.5 395 248.5 395 c 0xe8
EndSplineSet
Validated: 1
Substitution2: "'pnum' Proportional Numbers lookup 12-1" five.prop
Substitution2: "'onum' Oldstyle Figures lookup 3-1" five.onum
Substitution2: "'ordn' Ordinals lookup 0-1" five.ordn
EndChar

StartChar: six
Encoding: 54 54 21
Width: 497
Flags: W
HStem: -6 33<206.737 301.455> 346 49<182.323 308.157> 618 29<386.176 420.518>
VStem: 49 86<119.341 313.338> 363 85<110.219 284.317>
LayerCount: 2
Back
Fore
SplineSet
139 306 m 1
 136 285 135 262 135 238 c 0
 135 148 173 27 253 27 c 0
 316 27 363 94 363 184 c 0
 363 269 327 346 237 346 c 0
 208 346 172 342 139 306 c 1
265 395 m 0
 405 395 448 275 448 203 c 0
 448 91 359 -6 245 -6 c 0
 124 -6 49 112 49 220 c 0
 49 322 82 416 145 485 c 0
 216 563 329 625 413 647 c 1
 422 647 425 624 425 618 c 1
 341 591 192 527 147 350 c 1
 182 379 231 395 265 395 c 0
EndSplineSet
Validated: 1
Substitution2: "'pnum' Proportional Numbers lookup 12-1" six.prop
Substitution2: "'onum' Oldstyle Figures lookup 3-1" six.onum
Substitution2: "'ordn' Ordinals lookup 0-1" six.ordn
EndChar

StartChar: seven
Encoding: 55 55 22
Width: 497
Flags: W
HStem: -5 21G<149 159> 560 73<94.0763 396.5>
LayerCount: 2
Back
Fore
SplineSet
384.5 633 m 2
 410.5 633 446.5 636 452.5 636 c 0
 458.5 636 458.5 632 458.5 627 c 0
 458.5 614 443.5 588 430.5 560 c 2
 166.5 -2 l 1
 164.5 -4 161.5 -5 156.5 -5 c 0
 141.5 -5 112.5 4 112.5 13 c 1
 215.5 169 396.5 560 396.5 560 c 9
 142.5 560 l 2
 102.5 560 85.5 536 70.5 483 c 0
 69.5 478 64.5 477 58.5 477 c 0
 54.5 477 42.5 480 38.5 483 c 1
 55.5 537 73.5 601 80.5 633 c 9
 384.5 633 l 2
EndSplineSet
Validated: 1
Substitution2: "'pnum' Proportional Numbers lookup 12-1" seven.prop
Substitution2: "'onum' Oldstyle Figures lookup 3-1" seven.onum
Substitution2: "'ordn' Ordinals lookup 0-1" seven.ordn
EndChar

StartChar: eight
Encoding: 56 56 23
Width: 497
Flags: W
HStem: -9 36<192.472 310.325> 608 35<202.682 297.828>
VStem: 60 79<77.0132 225.193> 88 74<430.437 556.213> 346 72<424.076 561.8> 356 81<86.3009 203.234>
LayerCount: 2
Back
Fore
SplineSet
248 27 m 0xe4
 314 27 356 70 356 138 c 0
 356 221 242 287 228 295 c 0
 226 296 225 297 222 297 c 0
 221 297 219 297 218 296 c 0
 163 261 139 221 139 157 c 0
 139 75 195 27 248 27 c 0xe4
248 608 m 0
 200 608 162 558 162 498 c 0
 162 421 228 386 266 364 c 0
 268 363 270 362 272 362 c 0
 274 362 275 362 278 364 c 0
 319 391 346 431 346 486 c 0xd8
 346 544 308 608 248 608 c 0
254 643 m 0
 343 643 418 589 418 496 c 0xd8
 418 418 352 373 306 344 c 1
 302 343 303 340 306 338 c 0
 366 304 437 239 437 167 c 0
 437 67 346 -9 246 -9 c 0
 136 -9 60 57 60 154 c 0xe4
 60 242 151 293 190 318 c 0
 193 320 192 323 190 324 c 0
 148 349 88 406 88 480 c 0
 88 565 166 643 254 643 c 0
EndSplineSet
Validated: 1
Substitution2: "'pnum' Proportional Numbers lookup 12-1" eight.prop
Substitution2: "'onum' Oldstyle Figures lookup 3-1" eight.onum
Substitution2: "'ordn' Ordinals lookup 0-1" eight.ordn
EndChar

StartChar: nine
Encoding: 57 57 24
Width: 497
Flags: W
HStem: -6 29<75.9823 110.324> 246 49<188.485 314.177> 614 33<195.18 289.763>
VStem: 49.5 85<356.683 532.466> 361.5 86<327.662 521.659>
LayerCount: 2
Back
Fore
SplineSet
357.5 335 m 1
 360.5 356 361.5 379 361.5 403 c 0
 361.5 493 323.5 614 243.5 614 c 0
 180.5 614 134.5 547 134.5 457 c 0
 134.5 372 169.5 295 259.5 295 c 0
 288.5 295 324.5 299 357.5 335 c 1
71.5 23 m 1
 155.5 50 304.5 114 349.5 291 c 1
 314.5 262 265.5 246 231.5 246 c 0
 91.5 246 49.5 366 49.5 438 c 0
 49.5 550 137.5 647 251.5 647 c 0
 372.5 647 447.5 529 447.5 421 c 0
 447.5 319 414.5 225 351.5 156 c 0
 280.5 78 167.5 16 83.5 -6 c 1
 74.5 -6 71.5 17 71.5 23 c 1
EndSplineSet
Validated: 1
Substitution2: "'pnum' Proportional Numbers lookup 12-1" nine.prop
Substitution2: "'onum' Oldstyle Figures lookup 3-1" nine.onum
EndChar

StartChar: colon
Encoding: 58 58 25
Width: 226
Flags: W
HStem: -11 110<70.2305 156.537> 321 110<70.2305 156.537>
VStem: 58 110<1.23046 87.5371 333.23 419.537>
LayerCount: 2
Back
Fore
SplineSet
58 45 m 0
 58 75 84 99 114 99 c 0
 144 99 168 75 168 45 c 0
 168 15 144 -11 114 -11 c 0
 84 -11 58 15 58 45 c 0
58 377 m 0
 58 407 84 431 114 431 c 0
 144 431 168 407 168 377 c 0
 168 347 144 321 114 321 c 0
 84 321 58 347 58 377 c 0
EndSplineSet
Validated: 1
Substitution2: "'c2sc' Capitals to Small Capitals in Latin lookup 0 subtable" colon.sc
Substitution2: "'smcp' Lowercase to Small Capitals lookup 2-1" colon.sc
EndChar

StartChar: semicolon
Encoding: 59 59 26
Width: 232
Flags: W
HStem: 321 110<73.2305 159.537>
VStem: 68 103<25.9041 111.105 332.398 420.324> 101 70<-26.8236 65>
LayerCount: 2
Back
Fore
SplineSet
127 123 m 0xc0
 135 123 146 120 153 116 c 1
 160 104 171 84 171 46 c 0xc0
 171 -11 104 -111 53 -139 c 1
 46 -139 38 -124 38 -118 c 1
 58 -103 101 -71 101 -7 c 0xa0
 101 26 68 35 68 74 c 0
 68 95 91 123 127 123 c 0xc0
61 377 m 0
 61 407 87 431 117 431 c 0
 147 431 171 407 171 377 c 0
 171 347 147 321 117 321 c 0
 87 321 61 347 61 377 c 0
EndSplineSet
Validated: 1
Substitution2: "'c2sc' Capitals to Small Capitals in Latin lookup 0 subtable" semicolon.sc
Substitution2: "'smcp' Lowercase to Small Capitals lookup 2-1" semicolon.sc
EndChar

StartChar: less
Encoding: 60 60 27
Width: 492
Flags: W
HStem: 410 20G<421.5 423.5>
LayerCount: 2
Back
Fore
SplineSet
444 35 m 0
 444 28 434 -15 428 -15 c 0
 427 -15 425 -14 423 -13 c 2
 48 177 l 2
 33 185 30 200 30 217 c 0
 30 228 38 236 48 241 c 2
 417 428 l 2
 419 429 421 430 422 430 c 0
 425 430 432 420 439 383 c 0
 440 377 436 374 436 374 c 1
 110 209 l 1
 441 41 l 1
 441 41 444 40 444 35 c 0
EndSplineSet
Validated: 1
Substitution2: "'c2sc' Capitals to Small Capitals in Latin lookup 0 subtable" less.sc
Substitution2: "'smcp' Lowercase to Small Capitals lookup 2-1" less.sc
EndChar

StartChar: equal
Encoding: 61 61 28
Width: 565
Flags: W
HStem: 120 55<81.2964 485.998> 264 55<81.2964 485.998>
LayerCount: 2
Back
Fore
SplineSet
479 120 m 1
 318 120 245 120 73 120 c 1
 61 120 75 170 89 175 c 9
 492 175 l 17
 506 175 493 127 479 120 c 1
479 264 m 1
 318 264 245 264 73 264 c 1
 61 264 75 314 89 319 c 9
 492 319 l 17
 506 319 493 271 479 264 c 1
EndSplineSet
Validated: 33
Substitution2: "'c2sc' Capitals to Small Capitals in Latin lookup 0 subtable" equal.sc
Substitution2: "'smcp' Lowercase to Small Capitals lookup 2-1" equal.sc
EndChar

StartChar: greater
Encoding: 62 62 29
Width: 493
Flags: W
HStem: 410 20G<68 70.5>
LayerCount: 2
Back
Fore
SplineSet
48 35 m 0
 48 39 51 41 51 41 c 1
 382 209 l 1
 57 374 l 1
 57 374 54 375 54 382 c 0
 54 400 66 430 70 430 c 0
 71 430 73 429 75 428 c 2
 445 241 l 2
 455 236 462 228 462 217 c 0
 462 200 460 185 445 177 c 2
 70 -13 l 2
 68 -14 66 -15 65 -15 c 0
 59 -15 48 27 48 35 c 0
EndSplineSet
Validated: 1
Substitution2: "'c2sc' Capitals to Small Capitals in Latin lookup 0 subtable" greater.sc
Substitution2: "'smcp' Lowercase to Small Capitals lookup 2-1" greater.sc
EndChar

StartChar: question
Encoding: 63 63 30
Width: 356
Flags: W
HStem: -11 110<75.2305 161.537> 548 94<64.7663 183.549> 569 73<83.3395 192.566>
VStem: 63 110<1.23046 87.5371> 96 29<159.288 241.239> 260 50<432.623 535.531>
LayerCount: 2
Back
Fore
SplineSet
63 45 m 0x94
 63 75 89 99 119 99 c 0
 149 99 173 75 173 45 c 0
 173 15 149 -11 119 -11 c 0
 89 -11 63 15 63 45 c 0x94
100 548 m 0xd4
 86 548 56 565 56 598 c 0
 56 613 60 628 65 635 c 1
 75 640 92 642 113 642 c 0
 179 642 310 574 310 457 c 0
 310 389 284 347 209 304 c 0
 182 288 137 253 131 242 c 0
 122 226 125 195 125 172 c 1
 121 164 118 160 109 159 c 1
 104 161 99 164 96 170 c 1xcc
 91 191 88 234 88 261 c 0
 88 335 136 361 173 385 c 0
 222 416 260 439 260 487 c 0
 260 539 224 569 186 569 c 0xb4
 133 569 126 548 100 548 c 0xd4
EndSplineSet
Validated: 33
Substitution2: "'c2sc' Capitals to Small Capitals in Latin lookup 0 subtable" question.sc
Substitution2: "'smcp' Lowercase to Small Capitals lookup 2-1" question.sc
EndChar

StartChar: at
Encoding: 64 64 31
Width: 748
Flags: W
HStem: -124 18<261.319 285.566> -7 43<494.48 583.769> -5 58<283.059 341.022> 389 46<390.034 497.5> 538 40<314.127 518.377>
VStem: 49 40<62.2822 287.163> 194 74<65.092 232.038> 423 66<41.9004 125> 672 40<157.015 377.609>
LayerCount: 2
Back
Fore
SplineSet
418 578 m 0xdf80
 614 578 712 426 712 270 c 0
 712 117 623 -7 506 -7 c 0xdf80
 457 -7 423 18 423 79 c 0
 423 91 427 117 430 125 c 1
 411 88 347 -5 289 -5 c 3xbf80
 227 -5 194 60 194 130 c 3
 194 276 343 435 480 435 c 0
 515 435 534 429 553 422 c 9
 553 422 492 106 492 106 c 2
 491 102 489 86 489 81 c 0
 489 49 510 36 537 36 c 0
 600 36 672 142 672 267 c 0
 672 402 592 538 418 538 c 0
 214 538 89 344 89 170 c 0
 89 53 150 -36 222 -78 c 0
 258 -99 278 -103 297 -106 c 1
 297 -114 273 -124 261 -124 c 0
 249 -124 235 -123 222 -118 c 0
 130 -84 49 29 49 170 c 0
 49 366 186 578 418 578 c 0xdf80
438 389 m 3
 361 389 268 266 268 151 c 0
 268 89 284 53 319 53 c 3xbf80
 369 53 440 178 459 274 c 2
 459 274 479 376 479 376 c 17
 470 386 451 389 438 389 c 3
EndSplineSet
Validated: 1
Substitution2: "'c2sc' Capitals to Small Capitals in Latin lookup 0 subtable" at.sc
Substitution2: "'smcp' Lowercase to Small Capitals lookup 2-1" at.sc
EndChar

StartChar: A
Encoding: 65 65 32
Width: 627
Flags: W
HStem: -3 29<-13.6875 43.043 129.585 192.196 402.775 461.559 582.161 631.562> 253 39<199 378.999> 643 20G<321.5 327.5>
LayerCount: 2
Back
Fore
SplineSet
95 139 m 2
 95 139 227 478 288 634 c 1
 293 644 317 663 326 663 c 0
 329 663 329 661 332 660 c 1
 536 126 l 0
 550 89 559 64 561 60 c 0
 571 36 621 26 629 26 c 1
 634 19 632 0 631 -3 c 1
 591 -1 565 2 521 2 c 0
 475 2 451 -1 405 -3 c 1
 400 2 401 21 406 26 c 1
 418 26 453 31 462 39 c 0
 465 42 466 47 466 53 c 0
 466 83 398 248 398 248 c 1
 398 248 395 252 392 252 c 0
 366 254 318 253 293 253 c 0
 252 253 230 253 185 250 c 0
 183 250 180 247 180 247 c 1
 180 247 152 173 135 125 c 16
 123 90 121 67 121 54 c 0
 121 30 182 26 190 26 c 1
 193 23 194 3 192 -3 c 1
 152 -1 139 2 95 2 c 0
 49 2 34 -1 -12 -3 c 1
 -15 0 -15 19 -12 26 c 1
 0 26 38 32 48 45 c 0
 68 71 81 103 95 139 c 2
291 542 m 1
 199 298 l 1
 199 298 199 294 201 294 c 0
 227 293 269 292 292 292 c 0
 323 292 345 293 376 295 c 0
 378 295 379 300 379 300 c 1
 291 542 l 1
EndSplineSet
Validated: 33
Substitution2: "'c2sc' Capitals to Small Capitals in Latin lookup 0 subtable" a.sc
EndChar

StartChar: B
Encoding: 66 66 33
Width: 596
Flags: W
HStem: -3 32<43.0862 114.671 217.188 380.413> 332 38<206 361.031> 627 32<44.2859 115.468 211.209 337.927>
VStem: 119 87<47.3571 332 370 616.422> 415 91<435.521 566.855> 453 99<105.284 263.241>
LayerCount: 2
Back
Fore
SplineSet
206 332 m 1xf4
 206 332 206 115 206 115 c 2
 206 101 208 54 215 47 c 0
 230 31 257 29 294 29 c 0
 369 29 453 54 453 176 c 0
 453 251 421 332 267 332 c 2
 267 332 206 332 206 332 c 1xf4
206 370 m 1
 206 370 290 370 290 370 c 2
 380 370 415 430 415 487 c 0xf8
 415 576 354 627 261 627 c 0
 249 627 215 626 211 617 c 0
 206 605 206 572 206 542 c 2
 206 542 206 370 206 370 c 1
305 659 m 0
 396 659 506 624 506 510 c 0xf8
 506 433 440 378 405 365 c 0
 403 364 402 362 405 360 c 1
 454 358 552 298 552 199 c 0xf4
 552 142 534 92 485 51 c 0
 437 11 352 -2 275 -3 c 0
 242 -3 84 -3 45 -3 c 1
 40 2 41 21 45 26 c 1
 57 26 111 31 114 42 c 0
 119 58 119 86 119 116 c 2
 119 116 119 543 119 543 c 2
 119 573 119 601 114 617 c 0
 111 628 57 633 45 633 c 1
 41 638 40 657 45 662 c 1
 86 660 124 657 163 657 c 0
 202 657 246 659 305 659 c 0
EndSplineSet
Validated: 513
Substitution2: "'c2sc' Capitals to Small Capitals in Latin lookup 0 subtable" b.sc
EndChar

StartChar: C
Encoding: 67 67 34
Width: 674
Flags: W
HStem: -6 33<318.873 489.461> 634 33<314.22 486.001>
VStem: 48 99<212.479 447.288> 587 34<485.58 538.617> 600 32<140.38 186.711>
LayerCount: 2
Back
Fore
SplineSet
386 667 m 0xe8
 452 667 524 662 598 646 c 1
 598 646 621 508 621 498 c 1
 622 492 609 485 599 485 c 0
 593 485 590 486 587 488 c 1xf0
 581 519 558 634 391 634 c 0
 243 634 147 483 147 343 c 0
 147 187 233 27 407 27 c 0
 468 27 510 49 539 75 c 0
 578 110 593 158 600 191 c 1
 610 192 623 189 632 183 c 1
 632 163 611 51 597 39 c 1
 542 8 474 -6 382 -6 c 0
 184 -6 48 145 48 322 c 0
 48 509 189 667 386 667 c 0xe8
EndSplineSet
Validated: 33
Substitution2: "'c2sc' Capitals to Small Capitals in Latin lookup 0 subtable" c.sc
EndChar

StartChar: D
Encoding: 68 68 35
Width: 710
Flags: W
HStem: -3 32<43.0862 114.671 213.396 390.374> 626 32<45 115.65 210.721 376.678>
VStem: 119 88<43.3146 622.145> 560 99<197.497 448.749>
LayerCount: 2
Back
Fore
SplineSet
207 541 m 2
 207 115 l 0
 207 101 208 49 213 43 c 0
 221 32 258 29 295 29 c 0
 437 29 560 118 560 313 c 0
 560 539 425 626 281 626 c 0
 269 626 215 625 212 615 c 0
 207 599 207 570 207 541 c 2
308 658 m 0
 527 658 659 519 659 334 c 0
 659 164 577 -3 295 -3 c 0
 251 -3 84 -3 45 -3 c 1
 40 2 41 21 45 26 c 1
 57 26 111 31 114 42 c 0
 119 58 119 86 119 116 c 2
 119 543 l 2
 119 573 119 601 114 617 c 0
 111 628 57 633 45 633 c 1
 41 638 40 657 45 662 c 1
 86 660 124 657 163 657 c 0
 202 657 264 658 308 658 c 0
EndSplineSet
Validated: 513
Substitution2: "'c2sc' Capitals to Small Capitals in Latin lookup 0 subtable" d.sc
EndChar

StartChar: E
Encoding: 69 69 36
Width: 587
Flags: W
HStem: -3 29<42.4037 113.252> 0 34<212.612 435.606> 312 37<206 383.451> 408 20G<423.5 430.5> 624 33<209.721 433.774> 633 29<42.5487 113.252>
VStem: 119 87<44.2663 310.528 349.429 620.395> 412 32<230.002 289.298 372.014 427.976> 482 32<523.07 571.016>
LayerCount: 2
Back
Fore
SplineSet
163 657 m 0x3b80
 257 657 376 664 485 664 c 1
 492 614 505 573 514 528 c 1
 511 525 503 523 496 523 c 0
 489 523 483 525 482 530 c 0
 460 610 419 624 366 624 c 2
 366 624 280 624 280 624 c 0
 268 624 214 623 211 613 c 0
 206 597 206 569 206 542 c 2
 206 542 206 355 206 355 c 2
 206 350 227 349 249 349 c 2
 249 349 302 349 302 349 c 2
 398 349 395 355 412 421 c 0
 413 426 420 428 427 428 c 0
 434 428 441 426 444 423 c 1
 444 423 444 234 444 234 c 1
 442 232 435 230 428 230 c 0
 421 230 414 233 412 238 c 0
 397 295 393 298 384 304 c 0
 373 311 316 312 278 312 c 0
 250 312 206 312 206 303 c 2
 206 303 206 113 206 113 c 2
 206 98 206 49 212 44 c 0
 225 34 241 34 283 34 c 2
 283 34 331 34 331 34 c 2
 378 34 429 44 457 61 c 0
 489 80 504 119 520 162 c 0
 521 166 527 168 534 168 c 0
 544 168 556 165 559 162 c 1
 540 108 512 40 505 -4 c 1
 396 -4 297 0 164 0 c 0x7b80
 117 0 84 -3 45 -3 c 1
 40 2 41 21 45 26 c 1
 57 26 111 31 114 42 c 0
 119 58 119 86 119 116 c 2
 119 116 119 543 119 543 c 2
 119 573 119 601 114 617 c 0
 111 628 57 633 45 633 c 1
 41 638 40 657 45 662 c 1xb780
 86 660 124 657 163 657 c 0x3b80
EndSplineSet
Validated: 513
Substitution2: "'c2sc' Capitals to Small Capitals in Latin lookup 0 subtable" e.sc
EndChar

StartChar: F
Encoding: 70 70 37
Width: 535
Flags: W
HStem: -3 29<42.4037 113.252 211.812 292.596> 312 37<206 383.451> 408 20G<423.5 430.5> 624 33<209.721 433.774> 633 29<42.5487 113.252>
VStem: 119 87<33.4148 310.528 349.429 620.395> 412 32<230.002 289.298 372.014 427.976> 482 32<523.07 571.016>
LayerCount: 2
Back
Fore
SplineSet
163 657 m 0xf7
 257 657 376 664 485 664 c 1
 492 614 505 573 514 528 c 1
 511 525 503 523 496 523 c 0
 489 523 483 525 482 530 c 0
 460 610 419 624 366 624 c 2
 366 624 280 624 280 624 c 0xf7
 268 624 214 623 211 613 c 0
 206 597 206 569 206 542 c 2
 206 542 206 355 206 355 c 2
 206 350 227 349 249 349 c 2
 249 349 302 349 302 349 c 2
 398 349 395 355 412 421 c 0
 413 426 420 428 427 428 c 0
 434 428 441 426 444 423 c 1
 444 423 444 234 444 234 c 1
 442 232 435 230 428 230 c 0
 421 230 414 233 412 238 c 0
 397 295 393 298 384 304 c 0
 373 311 316 312 278 312 c 0
 250 312 206 312 206 303 c 2
 206 303 206 116 206 116 c 2
 206 86 206 58 211 42 c 0
 214 31 278 26 290 26 c 1
 294 21 295 2 290 -3 c 1
 249 -1 202 2 163 2 c 0
 116 2 84 -3 45 -3 c 1
 40 2 41 21 45 26 c 1
 57 26 111 31 114 42 c 0
 119 58 119 86 119 116 c 2
 119 116 119 543 119 543 c 2
 119 573 119 601 114 617 c 0
 111 628 57 633 45 633 c 1
 41 638 40 657 45 662 c 1xef
 86 660 124 657 163 657 c 0xf7
EndSplineSet
Validated: 513
Substitution2: "'c2sc' Capitals to Small Capitals in Latin lookup 0 subtable" f.sc
EndChar

StartChar: G
Encoding: 71 71 38
Width: 720
Flags: W
HStem: -6 33<318.687 492.59> 265 29<459.404 529.258 626.723 693.596> 634 33<314.22 486.001>
VStem: 48 99<212.479 447.288> 535 86<64.4681 258.257> 587 34<485.58 538.617>
LayerCount: 2
Back
Fore
SplineSet
535 175 m 2xf8
 535 205 535 233 530 249 c 0
 527 260 474 265 462 265 c 1
 458 270 457 289 462 294 c 1
 503 292 540 289 579 289 c 0
 618 289 650 292 691 294 c 1
 696 289 695 270 691 265 c 1
 679 265 629 260 626 249 c 0
 621 233 621 205 621 175 c 2
 621 175 621 114 621 104 c 0xf8
 621 83 631 74 631 64 c 0
 631 58 628 55 611 46 c 0
 568 23 514 -6 382 -6 c 0
 184 -6 48 145 48 322 c 0
 48 509 189 667 386 667 c 0
 452 667 524 662 598 646 c 1
 598 646 621 508 621 498 c 1
 622 492 609 485 599 485 c 0
 593 485 590 486 587 488 c 1xf4
 581 519 558 634 391 634 c 0
 243 634 147 483 147 343 c 0
 147 187 232 27 407 27 c 0
 459 27 498 44 528 59 c 0
 534 62 535 67 535 74 c 0
 535 74 535 175 535 175 c 2xf8
EndSplineSet
Validated: 1
Substitution2: "'c2sc' Capitals to Small Capitals in Latin lookup 0 subtable" g.sc
EndChar

StartChar: H
Encoding: 72 72 39
Width: 726
Flags: W
HStem: -3 32<42.5037 113.999 211.001 282.496 443.504 514.999 612.001 683.496> 325 34<208 518> 630 32<42.5037 113.999 211.001 282.496 443.504 514.999 612.001 683.496>
VStem: 119 87<35.7426 317 362.001 623.257> 520 87<35.7426 320.999 362.001 623.257>
LayerCount: 2
Back
Fore
SplineSet
163 657 m 0
 202 657 239 660 280 662 c 1
 285 657 284 635 280 630 c 1
 268 630 214 625 211 614 c 0
 206 598 206 570 206 540 c 2
 206 365 l 1
 206 363 208 362 208 362 c 1
 257 361 309 359 365 359 c 0
 412 359 473 361 518 362 c 1
 518 362 520 364 520 366 c 0
 520 540 l 2
 520 570 520 598 515 614 c 0
 512 625 458 630 446 630 c 1
 442 635 441 657 446 662 c 1
 487 660 525 657 564 657 c 0
 603 657 640 660 681 662 c 1
 686 657 685 635 681 630 c 1
 669 630 615 625 612 614 c 0
 607 598 607 570 607 540 c 2
 607 119 l 2
 607 89 607 61 612 45 c 0
 615 34 669 29 681 29 c 1
 685 24 686 2 681 -3 c 1
 640 -1 603 2 564 2 c 0
 525 2 487 -1 446 -3 c 1
 441 2 442 24 446 29 c 1
 458 29 512 34 515 45 c 0
 520 61 520 89 520 119 c 2
 520 317 l 1
 520 319 518 321 518 321 c 1
 471 322 416 325 365 325 c 0
 226 325 211 321 207 319 c 1
 206 318 206 317 206 317 c 1
 206 119 l 2
 206 89 206 61 211 45 c 0
 214 34 268 29 280 29 c 1
 284 24 285 2 280 -3 c 1
 239 -1 202 2 163 2 c 0
 124 2 86 -1 45 -3 c 1
 40 2 41 24 45 29 c 1
 57 29 111 34 114 45 c 0
 119 61 119 89 119 119 c 2
 119 540 l 2
 119 570 119 598 114 614 c 0
 111 625 57 630 45 630 c 1
 41 635 40 657 45 662 c 1
 86 660 124 657 163 657 c 0
EndSplineSet
Validated: 1
Substitution2: "'c2sc' Capitals to Small Capitals in Latin lookup 0 subtable" h.sc
EndChar

StartChar: I
Encoding: 73 73 40
Width: 324
Flags: W
HStem: -3 29<42.4037 113.252 211.748 282.596> 633 29<42.4037 113.252 211.748 282.596>
VStem: 119 87<32.7426 626.257>
LayerCount: 2
Back
Fore
SplineSet
163 657 m 0
 202 657 239 660 280 662 c 1
 285 657 284 638 280 633 c 1
 268 633 214 628 211 617 c 0
 206 601 206 573 206 543 c 2
 206 116 l 2
 206 86 206 58 211 42 c 0
 214 31 268 26 280 26 c 1
 284 21 285 2 280 -3 c 1
 239 -1 202 2 163 2 c 0
 124 2 86 -1 45 -3 c 1
 40 2 41 21 45 26 c 1
 57 26 111 31 114 42 c 0
 119 58 119 86 119 116 c 2
 119 543 l 2
 119 573 119 601 114 617 c 0
 111 628 57 633 45 633 c 1
 41 638 40 657 45 662 c 1
 86 660 124 657 163 657 c 0
EndSplineSet
Validated: 1
Substitution2: "'c2sc' Capitals to Small Capitals in Latin lookup 0 subtable" i.sc
EndChar

StartChar: J
Encoding: 74 74 41
Width: 313
Flags: W
HStem: -227 47<-40.5 66.2636> 633 29<37.4037 108.252 206.748 277.596>
VStem: 114 87<-53.3294 626.257>
LayerCount: 2
Back
Fore
SplineSet
158 657 m 0
 197 657 234 660 275 662 c 1
 280 657 279 638 275 633 c 1
 263 633 209 628 206 617 c 0
 201 601 201 573 201 543 c 2
 201 121 l 2
 201 -129 102 -227 -33 -227 c 0
 -48 -227 -84 -218 -96 -209 c 1
 -101 -204 -104 -193 -104 -186 c 0
 -104 -155 -88 -130 -56 -130 c 0
 -38 -130 -22 -146 -8 -159 c 0
 3 -169 20 -180 37 -180 c 0
 79 -180 114 -126 114 116 c 2
 114 543 l 2
 114 573 114 601 109 617 c 0
 106 628 52 633 40 633 c 1
 36 638 35 657 40 662 c 1
 81 660 119 657 158 657 c 0
EndSplineSet
Validated: 1
Substitution2: "'c2sc' Capitals to Small Capitals in Latin lookup 0 subtable" j.sc
EndChar

StartChar: K
Encoding: 75 75 42
Width: 657
Flags: W
HStem: -3 32<42.5037 113.999 211.001 282.496 589.9 660.782> 630 32<42.5037 113.999 211.001 282.496 402.462 459.18 552.643 628.082>
VStem: 119 87<35.7426 306.999 341 623.257>
LayerCount: 2
Back
Fore
SplineSet
163 657 m 0
 202 657 239 660 280 662 c 1
 285 657 284 635 280 630 c 1
 268 630 214 625 211 614 c 0
 206 598 206 570 206 540 c 2
 206 341 l 1
 227 354 278 402 319 442 c 0
 397 519 416 539 446 578 c 0
 452 586 460 599 460 609 c 0
 460 634 413 631 404 631 c 1
 401 637 401 653 404 662 c 1
 441 660 482 656 519 656 c 0
 563 656 587 660 627 662 c 1
 629 656 630 631 625 631 c 0
 616 630 560 631 526 594 c 0
 440 500 382 448 295 364 c 1
 293 361 293 359 295 356 c 1
 391 244 474 145 551 72 c 0
 576 49 605 30 660 26 c 1
 665 21 660 -1 659 -3 c 1
 592 -3 537 1 517 8 c 0
 503 13 477 23 449 51 c 0
 428 72 337 175 224 304 c 0
 222 307 219 307 215 307 c 0
 212 307 208 306 206 305 c 1
 206 119 l 2
 206 89 206 61 211 45 c 0
 214 34 268 29 280 29 c 1
 284 24 285 2 280 -3 c 1
 239 -1 202 2 163 2 c 0
 124 2 86 -1 45 -3 c 1
 40 2 41 24 45 29 c 1
 57 29 111 34 114 45 c 0
 119 61 119 89 119 119 c 2
 119 540 l 2
 119 570 119 598 114 614 c 0
 111 625 57 630 45 630 c 1
 41 635 40 657 45 662 c 1
 86 660 124 657 163 657 c 0
EndSplineSet
Validated: 33
Substitution2: "'c2sc' Capitals to Small Capitals in Latin lookup 0 subtable" k.sc
EndChar

StartChar: L
Encoding: 76 76 43
Width: 564
Flags: W
HStem: -3 29<42.4037 113.252> 0 34<212.612 437.392> 633 29<42.4037 113.252 211.748 282.596>
VStem: 119 87<44.2685 626.257>
LayerCount: 2
Back
Fore
SplineSet
206 116 m 2xb0
 206 101 206 49 212 44 c 0
 225 34 241 34 283 34 c 2
 283 34 340 34 340 34 c 2
 378 34 429 42 457 61 c 0
 482 78 504 109 520 162 c 0
 521 166 527 168 534 168 c 0
 544 168 556 165 559 162 c 1
 540 108 512 40 505 -4 c 1
 396 -4 297 0 164 0 c 0x70
 117 0 84 -3 45 -3 c 1
 40 2 41 21 45 26 c 1
 57 26 111 31 114 42 c 0
 119 58 119 86 119 116 c 2
 119 116 119 543 119 543 c 2
 119 573 119 601 114 617 c 0
 111 628 57 633 45 633 c 1
 41 638 40 657 45 662 c 1
 86 660 124 657 163 657 c 0
 202 657 239 660 280 662 c 1
 285 657 284 638 280 633 c 1
 268 633 214 628 211 617 c 0
 206 601 206 573 206 543 c 2
 206 543 206 116 206 116 c 2xb0
EndSplineSet
Validated: 513
Substitution2: "'c2sc' Capitals to Small Capitals in Latin lookup 0 subtable" l.sc
EndChar

StartChar: M
Encoding: 77 77 44
Width: 907
Flags: W
HStem: -3 29<24.1812 102.346 171.148 249.653 632.181 698.416 803.076 873.36> 633 29<57.7476 121.145 787.912 853.014>
VStem: 119 45<37.5115 289.668> 133 44<371.361 583.939> 693 86<325.272 584.822> 708 81<37.202 383.21>
LayerCount: 2
Back
Fore
SplineSet
162 657 m 0xd0
 196 657 221 660 243 662 c 1
 263 599 384 324 455 146 c 0
 456 144 458 144 459 144 c 0
 460 144 463 145 464 148 c 0
 523 300 559 394 617 542 c 0
 635 588 661 662 661 662 c 1
 693 660 721 658 740 658 c 0
 775 658 827 660 852 662 c 1
 853 659 855 633 855 633 c 17
 841 633 789 625 784 615 c 0
 780 606 779 589 779 577 c 0xd8
 781 508 786 270 789 140 c 0
 790 101 792 67 801 43 c 0
 806 29 863 26 871 26 c 1
 876 17 874 0 873 -3 c 1
 833 -1 798 2 754 2 c 0
 708 2 680 -1 634 -3 c 1
 632 -1 630 18 634 26 c 1
 646 26 687 30 699 37 c 0
 706 41 708 65 708 79 c 0xc4
 708 93 706 122 706 137 c 0
 702 281 699 403 693 565 c 0
 693 569 691 585 684 585 c 0
 682 585 681 583 679 578 c 8
 597 372 545 242 468 49 c 0
 464 40 441 0 430 -2 c 0
 427 -3 424 -1 421 0 c 1
 421 0 177 584 177 584 c 1xd8
 173 366 164 85 164 75 c 0
 164 66 165 52 168 44 c 0
 174 29 239 26 247 26 c 1
 252 20 250 0 249 -3 c 1
 209 -1 187 2 143 2 c 0
 97 2 72 -1 26 -3 c 1
 24 -1 22 18 26 26 c 1
 38 26 98 31 107 44 c 0
 116 57 118 73 119 94 c 0xe0
 128 334 133 554 133 572 c 0
 133 586 133 601 129 612 c 0
 125 624 71 633 59 633 c 1
 57 633 57 660 59 662 c 1
 105 660 116 657 162 657 c 0xd0
EndSplineSet
Validated: 1
Substitution2: "'c2sc' Capitals to Small Capitals in Latin lookup 0 subtable" m.sc
EndChar

StartChar: N
Encoding: 78 78 45
Width: 776
Flags: W
HStem: -3 29<39.0312 111.285 192.778 262.808> 634 29<39.2892 114.966 522.192 593.129 674.715 746.969>
VStem: 129 46<46.7508 568.502> 611 46<166 613.249>
LayerCount: 2
Back
Fore
SplineSet
143 660 m 0
 173 660 205 661 219 662 c 1
 270 582 500 321 611 166 c 1
 611 224 l 0
 611 545 l 2
 611 581 611 598 601 614 c 0
 595 624 541 634 525 634 c 1
 520 641 521 657 523 663 c 1
 563 661 594 658 638 658 c 0
 684 658 699 661 745 663 c 1
 748 658 750 645 745 634 c 1
 733 634 674 626 667 614 c 0
 658 599 657 584 657 546 c 2
 657 139 l 2
 657 81 657 53 659 1 c 1
 658 -4 649 -5 646 -5 c 0
 641 -5 625 0 611 18 c 2
 175 569 l 1
 175 115 l 2
 175 79 175 62 185 46 c 0
 191 36 244 26 260 26 c 1
 265 19 264 3 262 -3 c 1
 222 -1 192 2 148 2 c 0
 102 2 87 -1 41 -3 c 1
 38 2 36 15 41 26 c 1
 53 26 112 34 119 46 c 0
 128 61 129 76 129 114 c 2
 129 548 l 2
 129 586 128 601 119 616 c 0
 112 628 53 636 41 636 c 1
 36 647 38 660 41 665 c 1
 87 663 110 660 143 660 c 0
EndSplineSet
Validated: 513
Substitution2: "'c2sc' Capitals to Small Capitals in Latin lookup 0 subtable" n.sc
EndChar

StartChar: O
Encoding: 79 79 46
Width: 748
Flags: W
HStem: -10 34<312.807 466.307> 633 34<280.332 437.715>
VStem: 49 99<213.913 447.61> 600 99<209.584 443.622>
LayerCount: 2
Back
Fore
SplineSet
358 633 m 0
 208 633 148 484 148 350 c 0
 148 195 234 24 389 24 c 0
 539 24 600 174 600 309 c 0
 600 464 513 633 358 633 c 0
373 667 m 0
 549 667 699 527 699 328 c 0
 699 141 549 -10 373 -10 c 0
 197 -10 49 130 49 328 c 0
 49 515 197 667 373 667 c 0
EndSplineSet
Validated: 1
Substitution2: "'c2sc' Capitals to Small Capitals in Latin lookup 0 subtable" o.sc
EndChar

StartChar: P
Encoding: 80 80 47
Width: 548
Flags: W
HStem: -3 29<42.4037 113.252 211.748 282.596> 278 28<251.776 345.657> 627 32<44.2859 115.468 211.209 339.676>
VStem: 119 87<32.7426 616.422> 426 92<383.77 555.24>
LayerCount: 2
Back
Fore
SplineSet
518 479 m 0
 518 357 429 278 298 278 c 0
 287 278 265 281 255 286 c 0
 252 288 241 296 241 308 c 0
 241 310 242 314 246 313 c 1
 257 310 269 306 284 306 c 0
 364 306 426 362 426 462 c 0
 426 561 372 627 261 627 c 0
 249 627 215 626 211 617 c 0
 206 605 206 572 206 542 c 2
 206 116 l 2
 206 86 206 58 211 42 c 0
 214 31 268 26 280 26 c 1
 284 21 285 2 280 -3 c 1
 239 -1 202 2 163 2 c 0
 124 2 86 -1 45 -3 c 1
 40 2 41 21 45 26 c 1
 57 26 111 31 114 42 c 0
 119 58 119 86 119 116 c 2
 119 543 l 2
 119 573 119 601 114 617 c 0
 111 628 57 633 45 633 c 1
 41 638 40 657 45 662 c 1
 86 660 124 657 163 657 c 0
 202 657 246 659 305 659 c 0
 411 659 518 595 518 479 c 0
EndSplineSet
Validated: 1
Substitution2: "'c2sc' Capitals to Small Capitals in Latin lookup 0 subtable" p.sc
EndChar

StartChar: Q
Encoding: 81 81 48
Width: 747
Flags: W
HStem: -136 55<579.579 714.391> 633 34<280.332 437.715>
VStem: 49 99<215.297 447.61> 600 99<206.759 443.622>
LayerCount: 2
Back
Fore
SplineSet
358 633 m 0
 208 633 148 484 148 350 c 0
 148 195 234 24 389 24 c 0
 539 24 600 174 600 309 c 0
 600 464 513 633 358 633 c 0
373 667 m 0
 549 667 699 527 699 328 c 0
 699 175 599 46 466 4 c 1
 562 -42 582 -81 685 -81 c 0
 725 -81 749 -77 756 -75 c 1
 763 -75 771 -78 774 -82 c 0
 775 -83 775 -84 775 -85 c 1
 720 -114 670 -136 609 -136 c 0
 502 -136 423 -33 293 0 c 0
 154 35 49 161 49 328 c 0
 49 515 197 667 373 667 c 0
EndSplineSet
Validated: 1
Substitution2: "'c2sc' Capitals to Small Capitals in Latin lookup 0 subtable" q.sc
EndChar

StartChar: R
Encoding: 82 82 49
Width: 621
Flags: W
HStem: -3 29<42.4037 113.252 211.748 282.596 586.565 646.782> 302 31<206 288.998> 627 32<44.2859 115.468 211.209 339.85>
VStem: 119 87<32.7426 302 333 616.422> 415 93<414.193 565.385>
LayerCount: 2
Back
Fore
SplineSet
305 659 m 0
 396 659 508 600 508 486 c 0
 508 414 439 344 372 321 c 1
 425 233 467 173 533 86 c 0
 562 48 591 30 646 26 c 1
 651 21 646 -1 645 -3 c 1
 578 -3 533 2 513 9 c 0
 499 14 472 22 448 53 c 0
 433 73 352 192 289 290 c 0
 283 299 273 302 259 302 c 0
 259 302 215 302 206 302 c 1
 206 116 l 1
 206 86 206 58 211 42 c 0
 214 31 268 26 280 26 c 1
 284 21 285 2 280 -3 c 1
 239 -1 202 2 163 2 c 0
 124 2 86 -1 45 -3 c 1
 40 2 41 21 45 26 c 1
 57 26 111 31 114 42 c 0
 119 58 119 86 119 116 c 2
 119 543 l 2
 119 573 119 601 114 617 c 0
 111 628 57 633 45 633 c 1
 41 638 40 657 45 662 c 1
 86 660 124 657 163 657 c 0
 202 657 246 659 305 659 c 0
415 477 m 0
 415 564 372 627 261 627 c 0
 249 627 215 626 211 617 c 0
 206 605 206 572 206 542 c 2
 206 333 l 1
 206 333 241 333 260 333 c 0
 338 333 415 389 415 477 c 0
EndSplineSet
Validated: 1
Substitution2: "'c2sc' Capitals to Small Capitals in Latin lookup 0 subtable" r.sc
EndChar

StartChar: S
Encoding: 83 83 50
Width: 502
Flags: W
HStem: -10 34<181.241 314.943> 632 34<192.457 311.611>
VStem: 49 37<125.029 184.71> 65 80<454.853 571.394> 372 87<90.4983 213.651>
LayerCount: 2
Back
Fore
SplineSet
261 666 m 0xd8
 323 666 346 653 412 638 c 1
 420 586 424 523 426 496 c 0
 427 489 412 485 405 485 c 0
 402 485 397 486 394 489 c 1
 388 539 339 632 254 632 c 0
 172 632 145 569 145 521 c 0xd8
 145 441 219 408 285 366 c 0
 351 324 459 272 459 173 c 0
 459 63 357 -10 250 -10 c 0
 182 -10 119 9 70 19 c 1
 58 78 49 162 49 174 c 1
 55 180 66 186 75 186 c 0
 82 186 85 182 86 177 c 0xe8
 94 139 132 24 252 24 c 0
 317 24 372 68 372 146 c 0
 372 229 308 250 239 290 c 0
 162 335 65 389 65 490 c 0
 65 596 161 666 261 666 c 0xd8
EndSplineSet
Validated: 1
Substitution2: "'c2sc' Capitals to Small Capitals in Latin lookup 0 subtable" s.sc
EndChar

StartChar: T
Encoding: 84 84 51
Width: 626
Flags: W
HStem: -3 29<193.404 264.252 362.748 433.596> 626 35<95.8184 270 357 528.71>
VStem: 12 33<499.771 557.091> 270 87<32.7426 626> 580 33<499.771 557.091>
LayerCount: 2
Back
Fore
SplineSet
508 661 m 0
 524 661 556 670 568 676 c 0
 578 681 581 681 587 678 c 1
 594 617 602 559 613 506 c 1
 610 503 603 498 594 499 c 0
 589 499 582 501 580 504 c 1
 566 574 534 626 484 626 c 2
 484 626 357 626 357 626 c 1
 357 626 357 116 357 116 c 2
 357 86 357 58 362 42 c 0
 365 31 419 26 431 26 c 1
 435 21 436 2 431 -3 c 1
 390 -1 353 2 314 2 c 0
 275 2 237 -1 196 -3 c 1
 191 2 192 21 196 26 c 1
 208 26 262 31 265 42 c 0
 270 58 270 86 270 116 c 2
 270 116 270 626 270 626 c 1
 270 626 141 626 141 626 c 2
 91 626 59 574 45 504 c 1
 43 501 36 499 31 499 c 0
 22 498 15 503 12 506 c 1
 23 559 31 617 38 678 c 1
 44 681 55 678 61 675 c 0
 73 669 101 661 117 661 c 0
 204 661 415 661 508 661 c 0
EndSplineSet
Validated: 1
Substitution2: "'c2sc' Capitals to Small Capitals in Latin lookup 0 subtable" t.sc
EndChar

StartChar: U
Encoding: 85 85 52
Width: 723
Flags: W
HStem: -4 58<281.017 475.654> 633 29<26.4037 97.2515 195.748 266.596 485.409 554.262 631.763 705.988>
VStem: 103 87<158.21 626.257> 570 46<156.61 613.249>
LayerCount: 2
Back
Fore
SplineSet
147 657 m 0
 186 657 223 660 264 662 c 1
 269 657 268 638 264 633 c 1
 252 633 198 628 195 617 c 0
 190 601 190 573 190 543 c 2
 190 296 l 2
 190 213 207 152 239 112 c 0
 270 73 317 54 376 54 c 0
 479 54 567 102 570 274 c 2
 570 545 l 2
 570 581 570 598 560 614 c 0
 554 624 504 634 488 634 c 1
 483 641 484 657 486 663 c 1
 526 661 553 658 597 658 c 0
 643 658 658 661 704 663 c 1
 707 658 709 645 704 634 c 1
 692 634 633 626 626 614 c 0
 617 599 616 584 616 546 c 2
 616 276 l 2
 616 76 511 -4 355 -4 c 0
 283 -4 221 20 177 62 c 0
 131 106 103 171 103 251 c 2
 103 543 l 2
 103 573 103 601 98 617 c 0
 95 628 41 633 29 633 c 1
 25 638 24 657 29 662 c 1
 70 660 108 657 147 657 c 0
EndSplineSet
Validated: 1
Substitution2: "'c2sc' Capitals to Small Capitals in Latin lookup 0 subtable" u.sc
EndChar

StartChar: V
Encoding: 86 86 53
Width: 638
Flags: W
HStem: -2 21G<302 310.5> 633 29<-7.25244 48.078 182.204 234.639 447.308 499.533 600.896 652.397>
LayerCount: 2
Back
Fore
SplineSet
110 657 m 0
 154 657 194 660 234 662 c 1
 236 656 236 634 232 633 c 1
 224 633 172 628 172 600 c 0
 172 590 177 566 189 532 c 0
 222 442 335 137 338 129 c 1
 344 142 438 369 498 523 c 16
 507 546 516 575 516 593 c 0
 516 625 462 632 450 632 c 1
 445 634 445 656 450 661 c 1
 487 659 517 657 554 657 c 0
 600 657 612 660 652 662 c 1
 655 657 653 633 650 633 c 1
 642 633 603 627 586 607 c 0
 574 593 551 544 536 506 c 0
 463 322 420 218 342 32 c 0
 331 5 317 -2 304 -2 c 0
 300 -2 296 10 294 14 c 0
 226 192 179 322 104 514 c 0
 89 553 75 584 58 610 c 0
 47 626 6 633 -6 633 c 1
 -8 633 -8 660 -6 662 c 1
 40 660 64 657 110 657 c 0
EndSplineSet
Validated: 1
Substitution2: "'c2sc' Capitals to Small Capitals in Latin lookup 0 subtable" v.sc
EndChar

StartChar: W
Encoding: 87 87 54
Width: 900
Flags: W
HStem: -2 21G<258 266.5 620 628.5> 633 29<-5.25244 46.2641 174.204 226.788 699.074 754.21 857.325 904.577>
LayerCount: 2
Back
Fore
SplineSet
118 657 m 0
 162 657 186 660 226 662 c 1
 228 656 228 634 224 633 c 1
 216 633 164 628 164 600 c 1
 164 593 169 570 179 535 c 0
 202 452 253 290 295 148 c 1
 342 303 416 531 446 629 c 0
 452 648 471 662 482 662 c 0
 486 662 489 657 494 646 c 1
 501 624 586 350 653 151 c 1
 696 304 721 383 758 524 c 0
 764 548 770 576 770 594 c 0
 770 626 714 633 702 633 c 1
 697 635 697 657 702 662 c 1
 739 660 773 657 810 657 c 0
 856 657 864 660 904 662 c 1
 907 657 905 633 902 633 c 1
 894 633 859 624 839 607 c 0
 825 595 815 572 803 531 c 0
 748 342 713 211 660 32 c 0
 655 14 635 -2 622 -2 c 0
 618 -2 613 10 612 14 c 1
 563 159 448 509 448 508 c 1
 392 324 351 209 298 32 c 0
 293 14 273 -2 260 -2 c 0
 256 -2 251 10 250 14 c 0
 192 199 151 335 90 532 c 0
 78 572 73 595 54 613 c 0
 40 626 8 633 -4 633 c 1
 -6 633 -6 660 -4 662 c 1
 42 660 72 657 118 657 c 0
EndSplineSet
Validated: 545
Substitution2: "'c2sc' Capitals to Small Capitals in Latin lookup 0 subtable" w.sc
EndChar

StartChar: X
Encoding: 88 88 55
Width: 668
Flags: W
HStem: -3 29<-7.95435 56.9492 154.295 228.378 416.188 467.693 601.241 669.049> 633 29<31.1875 86.7014 234.181 288.161 432.979 495.938 593.067 648.393>
LayerCount: 2
Back
Fore
SplineSet
159 657 m 0
 208 657 247 660 287 662 c 1
 289 656 290 633 285 633 c 0
 271 633 225 627 225 601 c 0
 225 593 229 583 237 571 c 2
 353 393 l 1
 413 473 474 550 499 590 c 0
 503 596 503 604 503 606 c 0
 503 615 492 632 436 632 c 1
 432 633 431 654 434 661 c 1
 474 658 500 656 537 656 c 0
 589 656 623 659 647 661 c 1
 650 656 651 638 645 632 c 1
 637 632 585 627 556 592 c 0
 479 500 444 456 372 360 c 1
 569 66 l 2
 588 37 634 26 667 26 c 1
 671 21 669 -1 668 -3 c 1
 628 -1 606 2 565 2 c 0
 509 2 475 -1 419 -3 c 1
 414 2 414 26 419 26 c 0
 430 26 477 35 477 54 c 0
 477 57 474 63 472 66 c 2
 320 301 l 1
 260 221 169 94 154 66 c 0
 153 63 149 56 149 50 c 0
 149 38 170 26 226 26 c 1
 230 20 230 0 228 -3 c 1
 191 -1 152 2 115 2 c 0
 63 2 32 -1 -8 -3 c 1
 -11 3 -8 23 -6 26 c 1
 2 26 73 34 101 70 c 0
 177 167 225 236 297 332 c 1
 258 392 156 548 156 548 c 2
 133 584 118 601 90 617 c 0
 73 627 46 633 34 633 c 0
 29 633 29 657 34 662 c 1
 83 660 110 657 159 657 c 0
EndSplineSet
Validated: 1
Substitution2: "'c2sc' Capitals to Small Capitals in Latin lookup 0 subtable" x.sc
EndChar

StartChar: Y
Encoding: 89 89 56
Width: 598
Flags: W
HStem: -3 29<184.404 255.252 353.748 424.596> 633 29<-12.8125 42.7014 190.181 244.161 392.728 456.191 541.222 603.413>
VStem: 261 87<32.7426 116 116.068 320.855>
LayerCount: 2
Back
Fore
SplineSet
261 116 m 2
 261 267 l 0
 261 274 259 285 254 295 c 16
 196 400 171 442 112 548 c 0
 91 585 74 601 46 617 c 0
 29 627 2 633 -10 633 c 0
 -15 633 -15 657 -10 662 c 1
 39 660 66 657 115 657 c 0
 164 657 203 660 243 662 c 1
 245 656 246 633 241 633 c 0
 227 633 181 627 181 601 c 0
 181 593 185 584 193 571 c 2
 332 331 l 1
 381 419 447 554 462 590 c 0
 463 593 465 599 465 605 c 0
 465 615 451 632 395 632 c 1
 392 632 391 658 393 661 c 1
 430 659 456 656 493 656 c 0
 545 656 563 659 603 661 c 1
 605 655 604 632 601 632 c 1
 593 632 535 632 512 592 c 0
 474 525 397 381 354 301 c 8
 348 290 349 279 349 270 c 0
 349 210 348 116 348 116 c 2
 348 86 348 58 353 42 c 0
 356 31 410 26 422 26 c 1
 426 21 427 2 422 -3 c 1
 381 -1 344 2 305 2 c 0
 266 2 228 -1 187 -3 c 1
 182 2 183 21 187 26 c 1
 199 26 253 31 256 42 c 0
 261 58 261 86 261 116 c 2
EndSplineSet
Validated: 1
Substitution2: "'c2sc' Capitals to Small Capitals in Latin lookup 0 subtable" y.sc
EndChar

StartChar: Z
Encoding: 90 90 57
Width: 633
Flags: W
HStem: 0 35<157 486.264> 626 35<153.755 459.953> 649 20G<73 86.5 520 564>
VStem: 43 37<491.927 543.908>
LayerCount: 2
Back
Fore
SplineSet
216 626 m 2xd0
 148 626 102 577 80 495 c 1
 78 492 74 491 69 491 c 0
 60 491 46 496 43 499 c 1
 60 545 70 601 76 669 c 1xb0
 97 666 131 661 158 661 c 0
 158 661 352 661 352 661 c 2xd0
 436 661 478 665 562 671 c 1
 566 670 580 657 580 649 c 1xb0
 578 641 157 35 157 35 c 25
 157 35 418 35 418 35 c 2
 461 35 490 50 511 71 c 0
 540 100 553 140 564 169 c 0
 565 171 573 172 578 172 c 0
 588 172 598 167 602 163 c 1
 578 84 566 51 554 0 c 1
 554 0 246 0 53 0 c 0
 42 0 31 8 35 14 c 2
 35 14 460 626 460 626 c 1
 460 626 216 626 216 626 c 2xd0
EndSplineSet
Validated: 1
Substitution2: "'c2sc' Capitals to Small Capitals in Latin lookup 0 subtable" z.sc
EndChar

StartChar: bracketleft
Encoding: 91 91 58
Width: 259
Flags: W
VStem: 79 48<-96 676>
LayerCount: 2
Back
Fore
SplineSet
98 718 m 0
 180 718 251 724 251 724 c 1
 251 724 254 721 254 715 c 0
 254 709 250 701 244 699 c 0
 206 686 127 676 127 676 c 1
 127 -96 l 1
 127 -96 206 -106 244 -119 c 0
 250 -121 254 -129 254 -135 c 0
 254 -141 251 -144 251 -144 c 1
 251 -144 180 -138 98 -138 c 0
 80 -138 79 -116 79 -115 c 2
 79 695 l 2
 79 696 80 718 98 718 c 0
EndSplineSet
Validated: 1
Substitution2: "'c2sc' Capitals to Small Capitals in Latin lookup 0 subtable" bracketleft.sc
Substitution2: "'smcp' Lowercase to Small Capitals lookup 2-1" bracketleft.sc
EndChar

StartChar: backslash
Encoding: 92 92 59
Width: 401
Flags: W
VStem: 31 338
LayerCount: 2
Back
Fore
SplineSet
31 750 m 1
 34 755 44 757 51 757 c 0
 62 757 76 749 79 741 c 2
 79 741 369 -11 369 -17 c 1
 368 -21 358 -28 346 -28 c 0
 339 -28 328 -21 325 -14 c 0
 214 275 119 524 31 750 c 1
EndSplineSet
Validated: 1
Substitution2: "'c2sc' Capitals to Small Capitals in Latin lookup 0 subtable" backslash.sc
Substitution2: "'smcp' Lowercase to Small Capitals lookup 2-1" backslash.sc
EndChar

StartChar: bracketright
Encoding: 93 93 60
Width: 260
Flags: W
VStem: 133 48<-96 676>
LayerCount: 2
Back
Fore
SplineSet
162 718 m 0
 180 718 181 696 181 695 c 2
 181 -115 l 2
 181 -116 180 -138 162 -138 c 0
 80 -138 9 -144 9 -144 c 1
 9 -144 6 -141 6 -135 c 0
 6 -129 10 -121 16 -119 c 0
 54 -106 133 -96 133 -96 c 1
 133 676 l 1
 133 676 54 686 16 699 c 0
 10 701 6 709 6 715 c 0
 6 721 9 724 9 724 c 1
 9 724 80 718 162 718 c 0
EndSplineSet
Validated: 1
Substitution2: "'c2sc' Capitals to Small Capitals in Latin lookup 0 subtable" bracketright.sc
Substitution2: "'smcp' Lowercase to Small Capitals lookup 2-1" bracketright.sc
EndChar

StartChar: asciicircum
Encoding: 94 94 61
Width: 390
Flags: W
HStem: 423 222
VStem: 61 250
LayerCount: 2
Back
Fore
SplineSet
186 645 m 0
 191 645 198 640 202 632 c 0
 242 553 268 514 311 439 c 1
 311 429 302 423 296 423 c 1
 250 471 186 552 186 552 c 25
 186 552 123 471 77 423 c 1
 71 423 61 429 61 439 c 1
 104 514 131 553 171 632 c 0
 175 640 181 645 186 645 c 0
EndSplineSet
Validated: 1
Substitution2: "'c2sc' Capitals to Small Capitals in Latin lookup 0 subtable" asciicircum.sc
Substitution2: "'smcp' Lowercase to Small Capitals lookup 2-1" asciicircum.sc
EndChar

StartChar: underscore
Encoding: 95 95 62
Width: 505
Flags: W
HStem: -43 56<21 466>
LayerCount: 2
Back
Fore
SplineSet
14 -33 m 1
 14 -33 19 13 29 13 c 2
 478 13 l 2
 480 13 482 12 482 8 c 0
 482 -1 478 -15 472 -37 c 0
 470 -43 466 -43 466 -43 c 1
 21 -43 l 1
 21 -43 14 -43 14 -33 c 1
EndSplineSet
Validated: 1
EndChar

StartChar: a
Encoding: 97 97 64
Width: 431
Flags: W
HStem: -8 54<138.481 211.996 323.5 388.237> 398 38<158.777 269.5>
VStem: 37 83<64.4927 166.568> 52 81<294.824 353.758> 274 76<67.9015 223 245.918 361.958>
LayerCount: 2
Back
Fore
SplineSet
187 46 m 0xe8
 222 46 274 77 274 87 c 2
 274 87 274 223 274 223 c 17
 247 215 199 201 181 194 c 0
 145 180 120 154 120 116 c 0
 120 79 149 46 187 46 c 0xe8
241 436 m 0
 298 436 350 376 350 299 c 2
 350 299 350 93 350 93 c 2
 350 66 358 46 381 46 c 0
 399 46 411 57 414 59 c 1
 417 59 418 54 418 51 c 0
 418 45 416 37 413 32 c 1
 401 21 359 -6 338 -6 c 0
 309 -6 283 28 277 59 c 1
 265 47 189 -8 154 -8 c 0
 88 -8 37 42 37 107 c 0xe8
 37 148 65 179 87 187 c 0
 143 207 233 237 262 250 c 0
 272 254 274 257 274 275 c 2
 274 275 274 302 274 302 c 2
 274 347 237 398 188 398 c 0
 153 398 140 375 133 336 c 0
 127 302 111 288 86 288 c 0
 65 288 52 310 52 330 c 0xd8
 52 334 55 349 59 354 c 1
 90 383 168 436 241 436 c 0
EndSplineSet
Validated: 1
Substitution2: "'smcp' Lowercase to Small Capitals lookup 2-1" a.sc
EndChar

StartChar: b
Encoding: 98 98 65
Width: 498
Flags: W
HStem: -7 34<182.935 293.746> 379 5<154 227> 628 26<3.89859 61.8281> 674 20G<127 150.5>
VStem: 71 77<53.1875 351.859 383.777 621.593> 374 84<134.316 299.421>
LayerCount: 2
Back
Fore
SplineSet
211 -7 m 0
 196 -7 158 2 137 8 c 0
 115 14 95 22 72 14 c 1
 67 14 59 31 59 36 c 1
 68 56 71 90 71 110 c 2
 71 110 71 558 71 558 c 2
 71 571 71 598 66 610 c 0
 60 624 33 628 5 628 c 1
 4 628 2 653 6 654 c 1
 56 659 106 675 148 694 c 1
 153 694 159 685 159 678 c 1
 159 678 148 646 148 591 c 2
 148 591 148 394 148 394 c 2
 148 389 148 379 154 384 c 0
 169 395 237 438 275 438 c 0
 395 438 458 324 458 233 c 0
 458 102 353 -7 211 -7 c 0
227 379 m 0
 201 379 162 361 153 352 c 0
 150 349 148 346 148 341 c 2
 148 341 148 98 148 98 c 2
 148 55 197 27 241 27 c 0
 313 27 374 113 374 194 c 0
 374 310 316 379 227 379 c 0
EndSplineSet
Validated: 545
Substitution2: "'smcp' Lowercase to Small Capitals lookup 2-1" b.sc
EndChar

StartChar: c
Encoding: 99 99 66
Width: 423
Flags: W
HStem: -8 66<191.945 321.563> 394 44<193.28 290.075>
VStem: 39 78<132.251 288.818>
LayerCount: 2
Back
Fore
SplineSet
382 386 m 0
 382 350 361 338 344 338 c 1
 322 338 303 364 286 375 c 0
 265 389 255 394 229 394 c 0
 176 394 117 332 117 227 c 0
 117 110 189 58 279 58 c 0
 334 58 372 94 385 109 c 1
 386 109 393 103 393 95 c 0
 393 90 390 82 387 77 c 0
 369 48 319 -8 241 -8 c 0
 120 -8 39 90 39 194 c 0
 39 340 178 438 282 438 c 0
 317 438 348 430 372 414 c 1
 376 410 382 396 382 386 c 0
EndSplineSet
Validated: 1
Substitution2: "'smcp' Lowercase to Small Capitals lookup 2-1" c.sc
EndChar

StartChar: d
Encoding: 100 100 67
Width: 515
Flags: W
HStem: -8 62<192.397 289.897> 20 27<438.72 496.784> 396 42<196.789 327.598> 628 26<283.899 341.828> 674 20G<407 430.5>
VStem: 39 84<130.201 291.813> 351 77<70.6579 374.572 428.007 621.593>
LayerCount: 2
Back
Fore
SplineSet
277 438 m 0xbe
 298 438 336 432 346 428 c 1
 350 428 351 437 351 449 c 2
 351 449 351 558 351 558 c 2
 351 572 351 598 346 610 c 0
 340 624 313 628 285 628 c 1
 284 628 282 653 286 654 c 1
 336 659 386 675 428 694 c 1
 433 694 439 685 439 678 c 1
 439 678 428 646 428 591 c 2
 428 591 428 163 428 163 c 2
 428 124 429 79 435 65 c 0
 443 47 491 48 494 47 c 0
 496 46 497 38 497 35 c 0
 497 33 494 20 489 20 c 0x7e
 437 17 360 -8 359 -8 c 0
 353 -8 351 4 351 11 c 2
 351 11 351 46 351 46 c 2
 351 51 350 54 348 52 c 0
 333 36 263 -8 215 -8 c 0
 124 -8 39 84 39 206 c 0
 39 337 187 438 277 438 c 0xbe
245 396 m 0
 169 396 123 314 123 230 c 0
 123 136 173 54 264 54 c 0xbe
 309 54 351 78 351 94 c 2
 351 94 351 347 351 347 c 2
 351 370 301 396 245 396 c 0
EndSplineSet
Validated: 1
Substitution2: "'smcp' Lowercase to Small Capitals lookup 2-1" d.sc
EndChar

StartChar: e
Encoding: 101 101 68
Width: 430
Flags: W
HStem: -8 64<191.783 321.098> 248 37<116 301.718> 402 36<172.002 268.112>
VStem: 40 70.9162<141.952 248> 302 85<285.425 371.236>
LayerCount: 2
Back
Fore
SplineSet
116 285 m 1
 125 285 269 285 279 285 c 0
 291 285 302 290 302 308 c 0
 302 337 281 402 220 402 c 0
 136 402 114 285 116 285 c 1
111 248 m 1
 110.943986077 245.610072605 110.91621019 243.242456745 110.91621019 240.89715242 c 0
 110.91621019 117.63238414 187.643075084 56 274 56 c 0
 329 56 371 94 384 109 c 1
 385 109 392 103 392 95 c 0
 392 90 389 82 386 77 c 0
 368 48 318 -8 240 -8 c 0
 122 -8 40 82 40 200 c 0
 40 334 149 438 237 438 c 0
 357 438 387 342 387 302 c 0
 387 273 382 256 363 255 c 0
 332 253 123 248 111 248 c 1
EndSplineSet
Validated: 33
Substitution2: "'smcp' Lowercase to Small Capitals lookup 2-1" e.sc
EndChar

StartChar: f
Encoding: 102 102 69
Width: 308
Flags: W
HStem: -3 29<25.4037 90.2898 178.736 247.596> 391 41<40.9629 96 173 294.375> 637 60<215.109 300.419>
VStem: 96 77<32.7426 391 432 545.43>
LayerCount: 2
Back
Fore
SplineSet
269 697 m 0
 299 697 301 695 316 685 c 1
 320 681 326 667 326 657 c 0
 326 621 299 617 286 617 c 0
 276 617 268 622 257 628 c 0
 246 634 241 637 228 637 c 0
 197 637 172 605 173 543 c 2
 173 543 173 432 173 432 c 1
 173 432 291 432 291 432 c 2
 296 432 296 427 296 421 c 0
 296 412 291 400 282 391 c 1
 282 391 173 391 173 391 c 1
 173 391 173 116 173 116 c 2
 173 86 173 58 178 42 c 0
 181 31 233 26 245 26 c 1
 249 21 250 2 245 -3 c 1
 204 -1 173 2 134 2 c 0
 95 2 69 -1 28 -3 c 1
 23 2 24 21 28 26 c 1
 40 26 88 31 91 42 c 0
 96 58 96 86 96 116 c 2
 96 116 96 391 96 391 c 1
 96 391 38 391 38 391 c 2
 35 391 33 397 33 400 c 0
 33 404 58 431 59 432 c 1
 75 432 85 432 96 432 c 1
 96 432 96 438 96 438 c 2
 96 583 208 697 269 697 c 0
EndSplineSet
Validated: 33
Substitution2: "'smcp' Lowercase to Small Capitals lookup 2-1" f.sc
EndChar

StartChar: g
Encoding: 103 103 70
Width: 466
Flags: W
HStem: -227 39<157.618 295.19> -4 71<162.372 348.141> 137 30<177.303 264.226> 374 51<388.868 443.481> 409 30<171.516 260.162>
VStem: 23 79<-141.317 -60.5231> 50 77<74.2375 115.659 218.047 361.11> 308 77<216.006 366.022> 387 69<-102.937 -10>
LayerCount: 2
Back
Fore
SplineSet
215 409 m 27xeb80
 158 409 127 349 127 292 c 27
 127 231 162 167 223 167 c 27
 278 167 308 226 308 281 c 27
 308 343 277 409 215 409 c 27xeb80
255 -4 m 0
 237 -4 169 -5 162 -9 c 0
 139 -22 102 -50 102 -76 c 0xe580
 102 -141 151 -188 236 -188 c 0
 305 -188 387 -136 387 -81 c 0
 387 -52 350 -4 255 -4 c 0
301 67 m 0
 380 67 456 18 456 -38 c 0
 456 -120 335 -226 196 -227 c 0
 115 -228 23 -187 23 -105 c 0xf580
 23 -61 95 -18 129 -1 c 1
 94 10 47 42 47 92 c 1
 64 112 115 149 133 160 c 1
 84 187 50 239 50 288 c 0
 50 367 123 439 219 439 c 0xeb80
 262 439 292 424 310 417 c 0
 329 410 324 412 333 410 c 1
 333 410 440 425 440 425 c 1
 447 423 450 419 450 415 c 0
 450 407 437 380 427 374 c 1xf380
 402 375 361 378 361 378 c 2
 358 378 357 377 357 375 c 1
 362 370 385 330 385 284 c 0
 385 214 312 137 216 137 c 0
 199 137 170 142 160 146 c 1
 142 136 123 118 123 102 c 0
 123 92 143 67 183 67 c 0
 249 67 257 67 301 67 c 0
EndSplineSet
Validated: 33
Substitution2: "'smcp' Lowercase to Small Capitals lookup 2-1" g.sc
EndChar

StartChar: h
Encoding: 104 104 71
Width: 516
Flags: W
HStem: -3 29<18.4037 83.2898 171.71 236.596 288.404 353.29 441.71 506.596> 380 58<240.761 327.184> 628 26<21.8986 79.8281> 674 20G<145 168.5>
VStem: 89 77<32.4189 347.537 363.001 621.593> 359 77<32.4189 346.845>
LayerCount: 2
Back
Fore
SplineSet
307 438 m 0
 415 438 436 371 436 226 c 2
 436 226 436 116 436 116 c 2
 436 86 436 58 441 42 c 0
 444 31 492 26 504 26 c 1
 508 21 509 2 504 -3 c 1
 463 -1 436 2 397 2 c 0
 358 2 332 -1 291 -3 c 1
 286 2 287 21 291 26 c 1
 303 26 351 31 354 42 c 0
 359 58 359 86 359 116 c 2
 359 116 359 216 359 216 c 2
 359 340 339 380 261 380 c 0
 224 380 166 334 166 325 c 2
 166 325 166 116 166 116 c 2
 166 86 166 58 171 42 c 0
 174 31 222 26 234 26 c 1
 238 21 239 2 234 -3 c 1
 193 -1 166 2 127 2 c 0
 88 2 62 -1 21 -3 c 1
 16 2 17 21 21 26 c 1
 33 26 81 31 84 42 c 0
 89 58 89 86 89 116 c 2
 89 116 89 558 89 558 c 2
 89 571 89 598 84 610 c 0
 78 624 51 628 23 628 c 1
 22 628 20 653 24 654 c 1
 74 659 124 675 166 694 c 1
 171 694 177 685 177 678 c 1
 177 678 166 646 166 591 c 2
 166 591 166 373 166 365 c 0
 166 364 167 363 169 363 c 0
 170 363 171 364 172 365 c 0
 192 387 259 438 307 438 c 0
EndSplineSet
Validated: 513
Substitution2: "'smcp' Lowercase to Small Capitals lookup 2-1" h.sc
EndChar

StartChar: k
Encoding: 107 107 74
Width: 518
Flags: W
HStem: -3 29<18.4037 83.2898 171.71 236.596 441.499 512.505> 396 29<290.188 339.56 417.283 480.065> 628 26<21.8986 79.8281> 674 20G<145 168.5>
VStem: 89 77<32.4189 204 235 621.593>
LayerCount: 2
Back
Fore
SplineSet
166 116 m 2
 166 86 166 58 171 42 c 0
 174 31 222 26 234 26 c 1
 238 21 239 2 234 -3 c 1
 193 -1 166 2 127 2 c 0
 88 2 62 -1 21 -3 c 1
 16 2 17 21 21 26 c 1
 33 26 81 31 84 42 c 0
 89 58 89 86 89 116 c 2
 89 558 l 2
 89 572 89 598 84 610 c 0
 78 624 51 628 23 628 c 1
 22 628 20 653 24 654 c 1
 74 659 124 675 166 694 c 1
 171 694 177 685 177 678 c 1
 177 678 166 646 166 591 c 2
 166 235 l 1
 183 241 214 267 248 296 c 0
 300 340 340 369 340 379 c 0
 340 394 301 395 292 396 c 1
 287 403 289 423 294 425 c 1
 323 422 358 420 390 420 c 0
 424 420 456 422 478 425 c 1
 482 419 481 400 478 396 c 1
 464 396 422 388 401 373 c 0
 390 365 298 299 239 249 c 1
 314 168 395 73 419 53 c 0
 445 32 485 25 511 26 c 1
 513 23 515 7 512 2 c 1
 505 -1 474 -4 447 -4 c 0
 388 -4 339 24 324 40 c 2
 324 40 238 133 181 195 c 0
 177 200 166 204 166 204 c 1
 166 116 l 2
EndSplineSet
Validated: 545
Substitution2: "'smcp' Lowercase to Small Capitals lookup 2-1" k.sc
EndChar

StartChar: l
Encoding: 108 108 75
Width: 255
Flags: W
HStem: -3 29<18.4037 83.2898 171.71 236.596> 628 26<21.8986 79.8281> 674 20G<145 168.5>
VStem: 89 77<32.4189 621.593>
LayerCount: 2
Back
Fore
SplineSet
89 558 m 2
 89 572 89 598 84 610 c 0
 78 624 51 628 23 628 c 1
 22 628 20 653 24 654 c 1
 74 659 124 675 166 694 c 1
 171 694 177 685 177 678 c 1
 177 678 166 646 166 591 c 2
 166 591 166 116 166 116 c 2
 166 86 166 58 171 42 c 0
 174 31 222 26 234 26 c 1
 238 21 239 2 234 -3 c 1
 193 -1 166 2 127 2 c 0
 88 2 62 -1 21 -3 c 1
 16 2 17 21 21 26 c 1
 33 26 81 31 84 42 c 0
 89 58 89 86 89 116 c 2
 89 116 89 558 89 558 c 2
EndSplineSet
Validated: 513
Substitution2: "'smcp' Lowercase to Small Capitals lookup 2-1" l.sc
EndChar

StartChar: m
Encoding: 109 109 76
Width: 790
Flags: W
HStem: -3 29<33.4037 98.2898 186.71 251.596 297.404 362.29 450.71 515.596 561.404 626.29 714.71 779.596> 372 26<32.1812 93.4485> 380 58<248.714 337.397 512.548 600.39>
VStem: 104 77<32.4189 351.536> 368 77<32.4189 347.073> 632 77<32.4189 348.119>
CounterMasks: 1 1c
LayerCount: 2
Back
Fore
SplineSet
319 438 m 0xbc
 378 438 417 415 433 355 c 1
 477 395 532 438 580 438 c 0
 688 438 709 371 709 226 c 2
 709 226 709 116 709 116 c 2
 709 86 709 58 714 42 c 0
 717 31 765 26 777 26 c 1
 781 21 782 2 777 -3 c 1
 736 -1 709 2 670 2 c 0
 631 2 605 -1 564 -3 c 1
 559 2 560 21 564 26 c 1
 576 26 624 31 627 42 c 0
 632 58 632 86 632 116 c 2
 632 116 632 223 632 223 c 2
 632 322 619 380 538 380 c 0
 489 380 440 330 440 323 c 0
 440 322 441 312 441 310 c 0
 444 291 445 257 445 239 c 2
 445 239 445 116 445 116 c 2
 445 86 445 58 450 42 c 0
 453 31 501 26 513 26 c 1
 517 21 518 2 513 -3 c 1
 472 -1 445 2 406 2 c 0
 367 2 341 -1 300 -3 c 1
 295 2 296 21 300 26 c 1
 312 26 360 31 363 42 c 0
 368 58 368 86 368 116 c 2
 368 116 368 218 368 218 c 2
 368 340 346 380 274 380 c 0xbc
 229 380 181 338 181 325 c 2
 181 325 181 116 181 116 c 2
 181 86 181 58 186 42 c 0
 189 31 237 26 249 26 c 1
 253 21 254 2 249 -3 c 1
 208 -1 181 2 142 2 c 0
 103 2 77 -1 36 -3 c 1
 31 2 32 21 36 26 c 1
 48 26 96 31 99 42 c 0
 104 58 104 86 104 116 c 2
 104 116 104 298 104 298 c 2
 104 311 104 342 99 354 c 0
 92 371 41 372 34 372 c 1
 32 374 30 393 34 398 c 1
 85 405 137 419 177 440 c 1
 182 440 188 429 188 424 c 1
 187 417 182 380 182 372 c 0xdc
 182 371 182 368 184 368 c 0
 185 368 186 369 187 370 c 0
 212 391 265 438 319 438 c 0xbc
EndSplineSet
Validated: 1
Substitution2: "'smcp' Lowercase to Small Capitals lookup 2-1" m.sc
EndChar

StartChar: n
Encoding: 110 110 77
Width: 532
Flags: W
HStem: -3 29<33.4037 98.2898 186.71 251.596 303.404 368.29 456.71 521.596> 372 26<32.1812 93.4485> 380 58<255.761 342.184>
VStem: 104 77<32.4189 347.537> 374 77<32.4189 346.845>
LayerCount: 2
Back
Fore
SplineSet
322 438 m 0xb8
 430 438 451 371 451 226 c 2
 451 226 451 116 451 116 c 2
 451 86 451 58 456 42 c 0
 459 31 507 26 519 26 c 1
 523 21 524 2 519 -3 c 1
 478 -1 451 2 412 2 c 0
 373 2 347 -1 306 -3 c 1
 301 2 302 21 306 26 c 1
 318 26 366 31 369 42 c 0
 374 58 374 86 374 116 c 2
 374 116 374 216 374 216 c 2
 374 340 354 380 276 380 c 0xb8
 239 380 181 334 181 325 c 2
 181 325 181 116 181 116 c 2
 181 86 181 58 186 42 c 0
 189 31 237 26 249 26 c 1
 253 21 254 2 249 -3 c 1
 208 -1 181 2 142 2 c 0
 103 2 77 -1 36 -3 c 1
 31 2 32 21 36 26 c 1
 48 26 96 31 99 42 c 0
 104 58 104 86 104 116 c 2
 104 116 104 298 104 298 c 2
 104 311 104 342 99 354 c 0
 92 371 41 372 34 372 c 1
 32 374 30 393 34 398 c 1xd8
 85 405 137 419 177 440 c 1
 182 440 188 429 188 424 c 1
 187 417 182 375 182 367 c 0
 182 366 182 363 184 363 c 0
 185 363 186 364 187 365 c 0
 207 387 274 438 322 438 c 0xb8
EndSplineSet
Validated: 1
Substitution2: "'smcp' Lowercase to Small Capitals lookup 2-1" n.sc
EndChar

StartChar: o
Encoding: 111 111 78
Width: 509
Flags: W
HStem: -7 33<213.699 320.24> 406 33<189.214 295.584>
VStem: 41 86<120.834 313.837> 382 86<116.337 309.213>
LayerCount: 2
Back
Fore
SplineSet
243 406 m 0
 158 406 127 319 127 233 c 0
 127 136 176 26 266 26 c 0
 351 26 382 113 382 198 c 0
 382 295 332 406 243 406 c 0
254 439 m 0
 386 439 468 346 468 221 c 0
 468 92 377 -7 256 -7 c 0
 124 -7 41 88 41 213 c 0
 41 342 133 439 254 439 c 0
EndSplineSet
Validated: 1
Substitution2: "'smcp' Lowercase to Small Capitals lookup 2-1" o.sc
EndChar

StartChar: p
Encoding: 112 112 79
Width: 510
Flags: W
HStem: -226 29<15.4037 80.2898 168.71 233.596> -8 35<196.172 312.721> 372 26<14.1812 75.4485> 379 59<220.78 316.97>
VStem: 86 77<-190.581 2.99635 52.6571 362.458> 387 84<139.167 301.166>
LayerCount: 2
Back
Fore
SplineSet
290 438 m 0xdc
 414 438 471 318 471 232 c 0
 471 103 350 -8 237 -8 c 0
 211 -8 183 -2 167 3 c 1
 167 3 163 -2 163 -10 c 2
 163 -10 163 -107 163 -107 c 2
 163 -137 163 -165 168 -181 c 0
 171 -192 219 -197 231 -197 c 1
 235 -202 236 -221 231 -226 c 1
 190 -224 163 -221 124 -221 c 0
 85 -221 59 -224 18 -226 c 1
 13 -221 14 -202 18 -197 c 1
 30 -197 78 -192 81 -181 c 0
 86 -165 86 -137 86 -107 c 2
 86 -107 86 302 86 302 c 2
 86 315 86 342 81 354 c 0
 74 371 23 372 16 372 c 1
 14 374 12 393 16 398 c 1xec
 67 405 119 419 159 440 c 1
 164 440 170 429 170 424 c 1
 169 417 163 391 163 383 c 0
 163 382 163 379 165 379 c 0
 166 379 167 380 168 381 c 0
 193 402 250 438 290 438 c 0xdc
247 379 m 0xdc
 206 379 163 354 163 340 c 2
 163 340 163 100 163 100 c 2
 163 48 221 27 256 27 c 0
 339 27 387 114 387 195 c 0
 387 314 323 379 247 379 c 0xdc
EndSplineSet
Validated: 1
Substitution2: "'smcp' Lowercase to Small Capitals lookup 2-1" p.sc
EndChar

StartChar: q
Encoding: 113 113 80
Width: 497
Flags: W
HStem: -227 29<278.404 343.29 431.71 496.596> -7 60<194.146 287.669> 402 36<206.474 316.856>
VStem: 39 84<129.217 289.501> 349 77<-191.581 50.178 68.9193 376.812>
LayerCount: 2
Back
Fore
SplineSet
256 402 m 0
 162 402 123 296 123 235 c 0
 123 117 186 53 269 53 c 0
 309 53 349 78 349 93 c 2
 349 332 l 2
 349 375 300 402 256 402 c 0
286 438 m 0
 316 438 372 413 405 413 c 0
 411 413 419 414 425 416 c 1
 431 416 438 399 438 394 c 1
 429 374 426 340 426 320 c 2
 426 -108 l 2
 426 -138 426 -166 431 -182 c 0
 434 -193 482 -198 494 -198 c 1
 498 -203 499 -222 494 -227 c 1
 453 -225 426 -222 387 -222 c 0
 348 -222 322 -225 281 -227 c 1
 276 -222 277 -203 281 -198 c 1
 293 -198 341 -193 344 -182 c 0
 349 -166 349 -138 349 -108 c 2
 349 40 l 2
 349 45 347 54 342 50 c 0
 327 37 260 -7 217 -7 c 0
 102 -7 39 110 39 199 c 0
 39 336 179 438 286 438 c 0
EndSplineSet
Validated: 1
Substitution2: "'smcp' Lowercase to Small Capitals lookup 2-1" q.sc
EndChar

StartChar: r
Encoding: 114 114 81
Width: 383
Flags: W
HStem: -3 29<33.4037 98.2898 186.857 274.596> 360 77<252.089 312.624> 372 26<32.1812 93.4485>
VStem: 104 77<33.7634 321.777 329.953 365.708>
LayerCount: 2
Back
Fore
SplineSet
303 437 m 0xd0
 329 437 355 424 364 408 c 1
 366 402 368 392 368 381 c 0
 368 344 345 329 335 329 c 0
 321 329 309 341 298 348 c 0
 289 354 279 360 261 360 c 0xd0
 218 360 181 293 181 270 c 2
 181 270 181 116 181 116 c 2
 181 86 181 58 186 42 c 0
 189 31 260 26 272 26 c 1
 276 21 277 2 272 -3 c 1
 231 -1 187 2 148 2 c 0
 109 2 77 -1 36 -3 c 1
 31 2 32 21 36 26 c 1
 48 26 96 31 99 42 c 0
 104 58 104 86 104 116 c 2
 104 116 104 302 104 302 c 2
 104 315 104 342 99 354 c 0
 92 371 41 372 34 372 c 1
 32 374 30 393 34 398 c 1xb0
 85 405 137 419 177 440 c 1
 182 440 188 429 188 424 c 1
 187 417 181 343 181 332 c 0
 181 328 184 329 185 330 c 0
 205 373 258 437 303 437 c 0xd0
EndSplineSet
Validated: 1
Substitution2: "'smcp' Lowercase to Small Capitals lookup 2-1" r.sc
EndChar

StartChar: s
Encoding: 115 115 82
Width: 369
Flags: W
HStem: -11 32<127.723 223.223> 406 31<147.772 235.89>
VStem: 41 27<85.9752 117.421> 50 77<291.129 381.207> 248 81<55.287 144.678> 282 27<309.164 347.416>
LayerCount: 2
Back
Fore
SplineSet
195 437 m 0xd8
 234 437 253 429 297 424 c 1
 304 393 308 350 309 314 c 0
 309 310 304 309 299 309 c 0
 294 309 287 310 282 314 c 1
 272 351 241 406 198 406 c 0
 150 406 127 379 127 343 c 0xd4
 127 291 169 276 214 249 c 0
 259 222 329 190 329 127 c 0
 329 46 256 -11 175 -11 c 0
 129 -11 102 0 58 8 c 1
 50 29 41 86 41 112 c 1
 45 115 54 118 59 118 c 0
 62 118 65 118 68 116 c 1xe8
 80 74 123 21 176 21 c 0
 217 21 248 47 248 93 c 0
 248 154 184 174 126 208 c 0
 86 231 50 262 50 315 c 0
 50 389 121 437 195 437 c 0xd8
EndSplineSet
Validated: 1
Substitution2: "'smcp' Lowercase to Small Capitals lookup 2-1" s.sc
EndChar

StartChar: t
Encoding: 116 116 83
Width: 311
Flags: W
HStem: -7 54<176.456 252.292> 391 41<27.9629 83 160 292.375>
VStem: 83 77<62.1149 391 432 519.684>
LayerCount: 2
Back
Fore
SplineSet
160 432 m 1
 289 432 l 2
 294 432 294 427 294 421 c 0
 294 412 289 400 280 391 c 1
 160 391 l 1
 160 129 l 2
 160 76 182 47 226 47 c 0
 256 47 284 65 291 70 c 1
 293 69 294 66 294 63 c 0
 294 57 291 49 290 48 c 0
 276 32 236 -7 187 -7 c 0
 136 -7 83 15 83 101 c 2
 83 391 l 1
 25 391 l 2
 22 391 20 397 20 400 c 0
 20 404 45 431 46 432 c 1
 62 432 72 432 83 432 c 1
 83 443 83 487 83 495 c 1
 102 517 142 559 144 562 c 1
 149 567 160 567 160 563 c 2
 160 432 l 1
EndSplineSet
Validated: 1
Substitution2: "'smcp' Lowercase to Small Capitals lookup 2-1" t.sc
EndChar

StartChar: u
Encoding: 117 117 84
Width: 515
Flags: W
HStem: -7 56<195.956 286.265> 20 27<437.72 495.58> 394 26<14.7989 66.4209 283.799 335.421> 420 20G<136 156.5 405 425.5>
VStem: 81 77<92.1211 386.167> 350 77<73.0835 386.167>
LayerCount: 2
Back
Fore
SplineSet
350 320 m 2x9c
 350 333 350 359 342 374 c 0
 332 392 299 394 286 394 c 1
 283 397 282 415 286 420 c 1xac
 337 422 387 429 423 440 c 1
 428 440 434 421 434 416 c 1
 430 408 427 380 427 351 c 2
 427 351 427 305 427 305 c 0
 427 305 427 141 427 141 c 2
 427 130 428 93 434 65 c 0
 439 46 490 48 493 47 c 0
 495 46 496 39 496 36 c 0
 496 34 493 20 488 20 c 0x5c
 436 17 359 -8 358 -8 c 0
 353 -8 350 1 350 8 c 2
 350 8 350 54 350 54 c 2
 350 59 348 59 348 59 c 1
 320 29 257 -7 206 -7 c 0
 100 -7 81 108 81 192 c 2
 81 192 81 320 81 320 c 2
 81 333 81 359 73 374 c 0
 63 392 30 394 17 394 c 1
 14 397 13 415 17 420 c 1xac
 68 422 118 429 154 440 c 1
 159 440 165 425 165 420 c 1
 161 412 158 380 158 351 c 2
 158 351 158 308 158 308 c 0
 158 308 158 204 158 204 c 2
 158 98 188 49 258 49 c 0
 302 49 350 80 350 104 c 2
 350 104 350 320 350 320 c 2x9c
EndSplineSet
Validated: 513
Substitution2: "'smcp' Lowercase to Small Capitals lookup 2-1" u.sc
EndChar

StartChar: v
Encoding: 118 118 85
Width: 473
Flags: W
HStem: -11 21G<227 232> 401 29<0.308105 52.9509 149.473 201.887 294.188 347.061 422.157 471.647>
LayerCount: 2
Back
Fore
SplineSet
102 425 m 0
 140 425 162 428 202 430 c 1
 204 424 203 401 198 401 c 1
 191 401 149 399 149 384 c 0
 149 383 149 382 150 380 c 0
 260 110 l 1
 260 110 311 243 349 337 c 0
 354 349 355 362 355 369 c 0
 355 389 331 401 297 401 c 1
 292 401 292 425 297 430 c 1
 328 428 337 425 378 425 c 0
 416 425 431 428 471 430 c 1
 475 424 472 401 468 401 c 1
 460 401 417 395 405 367 c 0
 346 226 313 148 255 6 c 0
 252 -2 235 -11 229 -11 c 0
 225 -11 221 -9 220 -7 c 0
 155 147 112 268 57 381 c 0
 47 402 14 401 2 401 c 1
 0 406 -2 420 2 430 c 1
 43 428 61 425 102 425 c 0
EndSplineSet
Validated: 33
Substitution2: "'smcp' Lowercase to Small Capitals lookup 2-1" v.sc
EndChar

StartChar: w
Encoding: 119 119 86
Width: 721
Flags: W
HStem: -11 21G<225 232.5 480 486> 401 29<0.244385 50.9044 151.786 201.716 267.074 310.057 419.353 466.307 538.229 593.354 668.478 720.257>
VStem: 338 76<305.286 379.109>
LayerCount: 2
Back
Fore
SplineSet
101 425 m 0
 139 425 161 428 201 430 c 1
 203 424 203 403 199 401 c 1
 191 401 149 399 149 378 c 0
 149 377 151 372 154 363 c 0
 166 331 201 249 257 117 c 1
 308 246 338 318 338 327 c 0
 338 334 327 363 314 382 c 0
 303 398 282 401 270 401 c 1
 265 404 265 425 270 430 c 1
 311 428 320 425 361 425 c 0
 399 425 425 428 465 430 c 1
 467 424 468 405 464 401 c 1
 433 401 414 393 414 369 c 0
 414 366 415 363 417 358 c 0
 425 331 453 262 508 120 c 1
 547 217 581 302 596 344 c 0
 600 355 601 364 601 368 c 0
 601 397 564 399 541 401 c 1
 537 404 536 425 541 430 c 1
 582 428 587 425 628 425 c 0
 666 425 680 428 720 430 c 1
 721 427 723 406 717 401 c 1
 709 401 661 395 649 365 c 0
 594 226 562 145 504 6 c 0
 501 -2 489 -11 483 -11 c 0
 477 -11 472 -9 471 -7 c 2
 360 282 l 1
 252 8 l 2
 251 5 238 -11 227 -11 c 0
 223 -11 219 -9 218 -7 c 0
 156 148 122 230 56 379 c 0
 47 400 14 401 2 401 c 1
 -1 407 -1 424 2 430 c 1
 43 428 60 425 101 425 c 0
EndSplineSet
Validated: 1
Substitution2: "'smcp' Lowercase to Small Capitals lookup 2-1" w.sc
EndChar

StartChar: x
Encoding: 120 120 87
Width: 476
Flags: W
HStem: -3 29<10.8831 76.2715 148.187 202.125 260.633 304.05 413.024 468.774> 379 46<25.5425 90> 401 29<22.2969 82.3207 182.273 224.653 266.46 322.759 380.245 449>
LayerCount: 2
Back
Fore
SplineSet
123 425 m 0xc0
 164 425 202 428 224 430 c 1
 225 426 227 407 222 401 c 1
 206 401 182 399 182 384 c 0
 182 381 184 377 187 372 c 2
 187 372 253 267 253 267 c 1
 280 309 324 362 324 382 c 0
 324 402 274 400 268 401 c 1
 266 402 265 426 268 430 c 1xa0
 309 428 328 425 369 425 c 0xc0
 405 425 435 428 449 430 c 1
 450 425 450 401 448 401 c 1xa0
 429 400 384 396 371 379 c 0
 335 329 280 251 271 240 c 1
 281 225 391 62 391 62 c 2
 411 33 439 26 468 26 c 1
 470 26 470 1 467 -3 c 1
 430 -1 410 2 373 2 c 0
 330 2 305 -1 262 -3 c 1
 259 4 260 26 263 26 c 1
 277 27 305 32 305 44 c 0
 305 46 304 48 303 50 c 2
 303 50 251 135 224 175 c 1
 205 146 180 111 152 67 c 0
 147 59 146 53 146 48 c 0
 146 29 178 28 201 26 c 1
 203 26 204 2 200 -3 c 1
 161 -1 144 2 105 2 c 0
 67 2 49 -1 11 -3 c 1
 9 5 10 21 13 26 c 1
 45 31 85 34 108 65 c 2
 108 65 201 199 206 206 c 1
 198 218 90 379 90 379 c 2xc0
 79 396 43 401 23 401 c 1
 21 401 21 424 24 430 c 1xa0
 57 427 84 425 123 425 c 0xc0
EndSplineSet
Validated: 1
Substitution2: "'smcp' Lowercase to Small Capitals lookup 2-1" x.sc
EndChar

StartChar: y
Encoding: 121 121 88
Width: 469
Flags: W
HStem: -228 72<43.7208 134.001> 401 29<0.747559 51.9842 148.485 201.887 289.188 342.061 417.369 467.352>
LayerCount: 2
Back
Fore
SplineSet
102 425 m 0
 140 425 185 428 202 430 c 1
 204 424 203 401 198 401 c 1
 191 401 148 399 148 384 c 0
 148 383 149 382 150 380 c 0
 256 110 l 1
 256 110 306 243 344 337 c 0
 349 349 350 362 350 369 c 0
 350 389 326 401 292 401 c 1
 287 401 287 425 292 430 c 1
 307 428 341 425 382 425 c 0
 420 425 446 428 466 430 c 1
 470 424 468 401 464 401 c 1
 456 401 412 395 400 367 c 0
 341 226 308 148 250 6 c 0
 225 -55 207 -119 171 -172 c 0
 148 -206 117 -228 84 -228 c 0
 65 -228 40 -221 40 -185 c 0
 40 -173 47 -162 52 -156 c 1
 99 -156 126 -153 166 -99 c 0
 182 -78 211 -9 214 2 c 1
 158 145 115 253 56 381 c 0
 46 402 14 401 2 401 c 1
 0 401 0 428 2 430 c 1
 21 428 61 425 102 425 c 0
EndSplineSet
Validated: 33
Substitution2: "'smcp' Lowercase to Small Capitals lookup 2-1" y.sc
EndChar

StartChar: z
Encoding: 122 122 89
Width: 447
Flags: W
HStem: 0 35<136 334.447> 119 12<393 419> 397 34<106.374 290.509> 419 20G<57.5 59 377.5 400.5>
LayerCount: 2
Back
Fore
SplineSet
148 431 m 2xe0
 148 431 276 431 276 431 c 2xe0
 330 431 357 434 398 439 c 1xd0
 403 431 401 420 401 415 c 1
 401 415 136 38 136 35 c 1
 136 35 276 35 276 35 c 2
 337 35 374 82 386 125 c 0
 387 130 389 131 393 131 c 0
 401 131 414 125 419 119 c 1
 419 119 389 46 374 0 c 1
 316 0 180 0 49 0 c 1
 42 2 34 12 34 20 c 0
 34 21 34 26 35 27 c 2
 35 27 292 396 292 396 c 1
 292 396 152 397 152 397 c 2xe0
 95 397 84 345 76 327 c 0
 74 323 64 318 54 318 c 0
 48 318 43 319 43 321 c 1
 47 336 56 386 59 439 c 1xd0
 59 439 112 431 148 431 c 2xe0
EndSplineSet
Validated: 1
Substitution2: "'smcp' Lowercase to Small Capitals lookup 2-1" z.sc
EndChar

StartChar: braceleft
Encoding: 123 123 90
Width: 222
Flags: W
VStem: 58 44<-56.6142 70.4159 505.584 632.614> 104 46<119.735 242.755 333.245 456.265>
LayerCount: 2
Back
Fore
SplineSet
104 383 m 0
 104 409 92 433 81 458 c 0
 69 484 58 510 58 541 c 0
 58 638 122 703 165 720 c 1
 173 720 181 710 181 701 c 1
 154 688 102 640 102 589 c 0
 102 551 115 526 127 498 c 0
 139 473 150 445 150 405 c 0
 150 340 103 298 77 288 c 1
 103 278 150 236 150 171 c 0
 150 131 139 103 127 78 c 0
 115 50 102 25 102 -13 c 0
 102 -64 154 -112 181 -125 c 1
 181 -134 173 -144 165 -144 c 1
 122 -127 58 -62 58 35 c 0
 58 66 69 92 81 118 c 0
 92 143 104 167 104 193 c 0
 104 246 67 267 28 277 c 1
 26 279 26 284 26 288 c 0
 26 292 26 297 28 299 c 1
 67 309 104 330 104 383 c 0
EndSplineSet
Validated: 1
Substitution2: "'c2sc' Capitals to Small Capitals in Latin lookup 0 subtable" braceleft.sc
Substitution2: "'smcp' Lowercase to Small Capitals lookup 2-1" braceleft.sc
EndChar

StartChar: bar
Encoding: 124 124 91
Width: 205
Flags: W
VStem: 77 51<-117.404 757>
LayerCount: 2
Back
Fore
SplineSet
128 -106 m 2
 128 -114 84 -123 82 -123 c 0
 75 -123 77 -119 77 -115 c 2
 77 757 l 1
 77 757 76 763 82 765 c 0
 99 770 116 772 119 772 c 0
 128 772 127 766 127 766 c 1
 128 -106 l 2
EndSplineSet
Validated: 1
Substitution2: "'c2sc' Capitals to Small Capitals in Latin lookup 0 subtable" bar.sc
Substitution2: "'smcp' Lowercase to Small Capitals lookup 2-1" bar.sc
EndChar

StartChar: braceright
Encoding: 125 125 92
Width: 223
Flags: W
VStem: 72 46<119.735 242.755 333.245 456.265> 120 44<-56.6142 70.4159 505.584 632.614>
LayerCount: 2
Back
Fore
SplineSet
57 720 m 1
 100 703 164 638 164 541 c 0
 164 510 153 484 141 458 c 0
 130 433 118 409 118 383 c 0
 118 330 155 309 194 299 c 1
 195 297 196 292 196 288 c 0
 196 283 196 280 194 277 c 1
 155 267 118 246 118 193 c 0
 118 167 130 143 141 118 c 0
 153 92 164 66 164 35 c 0
 164 -62 100 -127 57 -144 c 1
 49 -144 41 -134 41 -125 c 1
 68 -112 120 -64 120 -13 c 0
 120 25 107 50 95 78 c 0
 83 103 72 131 72 171 c 0
 72 236 119 278 145 288 c 1
 119 298 72 340 72 405 c 0
 72 445 83 473 95 498 c 0
 107 526 120 551 120 589 c 0
 120 640 68 688 41 701 c 1
 41 710 49 720 57 720 c 1
EndSplineSet
Validated: 1
Substitution2: "'c2sc' Capitals to Small Capitals in Latin lookup 0 subtable" braceright.sc
Substitution2: "'smcp' Lowercase to Small Capitals lookup 2-1" braceright.sc
EndChar

StartChar: asciitilde
Encoding: 126 126 93
Width: 570
Flags: W
HStem: 250 51<314.795 473.297> 303 51<106.163 260.768>
LayerCount: 2
Back
Fore
SplineSet
271 277 m 0
 236 290 201 303 156 303 c 0
 117 303 89 281 65 259 c 1
 59 262 56 268 56 276 c 0
 56 313 133 354 186 354 c 0
 233 354 269 340 305 327 c 0
 340 314 375 301 422 301 c 0
 461 301 483 322 512 345 c 1
 518 342 521 336 521 328 c 0
 521 295 455 250 393 250 c 0
 344 250 308 263 271 277 c 0
EndSplineSet
Validated: 1
Substitution2: "'c2sc' Capitals to Small Capitals in Latin lookup 0 subtable" asciitilde.sc
Substitution2: "'smcp' Lowercase to Small Capitals lookup 2-1" asciitilde.sc
EndChar

StartChar: exclamdown
Encoding: 161 161 95
Width: 215
Flags: W
HStem: 320 110<64.4629 150.77>
VStem: 53 110<331.463 417.77> 59 94<-213.2 91.9102>
LayerCount: 2
Back
Fore
SplineSet
53 374 m 0xc0
 53 404 77 430 107 430 c 0
 137 430 163 404 163 374 c 0
 163 344 137 320 107 320 c 0
 77 320 53 344 53 374 c 0xc0
103 -223 m 0
 72 -223 59 -191 59 -165 c 0
 59 -137 72 -3 93 247 c 1
 97 255 100 259 109 260 c 1
 114 258 120 255 123 249 c 1
 137 88 153 -114 153 -165 c 0xa0
 153 -193 135 -223 103 -223 c 0
EndSplineSet
Validated: 1
Substitution2: "'c2sc' Capitals to Small Capitals in Latin lookup 0 subtable" exclamdown.sc
Substitution2: "'smcp' Lowercase to Small Capitals lookup 2-1" exclamdown.sc
EndChar

StartChar: cent
Encoding: 162 162 96
Width: 446
Flags: W
HStem: -8 66<197.945 327.563> 394 44<199.28 296.075>
VStem: 45 78<132.251 288.818> 189 28<-43.416 -0.869301> 272 28<427.956 470.975>
LayerCount: 2
Back
Fore
SplineSet
272 472 m 17
 280 472 300 473 300 466 c 1
 217 -45 l 1
 208 -45 189 -45 189 -38 c 9
 272 472 l 17
EndSplineSet
Refer: 66 99 N 1 0 0 1 6 0 2
Validated: 5
EndChar

StartChar: sterling
Encoding: 163 163 97
Width: 477
UnlinkRmOvrlpSave: 1
Flags: W
HStem: -8 66<237.736 360.199> 49 56<99.375 178.889> 306 36<67.469 378.738> 590 46<236.671 331.5>
VStem: 125 77<344.61 509.144> 148 75<188.868 347.673> 427 13<127.679 134.817>
LayerCount: 2
Back
Fore
SplineSet
314 636 m 0x7a
 349 636 362 628 386 612 c 1
 390 608 396 594 396 584 c 0
 396 548 375 536 358 536 c 1
 336 536 320 559 305 573 c 0
 290 587 283 590 270 590 c 0
 218 590 202 528 202 459 c 0x7a
 202 385 223 328 223 272 c 0
 223 197 159 120 134 97 c 1
 148 104 158 105 169 105 c 0x76
 224 105 238 58 327 58 c 0
 382 58 418 121 427 139 c 1
 428 139 440 131 440 123 c 0
 440 119 439 114 437 108 c 0
 426 76 369 -8 291 -8 c 0xb6
 206 -8 168 49 116 49 c 0
 85 49 77 10 60 -6 c 1
 52 -6 44 7 44 16 c 0
 44 45 79 79 94 94 c 0
 122 122 148 182 148 231 c 0x76
 148 252 126 367 125 399 c 0
 121 535 220 636 314 636 c 0x7a
78 342 m 1
 94 342 370 342 381 342 c 1
 395 331 378 310 372 306 c 1
 372 306 55 306 55 306 c 17
 49 312 69 342 78 342 c 1
EndSplineSet
Validated: 37
EndChar

StartChar: currency
Encoding: 164 164 98
Width: 574
Flags: W
HStem: 120 32<245.525 340.572> 463 33<230.384 325.636>
VStem: 102 73<224.803 397.542> 395 72<218.015 391.134>
LayerCount: 2
Back
Fore
SplineSet
294 152 m 0
 355 152 395 219 395 294 c 0
 395 386 340 463 277 463 c 0
 216 463 175 394 175 319 c 0
 175 227 231 152 294 152 c 0
398 455 m 1
 457 510 l 2
 465 518 491 490 498 466 c 1
 438 410 l 1
 456 380 467 344 467 307 c 0
 467 267 455 230 434 199 c 1
 488 141 l 2
 496 133 468 107 444 100 c 1
 392 155 l 1
 362 133 326 120 286 120 c 0
 243 120 203 135 172 160 c 1
 119 110 l 2
 111 102 85 130 78 154 c 1
 132 205 l 1
 113 235 102 270 102 307 c 0
 102 351 116 391 140 423 c 1
 88 479 l 2
 80 487 108 513 132 520 c 1
 184 465 l 1
 213 485 248 496 286 496 c 0
 329 496 367 481 398 455 c 1
EndSplineSet
Validated: 33
EndChar

StartChar: yen
Encoding: 165 165 99
Width: 672
UnlinkRmOvrlpSave: 1
Flags: W
HStem: -3 29<224.404 295.252 393.748 464.596> 138 37<213.68 481.931> 218 37<213.68 481.931> 611 29<27.1875 82.7014 230.181 284.161 429.728 496.386 581.222 643.413>
VStem: 301 87<32.7426 116 116.052 298.855>
LayerCount: 2
Back
Fore
SplineSet
223 175 m 1
 239 175 474 175 485 175 c 1
 499 164 481 142 475 138 c 1
 203 138 l 17
 197 144 214 175 223 175 c 1
223 255 m 1
 239 255 474 255 485 255 c 1
 499 244 481 222 475 218 c 1
 203 218 l 17
 197 224 214 255 223 255 c 1
301 116 m 2
 301 245 l 0
 301 252 299 263 294 273 c 16
 236 378 211 420 152 526 c 0
 131 563 114 579 86 595 c 0
 69 605 42 611 30 611 c 0
 25 611 25 635 30 640 c 1
 79 638 106 635 155 635 c 0
 204 635 243 638 283 640 c 1
 285 634 286 611 281 611 c 0
 267 611 221 605 221 579 c 0
 221 571 225 562 233 549 c 2
 372 311 l 1
 421 399 490 536 504 570 c 0
 505 573 507 579 507 585 c 0
 507 591 488 610 432 610 c 1
 429 610 428 636 430 639 c 1
 467 637 496 634 533 634 c 0
 585 634 603 637 643 639 c 1
 645 633 644 610 641 610 c 1
 633 610 575 610 552 570 c 0
 514 503 437 359 394 279 c 8
 388 268 389 257 389 248 c 0
 389 188 388 116 388 116 c 2
 388 86 388 58 393 42 c 0
 396 31 450 26 462 26 c 1
 466 21 467 2 462 -3 c 1
 421 -1 384 2 345 2 c 0
 306 2 268 -1 227 -3 c 1
 222 2 223 21 227 26 c 1
 239 26 293 31 296 42 c 0
 301 58 301 86 301 116 c 2
EndSplineSet
Validated: 37
EndChar

StartChar: brokenbar
Encoding: 166 166 100
Width: 214
Flags: W
VStem: 82 51<-118.458 249 389.542 757>
LayerCount: 2
Back
Fore
SplineSet
133 400 m 2
 133 392 89 385 87 385 c 0
 80 385 82 389 82 393 c 2
 82 757 l 1
 82 757 81 763 87 765 c 0
 104 770 122 770 125 770 c 0
 134 770 133 764 133 764 c 1
 133 400 l 2
82 -115 m 2
 82 249 l 1
 82 249 81 255 87 257 c 0
 104 262 122 262 125 262 c 0
 134 262 133 256 133 256 c 1
 133 -108 l 2
 133 -116 89 -123 87 -123 c 0
 80 -123 82 -119 82 -115 c 2
EndSplineSet
Validated: 1
EndChar

StartChar: section
Encoding: 167 167 101
Width: 441
UnlinkRmOvrlpSave: 1
Flags: W
HStem: -78 50<112.723 238.609> 603 50<203.391 329.277>
VStem: 38 54<353.266 469.951> 132 34<504.629 542> 276 46<24.5271 81.55> 276 34<33 70.3711> 350 54<105.049 221.734>
LayerCount: 2
Back
Fore
SplineSet
304 653 m 0xf6
 192 653 120 587 120 507 c 0
 120 435 190 379 238 335 c 0
 292 285 350 218 350 135 c 0
 350 91 332 71 310 33 c 0
 310 33 286 14 276 -3 c 24
 270 -14 272 -23 270 -35 c 17
 308 -9 404 105 404 179 c 0
 404 265 340 335 288 383 c 0
 241 426 166 503 166 549 c 0
 166 587 216 603 247 603 c 0
 262 603 271 599 279 595 c 0
 289 590 298 583 315 583 c 0
 331 583 351 605 351 619 c 0
 351 625 350 635 345 645 c 1
 331 651 318 653 304 653 c 0xf6
138 -78 m 0
 124 -78 111 -76 97 -70 c 1
 92 -60 91 -50 91 -44 c 0
 91 -30 111 -8 127 -8 c 0
 144 -8 153 -15 163 -20 c 0
 171 -24 180 -28 195 -28 c 0
 226 -28 276 -12 276 26 c 0
 276 72 201 149 154 192 c 0
 102 240 38 310 38 396 c 0
 38 470 134 584 172 610 c 9
 170 598 172 589 166 578 c 24
 156 561 132 542 132 542 c 0
 110 504 92 484 92 440 c 0
 92 357 150 290 204 240 c 0
 252 196 322 140 322 68 c 0xfa
 322 -12 250 -78 138 -78 c 0
EndSplineSet
Validated: 5
EndChar

StartChar: copyright
Encoding: 169 169 103
Width: 659
Flags: W
HStem: 69 31<247.455 411.652> 195 32<296.319 416.675> 449 34<289.437 404.899> 584 31<247.455 411.652>
VStem: 56 33<256.704 427.296> 187 57<271.691 409.392> 433 23<394.543 417.367> 572 31<259.894 424.106>
LayerCount: 2
Back
Fore
SplineSet
456 276 m 1
 456 273 443 217 436 214 c 0
 404 201 372 195 330 195 c 0
 249 195 187 257 187 336 c 0
 187 416 245 483 328 483 c 0
 358 483 406 477 440 464 c 1
 440 464 456 407 456 403 c 0
 456 398 447 394 440 394 c 0
 437 394 435 395 433 396 c 1
 430 409 411 449 340 449 c 0
 286 449 244 400 244 345 c 0
 244 264 303 227 349 227 c 0
 379 227 408 234 421 246 c 0
 433 257 434 279 436 279 c 0
 439 279 455 278 456 276 c 1
89 342 m 0
 89 209 197 100 330 100 c 0
 463 100 572 209 572 342 c 0
 572 475 463 584 330 584 c 0
 197 584 89 475 89 342 c 0
56 342 m 0
 56 493 178 615 329 615 c 0
 480 615 603 493 603 342 c 0
 603 191 480 69 329 69 c 0
 178 69 56 191 56 342 c 0
EndSplineSet
Validated: 1
EndChar

StartChar: ordfeminine
Encoding: 170 170 104
Width: 345
Flags: W
HStem: 249 37<115.046 173.137 245 294.603> 526 30<126.074 190.272>
VStem: 47 57<293.972 374.217> 57 56<455.248 499.854> 211 53<299.663 405 422.392 513.145>
LayerCount: 2
Back
Fore
SplineSet
151 286 m 0xe8
 175 286 211 313 211 320 c 2
 211 320 211 405 211 405 c 17
 192 399 159 390 147 385 c 0
 122 375 104 361 104 335 c 0
 104 309 125 286 151 286 c 0xe8
188 556 m 0
 227 556 264 515 264 462 c 2
 264 462 264 319 264 319 c 2
 264 300 269 286 285 286 c 0
 297 286 306 294 308 295 c 1
 310 295 311 292 311 290 c 0
 311 286 309 280 307 277 c 1
 299 269 270 250 255 250 c 0
 235 250 217 274 213 295 c 1
 205 287 152 249 128 249 c 0
 82 249 47 284 47 329 c 0xe8
 47 357 67 378 82 384 c 0
 121 398 183 419 203 428 c 0
 210 431 211 433 211 445 c 2
 211 445 211 464 211 464 c 2
 211 495 190 526 152 526 c 0
 128 526 118 514 113 487 c 0
 109 463 98 454 81 454 c 0
 66 454 57 469 57 483 c 0xd8
 57 486 59 497 62 500 c 1
 83 520 137 556 188 556 c 0
EndSplineSet
Validated: 1
EndChar

StartChar: guillemotleft
Encoding: 171 171 105
Width: 482
Flags: W
LayerCount: 2
Back
Fore
SplineSet
207 246 m 0
 207 256 208 255 212 264 c 1
 343 343 420 422 421 423 c 1
 437 418 441 414 443 411 c 1
 437 390 341 288 295 247 c 1
 341 206 437 104 443 83 c 1
 441 80 437 76 421 71 c 1
 420 72 343 151 212 230 c 1
 210 233 207 240 207 246 c 0
27 246 m 0
 27 256 28 255 32 264 c 1
 163 343 240 422 241 423 c 1
 257 418 261 414 263 411 c 1
 257 390 161 288 115 247 c 1
 161 206 257 104 263 83 c 1
 261 80 257 76 241 71 c 1
 240 72 163 151 32 230 c 1
 30 233 27 240 27 246 c 0
EndSplineSet
Validated: 1
EndChar

StartChar: logicalnot
Encoding: 172 172 106
Width: 587
Flags: W
HStem: 364 56<51 456>
VStem: 456 60<159.121 364>
LayerCount: 2
Back
Fore
SplineSet
516 420 m 17
 516 169 l 17
 515 168 489 154 469 154 c 0
 469 154 459 155 456 161 c 1
 456 183 456 285 456 364 c 9
 51 364 l 1
 51 364 45 364 45 374 c 1
 45 374 50 420 60 420 c 2
 516 420 l 17
EndSplineSet
Validated: 1
EndChar

StartChar: registered
Encoding: 174 174 107
Width: 659
Flags: W
HStem: 133 32<247.455 411.652> 273 14<204.5 234.937 286.063 316.5 448.858 477> 403 18<284 313.466> 536 17<204.83 234.937 286.102 341.279> 648 32<247.455 411.652>
VStem: 56 33<321.65 492.235> 237 47<294.331 403 421 531.759> 365 48<431.535 526.839> 572 31<324.848 489.045>
LayerCount: 2
Back
Fore
SplineSet
323 553 m 4
 361 553 413 527 413 479 c 4
 413 449 387 421 358 410 c 5
 380 373 402 344 430 310 c 4
 443 294 455 289 478 287 c 5
 480 285 477 274 477 273 c 5
 449 273 417 275 409 278 c 4
 403 280 392 283 382 296 c 4
 376 304 339 357 312 398 c 4
 309 402 305 403 299 403 c 4
 299 403 288 403 284 403 c 5
 284 325 l 5
 284 312 284 301 286 294 c 4
 287 289 310 287 315 287 c 5
 317 285 317 275 315 273 c 5
 298 274 277 275 261 275 c 4
 245 275 223 274 206 273 c 5
 204 275 204 285 206 287 c 5
 211 287 234 289 235 294 c 4
 237 301 237 312 237 325 c 6
 237 502 l 6
 237 514 237 526 235 533 c 4
 234 538 211 540 206 540 c 5
 204 542 204 552 206 554 c 5
 223 553 247 552 263 552 c 4
 279 552 298 553 323 553 c 4
365 469 m 4
 365 507 354 536 307 536 c 4
 302 536 288 536 286 532 c 4
 284 527 284 513 284 500 c 6
 284 421 l 5
 284 421 295 421 302 421 c 20
 338 421 365 436 365 469 c 4
89 407 m 4
 89 274 197 165 330 165 c 4
 463 165 572 274 572 407 c 4
 572 540 463 648 330 648 c 4
 197 648 89 540 89 407 c 4
56 407 m 4
 56 558 178 680 329 680 c 4
 480 680 603 558 603 407 c 4
 603 256 480 133 329 133 c 4
 178 133 56 256 56 407 c 4
EndSplineSet
Validated: 1
EndChar

StartChar: degree
Encoding: 176 176 109
Width: 274
Flags: W
HStem: 437 37<93.8121 179.842> 597 37<93.8121 179.842>
VStem: 38 37<492.812 578.842> 198 37<492.812 578.842>
LayerCount: 2
Back
Fore
SplineSet
75 536 m 0
 75 502 103 474 137 474 c 0
 171 474 198 502 198 536 c 0
 198 570 171 597 137 597 c 0
 103 597 75 570 75 536 c 0
38 536 m 0
 38 590 83 634 137 634 c 0
 191 634 235 590 235 536 c 0
 235 482 191 437 137 437 c 0
 83 437 38 482 38 536 c 0
EndSplineSet
Validated: 1
EndChar

StartChar: plusminus
Encoding: 177 177 110
Width: 548
Flags: W
HStem: 6 56<40 510.076> 305 56<40 245 301 510.076>
VStem: 245 56<94.125 305 361 566>
LayerCount: 2
Back
Fore
SplineSet
49 62 m 1
 129 62 458 62 505 62 c 0
 509 62 514 58 514 50 c 0
 514 34 506 14 498 6 c 1
 40 6 l 1
 40 6 34 6 34 16 c 0
 34 20 39 54 49 62 c 1
49 361 m 1
 245 361 l 9
 245 361 245 542 245 561 c 1
 261 567 281 572 288 572 c 0
 298 572 301 566 301 566 c 1
 301 361 l 25
 381 361 425 361 505 361 c 16
 509 361 514 357 514 349 c 0
 514 333 506 313 498 305 c 1
 301 305 l 25
 301 305 301 180 301 103 c 1
 289 94 268 92 258 92 c 0
 251 92 245 97 245 101 c 2
 245 305 l 25
 40 305 l 1
 40 305 34 305 34 315 c 0
 34 319 39 353 49 361 c 1
EndSplineSet
Validated: 1
EndChar

StartChar: uni00B2
Encoding: 178 178 111
Width: 358
Flags: W
HStem: 254 55<121 283> 602 45<108.49 210.382>
VStem: 227 65<472.168 585.997>
LayerCount: 2
Back
Fore
SplineSet
320 360 m 1
 309 331 297 287 283 254 c 1
 51 254 l 1
 45 254 37 262 39 266 c 1
 79 310 139 363 180 418 c 0
 208 455 227 494 227 530 c 0
 227 572 203 602 161 602 c 0
 116 602 92 575 74 553 c 1
 70 549 56 565 57 570 c 1
 80 610 127 647 173 647 c 0
 243 647 292 603 292 540 c 0
 292 507 276 475 246 439 c 0
 219 407 169 358 121 309 c 1
 241 309 l 2
 282 309 295 353 301 363 c 0
 302 365 303 365 306 366 c 0
 309 366 317 364 320 360 c 1
EndSplineSet
Validated: 1
EndChar

StartChar: uni00B3
Encoding: 179 179 112
Width: 318
Flags: W
HStem: 249 28<107.743 187.501> 607 39<102.602 180.209>
VStem: 193 56<513.694 596.981> 217 64<312.363 429.422>
LayerCount: 2
Back
Fore
SplineSet
162 646 m 0xe0
 204 646 249 620 249 569 c 0xe0
 249 525 213 496 191 486 c 1
 217 486 281 452 281 386 c 0
 281 298 205 249 118 249 c 0
 96 249 61 255 51 264 c 1
 51 264 39 275 39 288 c 0
 39 308 54 321 70 321 c 0
 87 321 94 304 106 292 c 0
 116 282 130 277 145 277 c 0
 187 277 217 307 217 368 c 0xd0
 217 417 182 454 145 454 c 0
 127 454 110 447 105 446 c 1
 103 448 101 453 100 457 c 0
 99 461 99 465 100 467 c 1
 149 477 193 507 193 556 c 0
 193 582 168 607 142 607 c 0
 105 607 78 576 72 570 c 1
 67 572 62 585 63 586 c 1
 77 607 109 646 162 646 c 0xe0
EndSplineSet
Validated: 1
EndChar

StartChar: uni00B5
Encoding: 181 181 114
Width: 541
Flags: W
HStem: -227 21G<126 137> -9 73<167.372 250.249 410.184 469.783> 417 20G<113 124 355 366>
VStem: 95 77<250.141 422.656> 95 43<108.623 223> 337 77<250.141 422.656>
LayerCount: 2
Back
Fore
SplineSet
144 223 m 0xf4
 144 144 159 64 195 64 c 0
 262 64 312 155 337 227 c 1
 337 251 337 275 337 298 c 0
 337 311 338 379 337 417 c 1
 342 425 349 437 361 437 c 0
 371 437 414 413 414 400 c 0
 414 382 405 335 391 246 c 0
 389 236 381 195 381 195 c 1
 381 124 405 66 451 66 c 0
 477 66 495 87 502 96 c 1
 505 96 508 92 511 87 c 0
 513 83 514 79 514 76 c 0
 501 32 461 -4 421 -4 c 0
 373 -3 358 115 356 142 c 1
 326 72 271 -9 201 -9 c 0
 159 -9 143 71 138 101 c 1xec
 140 76 133 -89 155 -207 c 1
 150 -215 143 -227 131 -227 c 0
 121 -227 78 -203 78 -190 c 0
 78 -172 87 100 99 204 c 1
 99 228 95 275 95 298 c 0
 95 311 96 379 95 417 c 1
 100 425 107 437 119 437 c 0
 129 437 172 413 172 400 c 0
 172 382 168 335 149 246 c 0
 148 240 144 223 144 223 c 0xf4
EndSplineSet
Validated: 33
EndChar

StartChar: paragraph
Encoding: 182 182 115
Width: 484
Flags: W
HStem: -4 27<156.918 214.942 372.084 432.289> 2 34<268.061 318.941> 288 40<265 321> 299 40<362 391.484> 611 37<265.286 321.805>
VStem: 34 231<391.968 555.804> 226 39<42.7588 287> 322 40<42.7588 292 339 610.302>
LayerCount: 2
Back
Fore
SplineSet
322 333 m 1x2b
 322 369 322 593 322 606 c 1
 318 610 303 611 293 611 c 0
 283 611 271 611 265 605 c 9
 265 605 265 430 265 328 c 1
 271 328 318 330 322 333 c 1x2b
321 292 m 17
 307 291 281 289 265 288 c 9
 265 221 265 183 265 116 c 20
 265 86 265 58 268 42 c 4
 269 35 289 36 293 36 c 4x6b
 300 36 318 36 319 42 c 4
 322 58 322 86 322 116 c 6
 322 116 321 292 321 292 c 17
361 299 m 1x9d
 361 228 361 187 361 116 c 16
 361 86 361 58 366 42 c 0
 369 31 419 23 431 23 c 1
 433 23 433 -2 431 -4 c 1x9d
 368 -2 360 2 297 2 c 0x4d
 251 2 198 -2 158 -4 c 1
 156 2 155 19 160 23 c 1
 168 23 218 31 221 42 c 0
 226 58 226 86 226 116 c 2
 226 116 226 287 226 287 c 17x8b
 98 287 34 399 34 469 c 0
 34 578 123 652 205 652 c 0
 264 652 243 648 302 648 c 0
 369 648 423 653 423 653 c 1
 428 648 427 627 422 624 c 1
 407 624 370 616 365 604 c 0
 363 597 362 591 362 540 c 0
 362 479 362 358 362 339 c 1
 367 338 411 352 411 352 c 1
 416 352 421 350 421 346 c 0
 420 336 399 312 392 309 c 0
 381 304 369 300 361 299 c 1x9d
EndSplineSet
Validated: 33
EndChar

StartChar: periodcentered
Encoding: 183 183 116
Width: 224
Flags: W
HStem: 205 117<67.2549 156.745>
VStem: 54 116<217.764 309.619>
LayerCount: 2
Back
Fore
SplineSet
54 264 m 0
 54 296 80 322 112 322 c 0
 144 322 170 296 170 264 c 0
 170 232 144 205 112 205 c 0
 80 205 54 232 54 264 c 0
EndSplineSet
Validated: 1
EndChar

StartChar: uni00B9
Encoding: 185 185 118
Width: 292
Flags: W
HStem: 253 25<57.7773 115.633 207.768 258.819>
VStem: 123 74<293.746 568.147>
LayerCount: 2
Back
Fore
SplineSet
123 518 m 2
 123 564 115 569 104 569 c 0
 92 569 68 560 48 553 c 1
 42 556 39 564 39 570 c 0
 39 573 40 577 42 578 c 0
 148 622 189 652 192 652 c 2
 194 652 l 2
 200 652 205 632 206 629 c 1
 206 629 197 587 197 548 c 2
 197 340 l 2
 197 320 198 309 205 293 c 0
 208 286 249 279 257 279 c 1
 260 279 260 257 257 253 c 1
 218 254 200 256 161 256 c 0
 122 256 100 254 61 253 c 1
 56 256 56 278 61 278 c 0
 73 278 114 285 117 292 c 0
 122 305 123 328 123 338 c 2
 123 518 l 2
EndSplineSet
Validated: 1
EndChar

StartChar: ordmasculine
Encoding: 186 186 119
Width: 388
Flags: W
HStem: 247 24<163.771 239.041> 530 24<149.201 227.228>
VStem: 38 69<322.561 478.564> 281 69<323.778 480.457>
LayerCount: 2
Back
Fore
SplineSet
187 530 m 0
 129 530 107 467 107 411 c 0
 107 345 138 271 204 271 c 0
 259 271 281 336 281 391 c 0
 281 456 252 530 187 530 c 0
196 554 m 0
 283 554 350 486 350 403 c 0
 350 320 283 247 196 247 c 0
 109 247 38 316 38 399 c 0
 38 484 107 554 196 554 c 0
EndSplineSet
Validated: 1
EndChar

StartChar: guillemotright
Encoding: 187 187 120
Width: 482
Flags: W
LayerCount: 2
Back
Fore
SplineSet
277 246 m 0
 277 240 274 233 272 230 c 1
 141 151 64 72 63 71 c 1
 47 76 43 80 41 83 c 1
 47 104 143 206 189 247 c 1
 143 288 47 390 41 411 c 1
 43 414 47 418 63 423 c 1
 64 422 141 343 272 264 c 1
 276 255 277 256 277 246 c 0
457 246 m 0
 457 240 454 233 452 230 c 1
 321 151 244 72 243 71 c 1
 227 76 223 80 221 83 c 1
 227 104 323 206 369 247 c 1
 323 288 227 390 221 411 c 1
 223 414 227 418 243 423 c 1
 244 422 321 343 452 264 c 1
 456 255 457 256 457 246 c 0
EndSplineSet
Validated: 1
EndChar

StartChar: onequarter
Encoding: 188 188 121
Width: 699
Flags: W
HStem: -3 21G<581.5 595> 106 45<442 556 618 652.032> 251 22<51.0603 98.6719 184.454 233.491>
VStem: 112 62<288.617 554.988> 556 59<-2.78125 106 151 305>
LayerCount: 2
Back
Fore
SplineSet
606 407 m 4
 612 407 615 400 615 395 c 12
 615 298 615 238 615 146 c 5
 622 146 640 146 650 146 c 5
 659 138 664 120 656 106 c 5
 642 106 624 106 618 106 c 13
 618 0 l 5
 616 -2 602 -3 588 -3 c 4
 575 -3 561 -2 556 2 c 13
 556 106 l 5
 391 106 l 5
 386 107 382 111 381 122 c 5
 586 395 l 6
 590 400 598 407 606 407 c 4
556 151 m 13
 556 151 556 296 556 305 c 5
 515 253 487 209 442 151 c 5
 449 151 548 151 556 151 c 13
174 534 m 2
 174 336 l 2
 174 316 176 302 181 287 c 0
 183 280 223 273 231 273 c 1
 236 268 233 253 232 251 c 1
 193 252 185 254 146 254 c 0
 107 254 93 252 54 251 c 1
 49 254 50 269 54 273 c 1
 66 273 101 281 104 288 c 0
 109 301 112 324 112 334 c 2
 112 520 l 2
 112 539 105 555 95 555 c 0
 84 555 67 547 47 540 c 1
 41 543 36 552 34 558 c 1
 53 570 84 588 169 638 c 1
 176 636 182 629 182 622 c 1
 182 622 174 573 174 534 c 2
186 -13 m 0
 175 -11 175 -4 175 -4 c 1
 524 636 l 1
 525 639 538 647 555 644 c 0
 561 643 563 637 563 634 c 1
 218 2 l 2
 215 -4 202 -16 186 -13 c 0
EndSplineSet
Validated: 33
EndChar

StartChar: onehalf
Encoding: 189 189 122
Width: 750
Flags: W
HStem: -1 55<517 679> 251 22<54.0603 101.672 187.454 236.491> 347 45<504.49 606.382>
VStem: 115 62<288.617 554.988> 623 65<217.236 330.997>
LayerCount: 2
Back
Fore
SplineSet
569 392 m 0
 639 392 688 348 688 285 c 0
 688 252 672 220 642 184 c 0
 615 152 565 103 517 54 c 1
 637 54 l 2
 678 54 691 98 697 108 c 0
 698 110 699 110 702 111 c 0
 705 111 713 109 716 105 c 1
 705 76 693 32 679 -1 c 1
 447 -1 l 1
 441 -1 433 7 435 11 c 1
 473 52 527 101 567 152 c 0
 599 193 623 235 623 275 c 0
 623 317 599 347 557 347 c 0
 512 347 488 320 470 298 c 1
 466 294 452 310 453 315 c 1
 476 355 523 392 569 392 c 0
177 534 m 2
 177 336 l 2
 177 316 179 302 184 287 c 0
 186 280 226 273 234 273 c 1
 239 268 236 253 235 251 c 1
 196 252 188 254 149 254 c 0
 110 254 96 252 57 251 c 1
 52 254 53 269 57 273 c 1
 69 273 104 281 107 288 c 0
 112 301 115 324 115 334 c 2
 115 520 l 2
 115 539 108 555 98 555 c 0
 87 555 70 547 50 540 c 1
 44 543 39 552 37 558 c 1
 56 570 87 588 172 638 c 1
 179 636 185 629 185 622 c 1
 185 622 177 573 177 534 c 2
564 634 m 1
 219 2 l 2
 216 -4 203 -16 187 -13 c 0
 176 -11 176 -4 176 -4 c 1
 525 636 l 1
 526 639 539 647 556 644 c 0
 562 643 564 637 564 634 c 1
EndSplineSet
Validated: 33
EndChar

StartChar: threequarters
Encoding: 190 190 123
Width: 700
Flags: W
HStem: -3 21G<582.5 596> 106 45<443 557 619 653.032> 249 28<103.743 183.501> 607 39<98.6021 176.209>
VStem: 189 56<513.694 596.981> 213 64<312.363 429.422> 557 59<-2.78125 106 151 305>
LayerCount: 2
Back
Fore
SplineSet
607 407 m 0xf2
 613 407 616 400 616 395 c 8
 616 298 616 238 616 146 c 1
 623 146 641 146 651 146 c 1
 660 138 665 120 657 106 c 1
 643 106 625 106 619 106 c 9
 619 106 619 0 619 0 c 1
 617 -2 603 -3 589 -3 c 0
 576 -3 562 -2 557 2 c 9
 557 2 557 106 557 106 c 1
 557 106 392 106 392 106 c 1
 387 107 383 111 382 122 c 1
 382 122 587 395 587 395 c 2
 591 400 599 407 607 407 c 0xf2
557 151 m 9
 557 151 557 296 557 305 c 1
 516 253 488 209 443 151 c 1
 450 151 549 151 557 151 c 9
158 646 m 0
 200 646 245 620 245 569 c 0xfa
 245 525 209 496 187 486 c 1
 213 486 277 452 277 386 c 0
 277 298 201 249 114 249 c 0
 92 249 57 255 47 264 c 1
 47 264 35 275 35 288 c 0
 35 308 50 321 66 321 c 0
 83 321 90 304 102 292 c 0
 112 282 126 277 141 277 c 0
 183 277 213 307 213 368 c 0xf6
 213 417 178 454 141 454 c 0
 123 454 106 447 101 446 c 1
 99 448 97 453 96 458 c 0
 95 461 95 465 96 467 c 1
 145 477 189 507 189 556 c 0xfa
 189 582 164 607 138 607 c 0
 101 607 74 576 68 570 c 1
 63 572 58 585 59 586 c 1
 73 607 105 646 158 646 c 0
569 634 m 1
 569 634 224 2 224 2 c 2
 221 -4 208 -16 192 -13 c 0
 181 -11 181 -4 181 -4 c 1
 181 -4 530 636 530 636 c 1
 531 639 544 647 561 644 c 0
 567 643 569 637 569 634 c 1
EndSplineSet
Validated: 33
EndChar

StartChar: questiondown
Encoding: 191 191 124
Width: 345
Flags: W
HStem: -223 94<167.451 286.234> -223 73<158.434 267.661> 320 110<189.463 275.77>
VStem: 41 50<-116.531 -13.6233> 178 110<331.463 417.77> 226 29<177.761 259.712>
LayerCount: 2
Back
Fore
SplineSet
288 374 m 0x38
 288 344 262 320 232 320 c 0
 202 320 178 344 178 374 c 0
 178 404 202 430 232 430 c 0
 262 430 288 404 288 374 c 0x38
255 249 m 1xb4
 260 228 263 185 263 158 c 0
 263 84 215 58 178 34 c 0
 129 3 91 -20 91 -68 c 0
 91 -120 127 -150 165 -150 c 0x78
 218 -150 225 -129 251 -129 c 0
 265 -129 295 -146 295 -179 c 0
 295 -194 291 -209 286 -216 c 1
 276 -221 259 -223 238 -223 c 0
 172 -223 41 -155 41 -38 c 0
 41 30 67 72 142 115 c 0
 169 131 214 166 220 177 c 0
 229 193 226 224 226 247 c 1
 230 255 233 259 242 260 c 1
 247 258 252 255 255 249 c 1xb4
EndSplineSet
Validated: 33
Substitution2: "'c2sc' Capitals to Small Capitals in Latin lookup 0 subtable" questiondown.sc
Substitution2: "'smcp' Lowercase to Small Capitals lookup 2-1" questiondown.sc
EndChar

StartChar: AE
Encoding: 198 198 131
Width: 897
Flags: W
HStem: -3 29<-15.6875 34.4574 127.06 187.196 355.181 357 357.036 412.266> 0 34<521.612 744.606> 257 38<265.999 430> 312 37<515 692.451> 408 20G<732.5 739.5> 624 33<356.419 357 357.036 401.422 518.721 742.774>
VStem: 430 85<44.2663 255 297 310.528 349.429 565.971> 721 32<230.002 289.298 372.014 427.976> 791 32<523.07 571.016>
LayerCount: 2
Back
Fore
SplineSet
473 0 m 0x7f80
 406 0 357 -3 357 -3 c 1
 353 2 355 26 357 26 c 1
 369 26 418 37 423 49 c 1
 429 72 430 118 430 135 c 10
 430 135 430 255 430 255 c 17
 412 256 366 257 341 257 c 0
 300 257 285 255 239 252 c 0
 237 252 234 249 234 249 c 1
 234 249 192 178 161 129 c 0
 141 98 121 65 121 52 c 0
 121 28 177 26 185 26 c 1
 188 23 189 3 187 -3 c 1
 147 -1 134 2 90 2 c 0
 44 2 32 -1 -14 -3 c 1
 -17 0 -17 19 -14 26 c 1xbf80
 -2 26 29 36 43 45 c 0
 68 61 98 104 118 137 c 2
 118 137 395 584 395 584 c 2
 398 589 402 597 402 604 c 0
 402 622 369 629 357 629 c 1
 352 635 355 656 357 658 c 1
 357 658 406 657 473 657 c 0
 567 657 685 664 794 664 c 1
 801 614 814 573 823 528 c 1
 820 525 812 523 805 523 c 0
 798 523 792 525 791 530 c 0
 769 610 728 624 675 624 c 2
 675 624 589 624 589 624 c 0
 577 624 523 623 520 613 c 0
 515 597 515 569 515 542 c 2
 515 542 515 355 515 355 c 2
 515 350 536 349 558 349 c 2
 558 349 611 349 611 349 c 2
 707 349 704 355 721 421 c 0
 722 426 729 428 736 428 c 0
 743 428 750 426 753 423 c 1
 753 423 753 234 753 234 c 1
 751 232 744 230 737 230 c 0
 730 230 723 233 721 238 c 0
 706 295 702 298 693 304 c 0
 682 311 625 312 587 312 c 0
 559 312 515 312 515 303 c 2
 515 303 515 113 515 113 c 2
 515 98 515 49 521 44 c 0
 534 34 550 34 592 34 c 2
 592 34 640 34 640 34 c 2
 687 34 738 44 766 61 c 0
 798 80 813 119 829 162 c 0
 830 166 836 168 843 168 c 0
 853 168 865 165 868 162 c 1
 849 108 821 40 814 -4 c 1
 705 -4 606 0 473 0 c 0x7f80
430 297 m 9
 430 297 430 566 430 566 c 17
 409 533 266 300 266 300 c 1
 266 300 265 296 267 296 c 0
 293 295 323 295 346 295 c 0
 377 295 411 296 430 297 c 9
EndSplineSet
Validated: 1
EndChar

StartChar: Eth
Encoding: 208 208 141
Width: 710
Flags: W
HStem: -3 32<43.0862 114.671 213.396 390.374> 311 37<47.3369 366.828> 626 32<45 115.65 210.721 376.678>
VStem: 119 88<43.3146 622.145> 560 99<197.497 448.749>
LayerCount: 2
Back
Fore
SplineSet
365 311 m 1
 336 311 63 311 49 311 c 1
 45 311 44 339 50 348 c 1
 79 348 351 348 365 348 c 1
 369 348 369 320 365 311 c 1
EndSplineSet
Refer: 35 68 N 1 0 0 1 0 0 3
Validated: 37
Substitution2: "'c2sc' Capitals to Small Capitals in Latin lookup 0 subtable" eth.sc
EndChar

StartChar: multiply
Encoding: 215 215 148
Width: 464
Flags: W
HStem: 409 20G<74.5 80.5 384.5 390.5>
LayerCount: 2
Back
Fore
SplineSet
199 247 m 1
 55 391 l 1
 55 405 70 429 79 429 c 0
 82 429 84 429 86 427 c 2
 86 427 233 285 235 283 c 9
 380 427 l 2
 381 428 383 429 386 429 c 0
 395 429 408 399 408 389 c 1
 408 389 271 253 268 250 c 1
 269 249 408 105 408 105 c 1
 408 90 397 65 386 65 c 0
 384 65 381 65 379 67 c 2
 379 67 233 213 232 214 c 1
 230 212 83 66 83 66 c 2
 81 65 79 64 77 64 c 0
 68 64 55 95 55 105 c 1
 55 105 195 243 199 247 c 1
EndSplineSet
Validated: 1
Substitution2: "'smcp' Lowercase to Small Capitals lookup 2-1" multiply.sc
EndChar

StartChar: Oslash
Encoding: 216 216 149
Width: 748
Flags: W
HStem: -10 34<312.807 466.307> 633 34<280.332 437.715> 647 20G<552.275 569.5>
VStem: 49 99<213.913 447.61> 600 99<209.584 443.622>
LayerCount: 2
Back
Fore
SplineSet
565 667 m 17xb8
 574 665 598 651 594 645 c 9
 594 645 176 -13 176 -13 c 17
 167 -10 143 4 147 10 c 9
 147 10 565 667 565 667 c 17xb8
EndSplineSet
Refer: 46 79 N 1 0 0 1 0 0 3
Validated: 37
Substitution2: "'c2sc' Capitals to Small Capitals in Latin lookup 0 subtable" oslash.sc
EndChar

StartChar: Thorn
Encoding: 222 222 155
Width: 548
Flags: W
HStem: -3 29<42.4037 113.252 211.748 282.596> 128 28<251.776 345.657> 470 39<224.667 359.937> 633 29<42.4037 113.252 211.748 282.596>
VStem: 119 87<32.7426 439.464 480 626.257> 426 92<233.77 405.78>
LayerCount: 2
Back
Fore
SplineSet
163 657 m 0
 202 657 239 660 280 662 c 1
 285 657 284 638 280 633 c 1
 268 633 214 628 211 617 c 0
 206 601 206 573 206 543 c 2
 206 480 l 17
 243 506 308 509 325 509 c 0
 406 509 518 445 518 329 c 0
 518 207 429 128 298 128 c 0
 287 128 265 131 255 136 c 0
 252 138 241 146 241 158 c 0
 241 160 242 164 246 163 c 1
 257 160 269 156 284 156 c 0
 364 156 426 212 426 312 c 0
 426 411 370 470 288 470 c 0
 276 470 229 464 214 440 c 0
 207 429 206 390 206 360 c 0
 206 116 l 2
 206 86 206 58 211 42 c 0
 214 31 268 26 280 26 c 1
 284 21 285 2 280 -3 c 1
 239 -1 202 2 163 2 c 0
 124 2 86 -1 45 -3 c 1
 40 2 41 21 45 26 c 1
 57 26 111 31 114 42 c 0
 119 58 119 86 119 116 c 2
 119 543 l 2
 119 573 119 601 114 617 c 0
 111 628 57 633 45 633 c 1
 41 638 40 657 45 662 c 1
 86 660 124 657 163 657 c 0
EndSplineSet
Validated: 1
Substitution2: "'c2sc' Capitals to Small Capitals in Latin lookup 0 subtable" thorn.sc
EndChar

StartChar: germandbls
Encoding: 223 223 156
Width: 537
Flags: W
HStem: -10 31<28 84.8417 185.424 245 346.086 419.127> 391 41<40.9629 96> 660 33<220.671 325.717>
VStem: 96 77<32.7426 391 432 545.797> 247 58<314.838 376.31> 368 75<488.616 624.746> 443 68<55.8919 152.105>
LayerCount: 2
Back
Fore
SplineSet
267 693 m 0xfc
 361 693 443 655 443 561 c 0xfc
 443 510 415 475 384 447 c 0
 347 413 305 389 305 359 c 0
 305 318 356 290 403 265 c 0
 450 240 511 206 511 137 c 0
 511 58 455 -10 379 -10 c 0
 318 -10 271 16 261 33 c 1
 261 37 262 42 262 46 c 0
 264 72 272 91 295 91 c 0
 314 91 323 68 336 49 c 0
 346 34 359 21 381 21 c 0
 417 21 443 52 443 102 c 0xfa
 443 147 403 170 359 193 c 0
 306 221 247 251 247 325 c 0
 247 367 287 392 321 430 c 0
 346 458 368 494 368 549 c 0
 368 614 334 660 270 660 c 0
 181 660 173 557 173 475 c 0
 173 475 173 116 173 116 c 2
 173 86 173 58 178 42 c 0
 181 31 233 26 245 26 c 1
 249 21 250 2 245 -3 c 1
 204 -1 173 2 134 2 c 0
 95 2 69 -1 28 -3 c 1
 23 2 24 21 28 26 c 1
 40 26 88 31 91 42 c 0
 96 58 96 86 96 116 c 2
 96 116 96 391 96 391 c 1
 96 391 38 391 38 391 c 2
 35 391 33 397 33 400 c 0
 33 404 58 431 59 432 c 1
 75 432 85 432 96 432 c 1
 96 433 96 434 96 438 c 0
 96 560 187 693 267 693 c 0xfc
EndSplineSet
Validated: 1
Substitution2: "'smcp' Lowercase to Small Capitals lookup 2-1" germandbls.sc
EndChar

StartChar: ae
Encoding: 230 230 163
Width: 653
Flags: W
HStem: -8 64<414.721 544.098> -8 54<138.481 211.032> 248 37<339 524.487> 402 36<165.987 260.5 392.842 487.878>
VStem: 37 83<64.4927 167.195> 52 81<294.428 353.807> 265 69<142.672 220> 525 85<285.847 368.285>
LayerCount: 2
Back
Fore
SplineSet
181 194 m 0x7b
 145 181 120 154 120 116 c 0
 120 79 149 46 187 46 c 0
 223 46 279 74 279 104 c 1
 271 122 264 163 261 193 c 0
 260 204 259 213 259 220 c 1
 233 211 198 200 181 194 c 0x7b
443 402 m 0
 359 402 337 285 339 285 c 1
 348 285 492 285 502 285 c 0
 514 285 524 290 525 308 c 0
 526 332 504 402 443 402 c 0
460 438 m 0
 580 438 610 342 610 302 c 0
 610 273 605 256 586 255 c 0
 555 253 346 248 334 248 c 1
 331 120 409 56 497 56 c 0
 552 56 594 94 607 109 c 1
 608 109 615 103 615 95 c 0
 615 90 612 82 609 77 c 0
 591 48 541 -8 463 -8 c 0xb7
 402 -8 332 20 298 77 c 1
 274 52 189 -8 154 -8 c 0
 88 -8 37 42 37 107 c 0x7b
 37 148 60 174 83 186 c 0
 131 210 220 243 249 256 c 0
 259 260 261 262 263 270 c 0
 265 279 265 290 265 302 c 0
 265 347 237 398 188 398 c 0
 153 398 140 374 133 335 c 0
 127 301 111 288 86 288 c 0
 65 288 52 310 52 330 c 0x77
 52 338 56 350 59 354 c 1
 83 377 166 436 239 436 c 0
 282 436 315 406 332 374 c 1
 356 400 403 438 460 438 c 0
EndSplineSet
Validated: 33
Substitution2: "'smcp' Lowercase to Small Capitals lookup 2-1" ae.sc
EndChar

StartChar: eth
Encoding: 240 240 173
Width: 517
UnlinkRmOvrlpSave: 1
Flags: W
HStem: -7 33<207.397 313.579> 406 33<182.49 300.167> 664 24<86.2432 106.22>
VStem: 40 86<116.483 316.648> 375 87<128.32 331.707>
LayerCount: 2
Back
Fore
SplineSet
346 699 m 17
 354 694 371 674 364 668 c 9
 128 509 l 17
 121 514 104 535 111 541 c 9
 346 699 l 17
234 406 m 0
 154 406 126 319 126 227 c 0
 126 129 178 26 259 26 c 0
 338 26 375 104 375 202 c 0
 375 257 366 308 355 329 c 0
 327 382 288 406 234 406 c 0
247 439 m 0
 276 439 312 435 332 423 c 1
 309 482 267 588 81 664 c 1
 81 671 87 688 95 688 c 1
 182 668 276 608 347 526 c 0
 415 448 462 349 462 247 c 3
 462 85 361 -7 256 -7 c 0
 120 -7 40 91 40 211 c 0
 40 319 108 439 247 439 c 0
EndSplineSet
Validated: 37
Substitution2: "'smcp' Lowercase to Small Capitals lookup 2-1" eth.sc
EndChar

StartChar: divide
Encoding: 247 247 180
Width: 599
Flags: W
HStem: 5 100<260.438 343.562> 219 56<66 536.076> 388 100<260.438 343.562>
VStem: 252 100<13.4375 96.5625 396.438 479.562>
LayerCount: 2
Back
Fore
SplineSet
66 219 m 17
 66 219 60 219 60 229 c 0
 60 233 66 267 77 275 c 9
 254 275 354 275 531 275 c 16
 535 275 540 271 540 263 c 0
 540 247 532 227 524 219 c 1
 66 219 l 17
EndSplineSet
Refer: 339 775 N 1 0 0 1 557 -110 2
Refer: 339 775 N 1 0 0 1 557 -493 2
Validated: 1
Substitution2: "'smcp' Lowercase to Small Capitals lookup 2-1" divide.sc
EndChar

StartChar: oslash
Encoding: 248 248 181
Width: 509
Flags: W
HStem: -8 21G<125 141.706> -7 33<214.699 321.24> 406 33<190.214 296.584> 417 20G<359.264 375.5>
VStem: 42 86<120.834 313.837> 383 86<116.337 309.213>
LayerCount: 2
Back
Fore
SplineSet
129 -8 m 17x9c
 121 -4 99 7 102 13 c 9
 102 13 372 437 372 437 c 17
 379 434 402 423 399 417 c 9
 399 417 129 -8 129 -8 c 17x9c
EndSplineSet
Refer: 78 111 N 1 0 0 1 1 0 3
Validated: 37
Substitution2: "'smcp' Lowercase to Small Capitals lookup 2-1" oslash.sc
EndChar

StartChar: thorn
Encoding: 254 254 187
Width: 495
Flags: W
HStem: -226 29<0.403656 65.2898 153.71 218.596> -8 35<181.172 297.721> 379 59<205.78 301.97> 628 26<3.89859 61.8281> 674 20G<127 150.5>
VStem: 71 77<-190.581 2.99635 52.6571 362.458 379.003 621.593> 372 84<139.167 301.166>
LayerCount: 2
Back
Fore
SplineSet
275 438 m 0
 399 438 456 318 456 232 c 0
 456 103 335 -8 222 -8 c 0
 196 -8 168 -2 152 3 c 1
 152 3 148 -2 148 -10 c 2
 148 -107 l 2
 148 -137 148 -165 153 -181 c 0
 156 -192 204 -197 216 -197 c 1
 220 -202 221 -221 216 -226 c 1
 175 -224 148 -221 109 -221 c 0
 70 -221 44 -224 3 -226 c 1
 -2 -221 -1 -202 3 -197 c 1
 15 -197 63 -192 66 -181 c 0
 71 -165 71 -137 71 -107 c 2
 71 558 l 2
 71 572 71 598 66 610 c 0
 60 624 33 628 5 628 c 1
 4 628 2 653 6 654 c 1
 56 659 106 675 148 694 c 1
 153 694 159 685 159 678 c 1
 159 678 148 646 148 591 c 2
 148 591 148 392 148 384 c 0
 148 383 148 379 150 379 c 0
 151 379 152 380 153 381 c 0
 178 402 235 438 275 438 c 0
232 379 m 0
 191 379 148 354 148 340 c 2
 148 100 l 2
 148 48 206 27 241 27 c 0
 324 27 372 114 372 195 c 0
 372 314 308 379 232 379 c 0
EndSplineSet
Validated: 1
Substitution2: "'smcp' Lowercase to Small Capitals lookup 2-1" thorn.sc
EndChar

StartChar: Aogonek
Encoding: 260 260 193
Width: 627
Flags: W
HStem: -223 59<460.505 533.975> 2 24<-13.6875 38.893 134.586 192.196 402.775 460.568 587.494 631.562> 253 39<199 378.999> 643 20G<321.5 327.5>
VStem: 402 54<-160.236 -83.3499>
LayerCount: 2
Back
Fore
SplineSet
631 -3 m 1
 603 -2 583 0 559 1 c 1
 515 -25 456 -77 456 -121 c 0
 456 -136 463 -164 497 -164 c 0
 548 -164 572 -126 578 -126 c 0
 579 -126 583 -131 583 -139 c 0
 583 -144 581 -153 578 -157 c 0
 556 -186 518 -223 473 -223 c 0
 417 -223 402 -173 402 -146 c 0
 402 -91 460 -32 514 2 c 1
 513 2 513 2 512 2 c 0
 472 2 447 -1 405 -3 c 1
 400 2 401 21 406 26 c 1
 418 26 453 31 462 39 c 0
 465 42 466 47 466 53 c 0
 466 83 398 248 398 248 c 1
 398 248 395 252 392 252 c 0
 366 254 318 253 293 253 c 0
 252 253 230 253 185 250 c 0
 183 250 180 247 180 247 c 1
 180 247 152 173 135 125 c 16
 123 90 121 67 121 54 c 0
 122 30 182 26 190 26 c 1
 193 23 194 3 192 -3 c 1
 152 -1 138 2 95 2 c 0
 49 2 34 -1 -12 -3 c 1
 -15 0 -15 19 -12 26 c 1
 0 26 38 32 48 45 c 0
 68 71 81 103 95 139 c 2
 95 139 227 478 288 634 c 1
 293 644 317 663 326 663 c 0
 329 663 329 661 332 660 c 1
 536 126 l 0
 550 89 559 64 561 60 c 0
 571 36 621 26 629 26 c 1
 634 19 632 0 631 -3 c 1
291 542 m 1
 199 298 l 1
 199 298 199 294 201 294 c 0
 227 293 269 292 292 292 c 0
 323 292 345 293 376 295 c 0
 378 295 379 300 379 300 c 1
 291 542 l 1
EndSplineSet
Validated: 33
Substitution2: "'c2sc' Capitals to Small Capitals in Latin lookup 0 subtable" aogonek.sc
EndChar

StartChar: aogonek
Encoding: 261 261 194
Width: 431
Flags: W
HStem: -223 59<268.505 341.975> -8 54<138.481 211.996> 398 38<158.777 269.5>
VStem: 37 83<64.4927 166.568> 52 81<294.824 353.758> 210 54<-160.236 -87.1945> 274 76<67.9015 223 245.918 361.958>
LayerCount: 2
Back
Fore
SplineSet
187 46 m 0xf6
 222 46 274 77 274 87 c 2
 274 87 274 223 274 223 c 17
 247 215 199 201 181 194 c 0
 145 180 120 154 120 116 c 0
 120 79 149 46 187 46 c 0xf6
277 59 m 1
 265 47 189 -8 154 -8 c 0
 88 -8 37 42 37 107 c 0xf6
 37 148 65 179 87 187 c 0
 143 207 233 237 262 250 c 0
 272 254 274 257 274 275 c 2
 274 275 274 302 274 302 c 2
 274 347 237 398 188 398 c 0
 153 398 140 375 133 336 c 0
 127 302 111 288 86 288 c 0
 65 288 52 310 52 330 c 0xee
 52 334 55 349 59 354 c 1
 90 383 168 436 241 436 c 0
 298 436 350 376 350 299 c 2
 350 299 350 93 350 93 c 2
 350 66 358 46 381 46 c 0
 399 46 411 57 414 59 c 1
 417 59 418 54 418 51 c 0
 418 45 416 37 413 32 c 1
 403 25 389 15 377 7 c 0
 339 -20 264 -67 264 -121 c 0
 264 -136 271 -164 305 -164 c 0
 356 -164 380 -126 386 -126 c 0
 387 -126 391 -131 391 -139 c 0
 391 -144 389 -153 386 -157 c 0
 364 -186 326 -223 281 -223 c 0
 225 -223 210 -173 210 -146 c 0
 210 -102 265 -37 313 1 c 1
 296 11 279 35 277 59 c 1
EndSplineSet
Validated: 1
Substitution2: "'smcp' Lowercase to Small Capitals lookup 2-1" aogonek.sc
EndChar

StartChar: dcroat
Encoding: 273 273 206
Width: 515
Flags: W
HStem: -8 62<192.397 289.897> 20 27<438.72 496.784> 396 42<196.789 327.598> 525 35<213.529 489.01> 628 26<283.899 341.828> 674 20<407 430.5>
VStem: 39 84<130.201 291.813> 351 77<70.6579 374.572 428.007 621.593>
LayerCount: 2
Back
Fore
SplineSet
219 560 m 1x3f
 248 560 470 560 484 560 c 0
 488 560 490 556 490 552 c 3
 490 547 488 533 484 525 c 1
 455 525 232 525 218 525 c 0
 214 525 213 533 213 537 c 3
 213 542 215 553 219 560 c 1x3f
EndSplineSet
Refer: 67 100 N 1 0 0 1 0 0 3
Validated: 5
Substitution2: "'smcp' Lowercase to Small Capitals lookup 2-1" dcroat.sc
EndChar

StartChar: Eogonek
Encoding: 280 280 213
Width: 587
Flags: W
HStem: -224 59<384.505 457.975> -3 29<42.4037 113.252> 0 34<212.612 428.518> 312 37<206 383.451> 408 20G<423.5 430.5> 624 33<209.721 433.774> 633 29<42.5487 113.252>
VStem: 119 87<44.2663 310.528 349.429 620.395> 326 54<-161.236 -85.62> 412 32<230.002 289.298 372.014 427.976> 482 32<523.07 571.016>
LayerCount: 2
Back
Fore
SplineSet
163 657 m 0x9de0
 257 657 376 664 485 664 c 1
 492 614 505 573 514 528 c 1
 511 525 503 523 496 523 c 0
 489 523 483 525 482 530 c 0
 460 610 419 624 366 624 c 2
 366 624 280 624 280 624 c 0
 268 624 214 623 211 613 c 0
 206 597 206 569 206 542 c 2
 206 542 206 355 206 355 c 2
 206 350 227 349 249 349 c 2
 249 349 302 349 302 349 c 2
 398 349 395 355 412 421 c 0
 413 426 420 428 427 428 c 0
 434 428 441 426 444 423 c 1
 444 423 444 234 444 234 c 1
 442 232 435 230 428 230 c 0
 421 230 414 233 412 238 c 0
 397 295 393 298 384 304 c 0
 373 311 316 312 278 312 c 0
 250 312 206 312 206 303 c 2
 206 303 206 113 206 113 c 2
 206 98 206 49 212 44 c 0
 225 34 241 34 283 34 c 2
 283 34 331 34 331 34 c 2xbde0
 378 34 429 44 457 61 c 0
 489 80 504 119 520 162 c 0
 521 166 527 168 534 168 c 0
 544 168 556 165 559 162 c 1
 540 108 512 40 505 -4 c 1
 446 -4 380 -79 380 -122 c 0
 380 -137 387 -165 421 -165 c 0
 472 -165 496 -127 502 -127 c 0
 503 -127 506 -132 506 -140 c 0
 506 -145 505 -154 502 -158 c 0
 480 -187 442 -224 397 -224 c 0
 341 -224 326 -174 326 -147 c 0
 326 -96 380 -38 430 -3 c 1xd9e0
 348 -2 297 0 164 0 c 0xb9e0
 117 0 84 -3 45 -3 c 1
 40 2 41 21 45 26 c 1
 57 26 111 31 114 42 c 0
 119 58 119 86 119 116 c 2
 119 116 119 543 119 543 c 2
 119 573 119 601 114 617 c 0
 111 628 57 633 45 633 c 1
 41 638 40 657 45 662 c 1xdbe0
 86 660 124 657 163 657 c 0x9de0
EndSplineSet
Validated: 1
Substitution2: "'c2sc' Capitals to Small Capitals in Latin lookup 0 subtable" eogonek.sc
EndChar

StartChar: eogonek
Encoding: 281 281 214
Width: 431
Flags: W
HStem: -224 59<244.505 317.975> -8 64<192.798 299.73> 248 37<116 301.487> 402 36<172.002 264.878>
VStem: 40 71<142.672 248> 186 54<-161.236 -80.8509> 302 85<285.847 368.285>
LayerCount: 2
Back
Fore
SplineSet
338 25 m 0
 288 -17 240 -64 240 -122 c 0
 240 -137 247 -165 281 -165 c 0
 332 -165 356 -127 362 -127 c 0
 363 -127 366 -132 366 -140 c 0
 366 -145 365 -154 362 -158 c 0
 340 -187 302 -224 257 -224 c 0
 201 -224 186 -174 186 -147 c 0
 186 -107 224 -46 264 -6 c 1
 256 -7 248 -8 240 -8 c 0
 122 -8 40 82 40 200 c 0
 40 334 149 438 237 438 c 0
 357 438 387 342 387 302 c 0
 387 273 382 256 363 255 c 0
 332 253 123 248 111 248 c 1
 108 120 186 56 274 56 c 0
 329 56 371 94 384 109 c 0
 385 109 392 103 392 95 c 0
 392 90 389 82 386 77 c 0
 377 63 359 43 338 25 c 0
116 285 m 0
 125 285 269 285 279 285 c 0
 291 285 301 290 302 308 c 0
 303 332 281 402 220 402 c 0
 136 402 114 285 116 285 c 0
EndSplineSet
Validated: 33
Substitution2: "'smcp' Lowercase to Small Capitals lookup 2-1" eogonek.sc
EndChar

StartChar: Hbar
Encoding: 294 294 227
Width: 726
Flags: W
HStem: -3 32<42.5037 113.999 211.001 282.496 443.504 514.999 612.001 683.496> 325 34<208 518> 470 38<81.157 643.843> 630 32<42.5037 113.999 211.001 282.496 443.504 514.999 612.001 683.496>
VStem: 119 87<35.7426 317 362.001 623.257> 520 87<35.7426 320.999 362.001 623.257>
LayerCount: 2
Back
Fore
SplineSet
86 470 m 0
 82 470 81 478 81 483 c 3
 81 489 81 499 87 508 c 1
 639 508 l 0
 643 508 644 500 644 495 c 3
 644 489 644 479 638 470 c 1
 609 470 100 470 86 470 c 0
EndSplineSet
Refer: 39 72 N 1 0 0 1 0 0 3
Validated: 5
EndChar

StartChar: hbar
Encoding: 295 295 228
Width: 516
Flags: W
HStem: -3 29<18.4037 83.2898 171.71 236.596 288.404 353.29 441.71 506.596> 380 58<240.761 327.184> 525 35<23.5288 299.01> 628 26<21.8986 79.8281> 674 20<145 168.5>
VStem: 89 77<32.4189 347.537 363.001 621.593> 359 77<32.4189 346.845>
LayerCount: 2
Back
Fore
SplineSet
29 560 m 1
 58 560 280 560 294 560 c 0
 298 560 300 556 300 552 c 3
 300 547 298 533 294 525 c 1
 265 525 42 525 28 525 c 0
 24 525 23 533 23 537 c 3
 23 542 25 553 29 560 c 1
EndSplineSet
Refer: 71 104 N 1 0 0 1 0 0 3
Validated: 5
Substitution2: "'smcp' Lowercase to Small Capitals lookup 2-1" hbar.sc
EndChar

StartChar: Iogonek
Encoding: 302 302 235
Width: 328
Flags: W
HStem: -224 59<126.505 199.975> -3 29<42.0058 106.855 229.752 283.997> 633 29<42.0511 105.079 223.221 283.993>
VStem: 68 54<-161.236 -86.8884> 120 87<36.9151 621.28>
LayerCount: 2
Back
Fore
SplineSet
166 657 m 0xe8
 210 657 242 660 282 662 c 1
 283 659 284 652 284 647 c 0
 284 641 283 633 280 633 c 0
 272 633 219 623 216 612 c 0
 209 585 207 555 207 519 c 2
 207 519 207 139 207 139 c 2xe8
 207 103 209 73 216 46 c 0
 219 35 272 26 280 26 c 0
 283 26 284 17 284 11 c 0
 284 6 283 0 282 -3 c 1
 264 -2 245 -1 229 0 c 1
 185 -26 122 -78 122 -122 c 0
 122 -137 129 -165 163 -165 c 0
 214 -165 238 -127 244 -127 c 0
 245 -127 248 -132 248 -140 c 0
 248 -145 247 -154 244 -158 c 0
 222 -187 184 -224 139 -224 c 0
 83 -224 68 -174 68 -147 c 0xf0
 68 -93 131 -33 184 2 c 1
 178 2 173 2 166 2 c 0
 120 2 92 -1 46 -3 c 1
 44 -1 42 6 42 12 c 0
 42 18 44 26 46 26 c 0
 58 26 108 34 113 46 c 1
 119 69 120 117 120 135 c 2
 120 135 120 523 120 523 c 2
 120 541 119 589 113 612 c 1
 108 624 58 633 46 633 c 0
 44 633 42 640 42 646 c 0
 42 652 44 660 46 662 c 1
 92 660 120 657 166 657 c 0xe8
EndSplineSet
Validated: 1
Substitution2: "'c2sc' Capitals to Small Capitals in Latin lookup 0 subtable" iogonek.sc
EndChar

StartChar: dotlessi
Encoding: 305 305 238
Width: 270
Flags: W
HStem: -3 29<33.4037 98.2898 186.71 251.596> 372 26<32.1812 93.4485> 420 20G<157 179.5>
VStem: 104 77<32.4189 365.708>
LayerCount: 2
Back
Fore
SplineSet
181 325 m 0
 181 325 181 116 181 116 c 2
 181 86 181 58 186 42 c 0
 189 31 237 26 249 26 c 1
 253 21 254 2 249 -3 c 1
 208 -1 181 2 142 2 c 0
 103 2 77 -1 36 -3 c 1
 31 2 32 21 36 26 c 1
 48 26 96 31 99 42 c 0
 104 58 104 86 104 116 c 2
 104 116 104 302 104 302 c 2
 104 315 104 342 99 354 c 0
 92 371 41 372 34 372 c 1
 32 374 30 393 34 398 c 1
 85 405 137 419 177 440 c 1
 182 440 188 429 188 424 c 1
 187 417 181 368 181 358 c 2
 181 358 181 325 181 325 c 0
EndSplineSet
Validated: 1
Substitution2: "'smcp' Lowercase to Small Capitals lookup 2-1" dotlessi.sc
EndChar

StartChar: kgreenlandic
Encoding: 312 312 245
Width: 533
Flags: W
HStem: -3 29<33.4037 98.2898 186.71 251.596 456.499 527.505> 372 26<32.1812 93.4485> 396 29<305.188 354.56 432.283 495.065> 420 20G<157 179.5>
VStem: 104 77<32.4189 204 235 365.708>
LayerCount: 2
Back
Fore
SplineSet
181 358 m 2xd8
 181 358 181 235 181 235 c 1
 198 241 229 267 263 296 c 0
 315 340 355 369 355 379 c 0
 355 394 316 395 307 396 c 1
 302 403 304 423 309 425 c 1xa8
 338 422 373 420 405 420 c 0x98
 439 420 471 422 493 425 c 1
 497 419 496 400 493 396 c 1xa8
 479 396 437 388 416 373 c 0
 405 365 313 299 254 249 c 1
 329 168 410 73 434 53 c 0
 460 32 500 25 526 26 c 1
 528 23 530 7 527 2 c 1
 520 -1 489 -4 462 -4 c 0
 403 -4 354 24 339 40 c 2
 339 40 253 133 196 195 c 0
 192 200 181 204 181 204 c 1
 181 204 181 116 181 116 c 2
 181 86 181 58 186 42 c 0
 189 31 237 26 249 26 c 1
 253 21 254 2 249 -3 c 1
 208 -1 181 2 142 2 c 0
 103 2 77 -1 36 -3 c 1
 31 2 32 21 36 26 c 1
 48 26 96 31 99 42 c 0
 104 58 104 86 104 116 c 2
 104 116 104 302 104 302 c 2
 104 315 104 342 99 354 c 0
 92 371 41 372 34 372 c 1
 32 374 30 393 34 398 c 1
 85 405 137 419 177 440 c 1
 182 440 188 429 188 424 c 1
 187 417 181 368 181 358 c 2xd8
EndSplineSet
Validated: 33
Substitution2: "'smcp' Lowercase to Small Capitals lookup 2-1" kgreenlandic.sc
EndChar

StartChar: Lslash
Encoding: 321 321 254
Width: 564
Flags: W
HStem: -3 29<42.4037 113.252> 0 34<212.612 437.392> 633 29<42.4037 113.252 211.748 282.596>
VStem: 119 87<44.2685 626.257>
LayerCount: 2
Back
Fore
SplineSet
384 447 m 1x30
 389 442 406 419 402 416 c 9
 402 416 51 178 51 178 c 1
 45 184 30 204 34 207 c 9
 34 207 384 447 384 447 c 1x30
EndSplineSet
Refer: 43 76 N 1 0 0 1 0 0 3
Validated: 37
Substitution2: "'c2sc' Capitals to Small Capitals in Latin lookup 0 subtable" lslash.sc
EndChar

StartChar: lslash
Encoding: 322 322 255
Width: 255
Flags: W
HStem: -3 29<18.4037 83.2898 171.71 236.596> 628 26<21.8986 79.8281> 674 20<145 168.5>
VStem: 89 77<32.4189 621.593>
LayerCount: 2
Back
Fore
SplineSet
35 260 m 1
 29 266 16 284 20 288 c 9
 217 423 l 1
 222 418 237 400 233 396 c 9
 35 260 l 1
EndSplineSet
Refer: 75 108 N 1 0 0 1 0 0 3
Validated: 5
Substitution2: "'smcp' Lowercase to Small Capitals lookup 2-1" lslash.sc
EndChar

StartChar: Eng
Encoding: 330 330 262
Width: 776
Flags: W
HStem: -227 47<415.5 522.318> -3 29<38.7693 111.285 192.778 262.808> 634 29<39.2892 114.966 522.192 593.129 674.715 746.969>
VStem: 129 46<46.7508 568.502> 611 46<166 613.249>
LayerCount: 2
Back
Fore
SplineSet
595 38 m 1
 175 569 l 1
 175 115 l 2
 175 79 175 62 185 46 c 0
 191 36 244 26 260 26 c 1
 265 19 264 3 262 -3 c 1
 222 -1 192 2 148 2 c 0
 102 2 87 -1 41 -3 c 1
 38 2 36 15 41 26 c 1
 53 26 112 34 119 46 c 0
 128 61 129 76 129 114 c 2
 129 548 l 2
 129 586 128 601 119 616 c 0
 112 628 53 636 41 636 c 1
 36 647 38 660 41 665 c 1
 87 663 110 660 143 660 c 0
 173 660 205 661 219 662 c 1
 270 582 500 321 611 166 c 1
 611 224 l 1
 611 545 l 2
 611 581 611 598 601 614 c 0
 595 624 541 634 525 634 c 1
 520 641 521 657 523 663 c 1
 563 661 594 658 638 658 c 0
 684 658 699 661 745 663 c 1
 748 658 750 645 745 634 c 1
 733 634 674 626 667 614 c 0
 658 599 657 584 657 546 c 2
 657 121 l 2
 657 -129 558 -227 423 -227 c 0
 408 -227 372 -218 360 -209 c 1
 355 -204 352 -193 352 -186 c 0
 352 -155 368 -130 400 -130 c 0
 418 -130 434 -146 448 -159 c 0
 459 -169 476 -180 493 -180 c 0
 530 -180 583 -138 595 38 c 1
EndSplineSet
Validated: 1
Substitution2: "'c2sc' Capitals to Small Capitals in Latin lookup 0 subtable" eng.sc
EndChar

StartChar: eng
Encoding: 331 331 263
Width: 521
Flags: W
HStem: -3 29<33.4037 98.2898 186.71 251.596> 372 26<32.1812 93.4485> 380 58<255.761 342.184>
VStem: 104 77<32.4189 347.387> 374 77<-68.53 346.845>
LayerCount: 2
Back
Fore
SplineSet
374 46 m 2xb8
 374 46 374 216 374 216 c 2
 374 340 354 380 276 380 c 0xb8
 239 380 181 334 181 325 c 2
 181 325 181 116 181 116 c 2
 181 86 181 58 186 42 c 0
 189 31 237 26 249 26 c 1
 253 21 254 2 249 -3 c 1
 208 -1 181 2 142 2 c 0
 103 2 77 -1 36 -3 c 1
 31 2 32 21 36 26 c 1
 48 26 96 31 99 42 c 0
 104 58 104 86 104 116 c 2
 104 116 104 302 104 302 c 2
 104 315 104 342 99 354 c 0
 92 371 41 372 34 372 c 1
 32 374 30 393 34 398 c 1xd8
 85 405 137 419 177 440 c 1
 182 440 188 429 188 424 c 1
 187 417 182 375 182 367 c 0
 182 366 182 363 184 363 c 0
 185 363 186 364 187 365 c 0
 207 387 274 438 322 438 c 0
 430 438 451 371 451 226 c 1
 451 226 451 68 451 68 c 1
 451 -124 346 -203 278 -231 c 1
 273 -228 267 -221 265 -216 c 0
 264 -214 264 -210 265 -209 c 1
 322 -168 374 -120 374 46 c 2xb8
EndSplineSet
Validated: 1
Substitution2: "'smcp' Lowercase to Small Capitals lookup 2-1" eng.sc
EndChar

StartChar: OE
Encoding: 338 338 270
Width: 1017
Flags: W
HStem: -7 31<314.584 496.044> 0 34<642.612 865.606> 312 37<636 813.451> 408 20G<853.5 860.5> 624 33<639.721 863.774> 633 34<283.538 478.729>
VStem: 49 99<212.318 447.61> 549 87<66.3698 310.528 349.429 576.923> 842 32<230.002 289.298 372.014 427.976> 912 32<523.07 571.016>
LayerCount: 2
Back
SplineSet
358 633 m 0
 208 633 148 484 148 350 c 0
 148 195 234 24 389 24 c 1024
373 -10 m 0
 197 -10 49 130 49 328 c 0
 49 515 197 667 373 667 c 1024
EndSplineSet
Fore
SplineSet
594 0 m 8x7bc0
 548 0 505 -1 476 -3 c 0
 461 -4 388 -7 363 -7 c 0
 187 -7 49 141 49 328 c 0
 49 515 199 667 368 667 c 0xb7c0
 393 667 528 656 593 657 c 0
 687 657 806 664 915 664 c 1
 922 614 935 573 944 528 c 1
 941 525 933 523 926 523 c 0
 919 523 913 525 912 530 c 0
 890 610 849 624 796 624 c 2
 796 624 710 624 710 624 c 0
 698 624 644 623 641 613 c 0
 636 597 636 569 636 542 c 2
 636 542 636 355 636 355 c 2
 636 350 657 349 679 349 c 2
 679 349 732 349 732 349 c 2
 828 349 825 355 842 421 c 0
 843 426 850 428 857 428 c 0
 864 428 871 426 874 423 c 1
 874 423 874 234 874 234 c 1
 872 232 865 230 858 230 c 0
 851 230 844 233 842 238 c 0
 827 295 823 298 814 304 c 0
 803 311 746 312 708 312 c 0
 680 312 636 312 636 303 c 2
 636 303 636 113 636 113 c 2
 636 98 636 49 642 44 c 0
 655 34 671 34 713 34 c 2
 713 34 761 34 761 34 c 2
 808 34 859 44 887 61 c 0
 919 80 934 119 950 162 c 0
 951 166 957 168 964 168 c 0
 974 168 986 165 989 162 c 1
 970 108 942 40 935 -4 c 1
 826 -4 727 0 594 0 c 8x7bc0
357 633 m 0
 212 633 148 484 148 350 c 0
 148 195 233 24 388 24 c 0
 443 24 502 28 525 63 c 0
 549 99 549 133 549 187 c 2
 549 187 549 495 549 495 c 2
 549 530 543 563 514 593 c 0
 481 628 427 633 357 633 c 0
EndSplineSet
Validated: 33
EndChar

StartChar: oe
Encoding: 339 339 271
Width: 778
Flags: W
HStem: -8 64<539.292 669.098> -7 33<213.699 320.27> 248 37<464 649.487> 406 33<189.214 296.88 526.136 606.574>
VStem: 41 86<120.834 313.837> 382 77<142.863 244.017> 650 85<285.847 368.285>
LayerCount: 2
Back
Fore
SplineSet
568 402 m 0x3e
 484 402 462 285 464 285 c 0
 473 285 617 285 627 285 c 0
 639 285 649 290 650 308 c 0
 651 332 629 402 568 402 c 0x3e
243 406 m 0
 158 406 127 319 127 233 c 0
 127 136 176 26 266 26 c 0x7e
 351 26 382 113 382 198 c 0
 382 295 332 406 243 406 c 0
622 56 m 0xbe
 677 56 719 94 732 109 c 0
 733 109 740 103 740 95 c 0
 740 90 737 82 734 77 c 0
 716 48 666 -8 588 -8 c 0xbe
 516 -8 458 25 423 78 c 1
 385 26 325 -7 256 -7 c 0x7e
 124 -7 41 88 41 213 c 0
 41 342 133 439 254 439 c 0
 336 439 399 403 435 346 c 1
 475 403 533 438 585 438 c 0
 705 438 735 342 735 302 c 0
 735 273 730 256 711 255 c 0
 683 254 499 249 459 248 c 1
 459 101 550 56 622 56 c 0xbe
EndSplineSet
Validated: 33
Substitution2: "'smcp' Lowercase to Small Capitals lookup 2-1" oe.sc
EndChar

StartChar: Tbar
Encoding: 358 358 290
Width: 626
Flags: W
HStem: -3 29<193.404 264.252 362.748 433.596> 311 37<155.337 474.828> 626 35<95.8184 270 357 528.71>
VStem: 12 33<499.771 557.091> 270 87<32.7426 626> 580 33<499.771 557.091>
LayerCount: 2
Back
Fore
SplineSet
473 311 m 1
 444 311 171 311 157 311 c 1
 153 311 152 339 158 348 c 1
 187 348 459 348 473 348 c 1
 477 348 477 320 473 311 c 1
EndSplineSet
Refer: 51 84 N 1 0 0 1 0 0 3
Validated: 37
Substitution2: "'c2sc' Capitals to Small Capitals in Latin lookup 0 subtable" tbar.sc
EndChar

StartChar: tbar
Encoding: 359 359 291
Width: 311
Flags: W
HStem: -7 54<176.456 252.292> 268 40<22.1905 293.084> 391 41<27.9629 83 160 292.375>
VStem: 22 272 83 77<62.1149 391 432 519.684>
LayerCount: 2
Back
Fore
SplineSet
28 308 m 1xf0
 57 308 274 308 288 308 c 0
 292 308 294 303 294 298 c 3
 294 292 292 277 288 268 c 1
 259 268 41 268 27 268 c 0
 23 268 22 276 22 281 c 3
 22 287 22 299 28 308 c 1xf0
EndSplineSet
Refer: 83 116 N 1 0 0 1 0 0 3
Validated: 5
Substitution2: "'smcp' Lowercase to Small Capitals lookup 2-1" tbar.sc
EndChar

StartChar: Uogonek
Encoding: 370 370 302
Width: 723
Flags: W
HStem: -224 59<368.505 441.133> -4 58<281.017 448.113> 633 29<26.4037 97.2515 195.748 266.596 485.409 554.262 631.763 705.988>
VStem: 103 87<158.21 626.257> 310 54<-161.236 -83.2362> 570 46<156.61 613.249>
LayerCount: 2
Back
Fore
SplineSet
147 657 m 0
 186 657 223 660 264 662 c 1
 269 657 268 638 264 633 c 1
 252 633 198 628 195 617 c 0
 190 601 190 573 190 543 c 2
 190 296 l 2
 190 213 207 152 239 112 c 0
 270 73 317 54 376 54 c 0
 479 54 567 102 570 274 c 1
 570 545 l 2
 570 581 570 598 560 614 c 0
 554 624 504 634 488 634 c 1
 483 641 484 657 486 663 c 1
 526 661 553 658 597 658 c 0
 643 658 658 661 704 663 c 1
 707 658 709 645 704 634 c 1
 692 634 633 626 626 614 c 0
 617 599 616 584 616 546 c 2
 616 276 l 2
 616 147 578 87 501 29 c 0
 473 8 364 -68 364 -122 c 0
 364 -137 371 -165 405 -165 c 0
 456 -165 480 -127 486 -127 c 0
 487 -127 491 -132 491 -140 c 0
 491 -145 489 -153 486 -157 c 0
 464 -186 426 -224 381 -224 c 0
 325 -224 310 -174 310 -147 c 0
 310 -93 366 -31 419 2 c 1
 403 -3 373 -4 355 -4 c 0
 283 -4 221 20 177 62 c 0
 131 106 103 171 103 251 c 2
 103 543 l 2
 103 573 103 601 98 617 c 0
 95 628 41 633 29 633 c 1
 25 638 24 657 29 662 c 1
 70 660 108 657 147 657 c 0
EndSplineSet
Validated: 1
Substitution2: "'c2sc' Capitals to Small Capitals in Latin lookup 0 subtable" uogonek.sc
EndChar

StartChar: uogonek
Encoding: 371 371 303
Width: 507
Flags: W
HStem: -227 59<343.505 416.975> -7 61<194.445 278.477> 20 27<432.536 485.58> 414 20G<159.5 163 417.5 421>
VStem: 83 76<93.494 366.601> 285 54<-164.236 -87.7532> 341 76<82.3558 366.601>
LayerCount: 2
Back
Fore
SplineSet
417 341 m 2xde
 417 341 417 141 417 141 c 2
 417 130 418 93 424 65 c 0
 429 46 480 48 483 47 c 0
 485 46 486 39 486 36 c 0
 486 34 483 20 478 20 c 0xbe
 471 20 465 19 458 18 c 0
 419 12 339 -73 339 -125 c 0
 339 -140 346 -168 380 -168 c 0
 431 -168 455 -130 461 -130 c 0
 462 -130 466 -135 466 -143 c 0
 466 -148 464 -157 461 -161 c 0
 439 -190 401 -227 356 -227 c 0
 300 -227 285 -177 285 -150 c 0
 285 -107 341 -28 385 2 c 1
 368 -3 349 -8 349 -8 c 0
 344 -8 341 1 341 8 c 2
 341 8 341 59 341 59 c 2
 341 64 339 64 339 64 c 1
 311 34 259 -7 208 -7 c 0
 102 -7 83 109 83 179 c 2
 83 179 83 305 83 305 c 2
 83 313 82 345 69 359 c 1
 47 386 11 376 11 382 c 0
 11 383 12 406 17 407 c 0
 62 414 118 422 155 433 c 0
 156 433 159 434 160 434 c 0
 166 434 166 418 165 413 c 0
 161 381 159 373 159 339 c 2
 159 339 159 204 159 204 c 2
 159 103 187 54 257 54 c 0
 301 54 341 98 341 118 c 2
 341 118 341 305 341 305 c 2
 341 313 340 345 327 359 c 1
 305 386 269 376 269 382 c 0
 269 383 270 406 275 407 c 0
 320 414 376 422 413 433 c 0
 414 433 417 434 418 434 c 0
 424 434 424 418 423 413 c 0
 419 381 417 375 417 341 c 2xde
EndSplineSet
Validated: 1
Substitution2: "'smcp' Lowercase to Small Capitals lookup 2-1" uogonek.sc
EndChar

StartChar: uni021A
Encoding: 538 538 318
Width: 627
Flags: W
HStem: -227 181<302 370> -3 29<194.404 265.252 363.748 434.596> 626 35<96.8184 271 358 529.71>
VStem: 13 33<499.771 557.091> 271 87<32.7426 626> 328 64<-171.345 -91> 581 33<499.771 557.091>
LayerCount: 2
Back
Fore
SplineSet
291 -101 m 0xf6
 291 -76 310 -46 370 -46 c 1
 382 -56 392 -83 392 -99 c 0
 392 -168 340 -208 310 -225 c 0
 309 -226 306 -227 302 -227 c 0
 289 -227 282 -223 282 -220 c 0
 282 -215 328 -185 328 -161 c 0
 328 -134 291 -131 291 -101 c 0xf6
EndSplineSet
Refer: 51 84 N 1 0 0 1 1 0 2
Validated: 1
Substitution2: "'c2sc' Capitals to Small Capitals in Latin lookup 0 subtable" uni021B.sc
EndChar

StartChar: uni021B
Encoding: 539 539 319
Width: 312
Flags: W
HStem: -227 181<130 198> -7 54<177.456 253.292> 391 41<28.9629 84 161 293.375>
VStem: 84 77<62.1149 391 432 519.684> 156 64<-171.345 -91>
LayerCount: 2
Back
Fore
SplineSet
119 -101 m 0xe8
 119 -76 138 -46 198 -46 c 1
 210 -56 220 -83 220 -99 c 0
 220 -168 168 -208 138 -225 c 0
 137 -226 134 -227 130 -227 c 0
 117 -227 110 -223 110 -220 c 0
 110 -215 156 -185 156 -161 c 0
 156 -134 119 -131 119 -101 c 0xe8
EndSplineSet
Refer: 83 116 N 1 0 0 1 1 0 2
Validated: 1
Substitution2: "'smcp' Lowercase to Small Capitals lookup 2-1" uni021B.sc
EndChar

StartChar: uni0237
Encoding: 567 567 320
Width: 239
Flags: W
HStem: 372 26<20.1812 81.4485> 420 20G<145 167.5>
VStem: 92 77<-68.5639 365.708>
LayerCount: 2
Back
Fore
SplineSet
92 45 m 2
 92 45 92 302 92 302 c 2
 92 315 92 342 87 354 c 0
 80 371 29 372 22 372 c 1
 20 374 18 393 22 398 c 1
 73 405 125 419 165 440 c 1
 170 440 176 429 176 424 c 1
 175 417 169 371 169 358 c 2
 169 358 169 324 169 324 c 0
 169 324 169 68 169 68 c 1
 169 -124 64 -203 -4 -231 c 1
 -9 -228 -15 -221 -17 -216 c 0
 -18 -214 -18 -210 -17 -209 c 1
 40 -168 92 -121 92 45 c 2
EndSplineSet
Validated: 1
EndChar

StartChar: gravecomb
Encoding: 768 768 332
Width: 0
GlyphClass: 4
Flags: W
HStem: 498 160
VStem: -350 160
LayerCount: 2
Back
Fore
SplineSet
-314 658 m 0
 -300 658 -288 651 -287 650 c 0
 -255 610 -190 517 -190 511 c 0
 -190 505 -192 498 -199 498 c 0
 -209 498 -350 597 -350 629 c 0
 -350 634 -349 658 -314 658 c 0
EndSplineSet
Validated: 1
EndChar

StartChar: acutecomb
Encoding: 769 769 333
Width: 0
GlyphClass: 4
Flags: W
HStem: 498 160
VStem: -320 160
LayerCount: 2
Back
Fore
SplineSet
-196 658 m 0
 -161 658 -160 634 -160 629 c 0
 -160 597 -301 498 -311 498 c 0
 -318 498 -320 505 -320 511 c 0
 -320 517 -255 610 -223 650 c 0
 -222 651 -210 658 -196 658 c 0
EndSplineSet
Validated: 1
EndChar

StartChar: uni0302
Encoding: 770 770 334
Width: 0
GlyphClass: 4
Flags: W
HStem: 497 154
VStem: -365 210
LayerCount: 2
Back
Fore
SplineSet
-260 651 m 0
 -256 651 -252 647 -249 642 c 0
 -215 587 -194 561 -155 510 c 1
 -155 503 -161 497 -166 497 c 1
 -204 528 -260 573 -260 573 c 25
 -260 573 -319 525 -354 497 c 1
 -359 497 -365 503 -365 510 c 1
 -326 561 -305 587 -271 642 c 0
 -268 647 -264 651 -260 651 c 0
EndSplineSet
Validated: 1
EndChar

StartChar: tildecomb
Encoding: 771 771 335
Width: 0
GlyphClass: 4
Flags: W
HStem: 498 45<-237.358 -146.566> 545 45<-351.215 -260.562>
VStem: -375 255
LayerCount: 2
Back
Fore
SplineSet
-301 590 m 0
 -276 590 -258 578 -240 567 c 0
 -221 555 -196 543 -182 543 c 0
 -146 543 -133 578 -126 582 c 1
 -120 582 -120 577 -120 573 c 0
 -120 560 -128 544 -134 535 c 0
 -151 512 -172 498 -196 498 c 0
 -221 498 -238 509 -256 520 c 0
 -275 532 -297 545 -315 545 c 0
 -351 545 -360 510 -367 506 c 1
 -373 506 -375 513 -375 517 c 0
 -375 530 -369 545 -363 554 c 0
 -346 577 -325 590 -301 590 c 0
EndSplineSet
Validated: 1
EndChar

StartChar: uni0304
Encoding: 772 772 336
Width: 0
GlyphClass: 4
Flags: W
HStem: 498 42<-374.462 -146.479>
LayerCount: 2
Back
Fore
SplineSet
-151 498 m 1
 -197 498 -300 498 -375 498 c 1
 -385 502 -378 534 -369 540 c 9
 -282 540 -232 540 -145 540 c 1
 -138 535 -141 509 -151 498 c 1
EndSplineSet
Validated: 33
EndChar

StartChar: uni0305
Encoding: 773 773 337
Width: 0
GlyphClass: 4
Flags: W
HStem: 739 63<-589 -9>
LayerCount: 2
Back
Fore
SplineSet
-595 749 m 0
 -595 751 -592 802 -581 802 c 2
 1 802 l 2
 3 802 7 801 7 793 c 0
 7 775 0 750 -1 746 c 0
 -3 740 -9 739 -9 739 c 1
 -589 739 l 1
 -589 739 -595 739 -595 749 c 0
EndSplineSet
Validated: 1
EndChar

StartChar: uni0306
Encoding: 774 774 338
Width: 0
GlyphClass: 4
Flags: W
HStem: 497 46<-316.932 -201.068>
VStem: -368 22<598.095 615.805> -172 22<597.096 615.805>
LayerCount: 2
Back
Fore
SplineSet
-259 543 m 0
 -217 543 -182 572 -172 615 c 0
 -172 617 -170 618 -168 618 c 0
 -162 618 -150 610 -150 605 c 0
 -150 604 -151 599 -151 597 c 0
 -160 544 -205 497 -259 497 c 0
 -313 497 -358 541 -367 598 c 0
 -367 600 -368 604 -368 605 c 0
 -368 610 -356 618 -350 618 c 0
 -348 618 -346 617 -346 615 c 0
 -336 572 -301 543 -259 543 c 0
EndSplineSet
Validated: 1
EndChar

StartChar: uni0307
Encoding: 775 775 339
Width: 0
GlyphClass: 4
Flags: W
HStem: 498 100<-296.562 -213.438>
VStem: -305 100<506.438 589.562>
LayerCount: 2
Back
Fore
SplineSet
-305 548 m 0
 -305 576 -283 598 -255 598 c 0
 -227 598 -205 576 -205 548 c 0
 -205 520 -227 498 -255 498 c 0
 -283 498 -305 520 -305 548 c 0
EndSplineSet
Validated: 1
EndChar

StartChar: uni0308
Encoding: 776 776 340
Width: 0
GlyphClass: 4
Flags: W
HStem: 498 92<-381.358 -302.642 -198.358 -119.642>
VStem: -389 94<505.646 582.037> -206 94<505.646 582.037>
LayerCount: 2
Back
Fore
SplineSet
-158 590 m 0
 -133 590 -112 568 -112 543 c 0
 -112 518 -134 498 -159 498 c 0
 -184 498 -206 519 -206 544 c 0
 -206 569 -183 590 -158 590 c 0
-341 590 m 0
 -316 590 -295 568 -295 543 c 0
 -295 518 -317 498 -342 498 c 0
 -367 498 -389 519 -389 544 c 0
 -389 569 -366 590 -341 590 c 0
EndSplineSet
Validated: 1
EndChar

StartChar: hookabovecomb
Encoding: 777 777 341
Width: 0
GlyphClass: 4
Flags: W
HStem: 643 29<-270.742 -219.775>
VStem: -321 46<587.661 639.444> -291 42<507.096 553.298> -215 41<580.096 641.757>
LayerCount: 2
Back
Fore
SplineSet
-228 672 m 0xd0
 -193 672 -174 651 -174 621 c 0
 -174 588 -202 565 -225 555 c 0
 -243 547 -249 542 -249 530 c 0
 -249 522 -244 514 -241 511 c 1
 -241 506 -252 497 -257 497 c 1
 -263 499 -291 510 -291 530 c 0xb0
 -291 555 -261 567 -246 574 c 0
 -226 583 -215 594 -215 611 c 0
 -215 627 -225 643 -243 643 c 0
 -263 643 -275 634 -275 607 c 0
 -275 592 -293 587 -305 587 c 0
 -312 587 -321 591 -321 596 c 0
 -321 630 -271 672 -228 672 c 0xd0
EndSplineSet
Validated: 1
EndChar

StartChar: uni030A
Encoding: 778 778 342
Width: 0
GlyphClass: 4
Flags: W
HStem: 498 34<-293.32 -217.027> 643 34<-294.737 -216.575>
VStem: -343 33<548.832 626.822> -201 33<548.832 626.822>
LayerCount: 2
Back
Fore
SplineSet
-310 588 m 0
 -310 557 -285 532 -255 532 c 0
 -225 532 -201 557 -201 588 c 0
 -201 619 -225 643 -255 643 c 0
 -285 643 -310 619 -310 588 c 0
-343 588 m 0
 -343 637 -303 677 -255 677 c 0
 -207 677 -168 637 -168 588 c 0
 -168 539 -207 498 -255 498 c 0
 -303 498 -343 539 -343 588 c 0
EndSplineSet
Validated: 1
EndChar

StartChar: uni030C
Encoding: 780 780 344
Width: 0
GlyphClass: 4
Flags: W
HStem: 497 154
VStem: -360 210
LayerCount: 2
Back
Fore
SplineSet
-255 497 m 0
 -259 497 -263 501 -266 506 c 0
 -300 561 -321 587 -360 638 c 1
 -360 645 -354 651 -349 651 c 1
 -310 617 -255 568 -255 568 c 25
 -255 568 -200 617 -161 651 c 1
 -156 651 -150 645 -150 638 c 1
 -189 587 -210 561 -244 506 c 0
 -247 501 -251 497 -255 497 c 0
EndSplineSet
Validated: 1
EndChar

StartChar: uni0312
Encoding: 786 786 345
Width: 0
GlyphClass: 4
Flags: W
HStem: 498 181<-285 -217>
VStem: -307 64<543 622.267>
LayerCount: 2
Back
Fore
SplineSet
-206 553 m 0
 -206 528 -225 498 -285 498 c 1
 -297 508 -307 535 -307 551 c 0
 -307 620 -250 664 -225 677 c 0
 -224 678 -221 679 -217 679 c 0
 -204 679 -197 675 -197 672 c 0
 -197 667 -243 637 -243 613 c 0
 -243 586 -206 583 -206 553 c 0
EndSplineSet
Validated: 1
EndChar

StartChar: uni0315
Encoding: 789 789 346
Width: 0
GlyphClass: 4
Flags: W
HStem: 461 213
VStem: -245 58<529.479 628.5>
LayerCount: 2
Back
Fore
SplineSet
-223 674 m 0
 -216 674 -207 671 -201 668 c 1
 -195 658 -187 645 -187 612 c 0
 -187 562 -217 505 -257 461 c 1
 -263 461 -276 467 -276 472 c 1
 -258 495 -245 523 -245 553 c 0
 -245 600 -273 598 -273 632 c 0
 -273 650 -254 674 -223 674 c 0
EndSplineSet
Validated: 1
EndChar

StartChar: uni0326
Encoding: 806 806 348
Width: 0
GlyphClass: 4
Flags: W
HStem: -229 183
VStem: -272 63<-164.919 -88.5>
LayerCount: 2
Back
Fore
SplineSet
-251 -46 m 0
 -239 -46 -227 -50 -219 -55 c 1
 -213 -64 -209 -81 -209 -96 c 0
 -209 -155 -257 -207 -308 -229 c 1
 -316 -227 -324 -218 -324 -214 c 1
 -310 -207 -272 -178 -272 -148 c 0
 -272 -127 -307 -131 -307 -90 c 0
 -307 -81 -296 -46 -251 -46 c 0
EndSplineSet
Validated: 1
EndChar

StartChar: uni0327
Encoding: 807 807 349
Width: 0
GlyphClass: 4
Flags: W
HStem: -152 24<-296.951 -232.613> -61 34<-255 -227.586>
VStem: -223 37<-122.34 -64.0801>
LayerCount: 2
Back
Fore
SplineSet
-255 -27 m 1
 -230 -27 l 2
 -204 -27 -186 -50 -186 -76 c 0
 -186 -123 -228 -152 -280 -152 c 0
 -292 -152 -308 -147 -314 -143 c 1
 -315 -138 -317 -135 -317 -129 c 0
 -317 -122 -309 -115 -303 -115 c 0
 -291 -115 -282 -128 -266 -128 c 0
 -238 -128 -223 -112 -223 -95 c 0
 -223 -71 -241 -61 -254 -61 c 0
 -265 -61 -270 -64 -280 -68 c 0
 -282 -68 -292 -59 -290 -55 c 0
 -281 -40 -266 -18 -258 -4 c 1
 -237 -4 l 1
 -255 -27 l 1
EndSplineSet
Validated: 1
EndChar

StartChar: uni0328
Encoding: 808 808 350
Width: 0
GlyphClass: 4
Flags: W
HStem: -218 59<-276.495 -203.867>
VStem: -335 54<-155.236 -80.9335>
LayerCount: 2
Back
Fore
SplineSet
-181 42 m 0
 -164 42 -140 37 -152 25 c 0
 -175 3 -281 -52 -281 -116 c 0
 -281 -131 -274 -159 -240 -159 c 0
 -189 -159 -165 -121 -159 -121 c 0
 -158 -121 -154 -126 -154 -134 c 0
 -154 -139 -156 -147 -159 -151 c 0
 -181 -180 -219 -218 -264 -218 c 0
 -320 -218 -335 -168 -335 -141 c 0
 -335 -75 -210 42 -181 42 c 0
EndSplineSet
Validated: 33
EndChar

StartChar: alpha
Encoding: 945 945 351
Width: 503
Flags: W
HStem: -9 39<116.242 191.019> -3 75<350.063 438.184> 369 68<186.335 268.912>
VStem: 41 60<54.7024 241.37> 296 34<279 339.3> 385 56<376.453 403.439>
LayerCount: 2
Back
Fore
SplineSet
330 133 m 1xbc
 340 78 360 72 385 72 c 0
 419 72 458 106 463 117 c 1
 471 114 476 99 476 94 c 1
 476 86 447 -3 397 -3 c 0x7c
 355 -3 313 54 308 103 c 1
 262 37 234 -9 171 -9 c 0
 92 -9 41 48 41 163 c 0
 41 235 89 437 217 437 c 0
 267 437 326 372 326 279 c 1
 353 345 374 407 385 436 c 1
 402 436 441 410 441 382 c 0
 441 355 420 302 403 266 c 0
 379 216 330 133 330 133 c 1xbc
235 369 m 0
 157 369 101 219 101 115 c 0
 101 53 124 30 145 30 c 0xbc
 215 30 296 186 296 219 c 1
 296 298 289 369 235 369 c 0
EndSplineSet
Validated: 1
EndChar

StartChar: beta
Encoding: 946 946 352
Width: 473
Flags: W
HStem: -228 21G<129 137> -6 64<211.224 332.719> 302 66<200.281 245.412> 638 55<188.82 304.288>
VStem: 72 63<-209.944 230.458> 72 51<155.054 544.913> 327 41<461.397 612.525> 380 53<108.812 283.217>
LayerCount: 2
Back
Fore
SplineSet
166 94 m 1xf7
 173 88 210 58 262 58 c 0
 328 58 380 98 380 206 c 0
 380 272 335 332 302 339 c 0
 298 340 294 336 290 334 c 1
 264 311 241 304 228 302 c 1
 222 305 210 312 202 322 c 24
 195 331 191 338 191 350 c 0
 191 357 197 363 207 368 c 0
 289 406 327 472 327 552 c 0
 327 602 299 638 251 638 c 0
 153 638 123 520 123 376 c 0xf7
 123 330 134 59 135 0 c 0
 136 -70 149 -190 157 -211 c 1
 150 -221 142 -228 132 -228 c 0
 126 -228 72 -207 72 -192 c 2xfb
 72 -192 72 401 72 401 c 2
 72 602 135 693 237 693 c 0
 340 693 368 592 368 510 c 0
 368 461 350 405 321 368 c 1
 383 342 433 282 433 178 c 0
 433 72 372 -6 281 -6 c 0
 213 -6 172 49 163 69 c 1
 161 76 162 89 166 94 c 1xf7
EndSplineSet
Validated: 1
EndChar

StartChar: gamma
Encoding: 947 947 353
Width: 452
Flags: W
HStem: -226 21G<195.5 209.5> 362 71<37.9092 137.482>
VStem: 152 81<-204.556 -71.7344> 212 26<83 185.962> 363 51<310.92 416.603>
LayerCount: 2
Back
Fore
SplineSet
0 353 m 5xd8
 13 397 53 433 93 433 c 4
 182 432 221 292 235 155 c 4
 236 142 238 88 238 83 c 5xd8
 274 156 306 212 334 290 c 4
 356 352 363 408 363 422 c 4
 363 428 372 436 374 436 c 4
 388 436 414 373 414 355 c 4
 414 333 407 292 379 226 c 4
 343 142 270 20 248 -16 c 5
 245 -34 242 -138 233 -197 c 4
 230 -215 216 -226 203 -226 c 4
 188 -226 152 -183 152 -164 c 4xe8
 152 -146 183 -34 212 40 c 5
 212 44 210 103 207 132 c 4
 185 341 122 362 78 362 c 4
 52 362 19 343 12 334 c 5
 6 334 0 347 0 353 c 5xd8
EndSplineSet
Validated: 1
EndChar

StartChar: delta
Encoding: 948 948 354
Width: 423
Flags: W
HStem: -6 53<127.422 256.932>
VStem: 41 52<93.2023 264.795> 88 65<570.973 659> 322 62<116.729 278.304>
LayerCount: 2
Back
Fore
SplineSet
88 650 m 0xb0
 88 668 114 696 159 690 c 0
 228 681 337 573 357 541 c 0
 367 525 374 504 374 493 c 0
 374 489 366 479 364 482 c 1
 339 518 226 624 170 624 c 0
 157 624 153 617 153 607 c 0xb0
 153 565 178 524 250 438 c 0
 306 372 384 289 384 178 c 0
 384 82 324 -6 211 -6 c 0
 76 -6 41 126 41 200 c 0xd0
 41 340 103 392 164 422 c 1
 185 420 213 419 232 408 c 1
 163 492 88 569 88 650 c 0xb0
253 376 m 1
 176 376 93 277 93 169 c 0xd0
 93 99 121 47 191 47 c 0
 256 47 322 103 322 217 c 0
 322 284 292 335 253 376 c 1
EndSplineSet
Validated: 33
EndChar

StartChar: epsilon
Encoding: 949 949 355
Width: 349
Flags: W
HStem: -5 59<95.3569 258.776> 198 62<144.99 236.855> 374 61<126.179 264.271>
VStem: 43 38<69.4015 149.858> 51 46<250.815 345.274>
LayerCount: 2
Back
Fore
SplineSet
293 363 m 1xe8
 278 369 257 374 231 374 c 0
 156 374 97 357 97 295 c 0xe8
 97 265 127 239 144 238 c 1
 165 247 194 260 219 260 c 0
 225 260 234 258 237 256 c 1
 248 246 260 231 260 215 c 0
 260 212 260 198 252 198 c 0
 181 198 81 170 81 109 c 0
 81 67 120 54 155 54 c 0
 223 54 281 83 319 110 c 1
 323 110 325 106 325 102 c 0
 325 95 323 84 321 77 c 1
 305 42 257 -5 179 -5 c 0
 99 -5 43 42 43 112 c 0xf0
 43 162 77 199 110 218 c 1
 75 232 51 273 51 308 c 0
 51 384 111 435 178 435 c 0
 236 435 279 407 294 390 c 1
 296 384 297 368 293 363 c 1xe8
EndSplineSet
Validated: 1
EndChar

StartChar: zeta
Encoding: 950 950 356
Width: 382
VWidth: 295
Flags: W
HStem: -3 71<101.527 299.06> 12 74<162.556 329.036> 673 20G<343 363.5> 674 10<172.74 179.488>
VStem: 47 38<88.6727 252.782> 78 60<571.813 651.768> 330 47<-45.845 42>
LayerCount: 2
Back
Fore
SplineSet
301 -104 m 1x4a
 297 -104 280 -103 280 -93 c 1
 298 -83 330 -53 330 -14 c 0
 330 6 312 12 293 12 c 3x4a
 275 12 253 8 229 4 c 0
 206 0 182 -3 158 -3 c 3
 72 -3 47 52 47 132 c 1x8a
 47 254 110 396 193 536 c 1
 193 536 78 544 78 606 c 0
 78 662 156 681 166 684 c 1
 176 684 180 679 180 674 c 1
 161 664 138 629 138 608 c 0x96
 138 567 188 559 209 559 c 1
 260 629 329 693 357 693 c 0
 370 693 387 656 387 645 c 0
 387 630 385 622 366 608 c 0
 350 596 307 566 281 546 c 0
 213 492 85 282 85 153 c 0
 85 72 131 68 165 68 c 3xaa
 186 68 211 72 236 77 c 0
 260 81 285 86 307 86 c 3
 357 86 377 56 377 28 c 0
 377 -34 329 -86 301 -104 c 1x4a
EndSplineSet
Validated: 1
EndChar

StartChar: eta
Encoding: 951 951 357
Width: 488
Flags: W
HStem: -227 21G<410.5 419.5> -6 21G<162 173> 362 71<51.1115 131.056 276.434 363.365>
VStem: 111 80<9.07266 167.851> 379 38<81.9445 344.041>
LayerCount: 2
Back
Fore
SplineSet
26 332 m 1
 21 332 13 345 13 353 c 1
 26 397 66 433 106 433 c 0
 154 432 167 365 176 301 c 1
 206 371 250 440 316 440 c 0
 374 440 410 379 417 290 c 0
 426 171 418 -130 440 -209 c 1
 435 -217 424 -227 415 -227 c 0
 406 -227 351 -198 352 -182 c 0
 356 -110 379 87 379 266 c 0
 379 324 361 363 326 363 c 0
 269 363 217 272 191 190 c 1
 191 166 191 159 191 136 c 0
 191 123 190 52 191 14 c 1
 186 6 179 -6 167 -6 c 0
 157 -6 111 18 111 31 c 0
 111 49 118 99 137 188 c 0
 138 194 151 247 151 247 c 1
 151 328 129 362 83 362 c 0
 57 362 33 341 26 332 c 1
EndSplineSet
Validated: 33
EndChar

StartChar: theta
Encoding: 952 952 358
Width: 468
VWidth: 390
Flags: W
HStem: -5 39<178.265 262.696> 329 40<124.965 350.905> 656 39<211.941 294.703>
VStem: 47 74<176.48 325.203 371.207 491.204> 352 71<185.215 325.203 373.063 511.521>
LayerCount: 2
Back
Fore
SplineSet
234 369 m 0
 268 369 325 372 353 375 c 1
 350 491 335 656 253 656 c 0
 186 656 136 519 124 373 c 1
 144 370 202 369 234 369 c 0
237 695 m 0
 345 695 423 531 423 354 c 0
 423 161 345 -5 237 -5 c 0
 129 -5 47 147 47 340 c 0
 47 533 129 695 237 695 c 0
352 323 m 1
 329 326 283 329 234 329 c 0
 187 329 145 327 121 322 c 1
 121 320 121 319 121 317 c 0
 121 201 138 34 219 34 c 0
 292 34 344 162 352 323 c 1
EndSplineSet
Validated: 1
EndChar

StartChar: iota
Encoding: 953 953 359
Width: 227
Flags: W
HStem: -3 60<107.5 182.536> 413 20G<87 95>
VStem: 67 78<146.823 416.534> 67 59<62.6073 332.586>
LayerCount: 2
Back
Fore
SplineSet
126 -3 m 3xd0
 89 -3 67 28 67 89 c 0xd0
 67 112 67 288 67 416 c 17
 74 426 82 433 92 433 c 0
 98 433 145 407 145 392 c 1xe0
 137 280 126 206 126 106 c 4
 126 59 162 57 174 57 c 4
 186 57 195 58 202 62 c 5
 207 58 209 53 209 48 c 5
 205 38 169 -3 126 -3 c 3xd0
EndSplineSet
Validated: 1
EndChar

StartChar: kappa
Encoding: 954 954 360
Width: 474
Flags: W
HStem: -4 66<330.059 421.19> 362 71<53.1115 126.219> 386 50<341.41 421.762>
VStem: 96 87<15.4237 139.57>
LayerCount: 2
Back
Fore
SplineSet
446 49 m 1xb0
 436 32 412 -4 358 -4 c 0
 284 -4 212 137 189 195 c 1
 188 193 184 182 184 180 c 0
 184 172 183 171 183 148 c 0
 183 98 177 44 173 14 c 1
 168 6 161 -6 149 -6 c 0
 139 -6 96 18 96 31 c 0
 96 49 108 104 129 180 c 0
 131 186 143 241 143 241 c 1
 143 322 131 362 85 362 c 0
 59 362 35 341 28 332 c 1
 23 332 15 346 15 353 c 1
 28 397 68 433 108 433 c 0xd0
 156 432 159 342 168 278 c 1
 198 348 278 436 348 436 c 0
 364 436 436 416 436 399 c 0
 436 396 436 388 435 386 c 1
 323 386 247 301 209 228 c 1
 237 159 326 62 393 62 c 0
 423 62 440 74 445 77 c 1
 450 73 449 58 446 49 c 1xb0
EndSplineSet
Validated: 1
EndChar

StartChar: lambda
Encoding: 955 955 361
Width: 482
VWidth: 255
Flags: W
HStem: -3 61<382.611 456.131> 618 78<119.805 178.603>
VStem: 82 13<599.201 602.391>
LayerCount: 2
Back
Fore
SplineSet
95 595 m 5
 90 595 82 608 82 616 c 5
 95 660 135 696 175 696 c 4
 251 696 276 492 294 354 c 4
 309 237 331 162 346 129 c 4
 381 54 433 58 446 58 c 4
 457 58 466 64 470 68 c 5
 474 68 478 54 478 46 c 5
 473 38 448 -3 405 -3 c 4
 306 -3 282 207 265 302 c 5
 234 239 135 72 103 30 c 4
 84 5 75 -4 48 -4 c 4
 29 -4 3 14 0 32 c 5
 51 52 169 273 245 424 c 5
 234 540 181 618 135 618 c 4
 113 618 102 604 95 595 c 5
EndSplineSet
Validated: 33
EndChar

StartChar: mu
Encoding: 956 956 362
Width: 493
Flags: W
HStem: -227 21G<103 114> -4 70<143.214 220.762 374.495 441.925> 417 20G<90 101 321 332>
VStem: 72 77<250.141 422.656> 72 43<108.623 223> 303 77<250.141 422.656>
LayerCount: 2
Back
Fore
SplineSet
468 96 m 1xf4
 473 96 480 82 480 76 c 1
 467 32 427 -4 387 -4 c 0
 339 -3 324 115 322 142 c 1
 292 72 255 -9 178 -9 c 0
 136 -9 120 71 115 101 c 1xec
 117 76 110 -89 132 -207 c 1
 127 -215 120 -227 108 -227 c 0
 98 -227 55 -203 55 -190 c 0
 55 -172 64 100 76 204 c 1
 76 228 72 275 72 298 c 0
 72 311 73 379 72 417 c 1
 77 425 84 437 96 437 c 0
 106 437 149 413 149 400 c 0
 149 382 145 335 126 246 c 0
 125 240 121 223 121 223 c 0
 121 144 136 64 172 64 c 0
 226 64 278 155 303 227 c 1
 303 251 303 275 303 298 c 0
 303 311 304 379 303 417 c 1
 308 425 315 437 327 437 c 0
 337 437 380 413 380 400 c 0
 380 382 371 335 357 246 c 0
 355 236 347 195 347 195 c 1
 347 124 371 66 417 66 c 0
 443 66 461 87 468 96 c 1xf4
EndSplineSet
Validated: 33
EndChar

StartChar: nu
Encoding: 957 957 363
Width: 416
Flags: W
HStem: -4 21G<178 220.5> 416 20G<364.5 368.5>
VStem: 164 33<109.955 208.803> 358 23<367.004 432.416>
LayerCount: 2
Back
Fore
SplineSet
9 346 m 1
 4 346 0 366 2 372 c 1
 22 415 58 444 99 432 c 0
 170 411 196 286 196 188 c 0
 196 154 197 125 197 111 c 1
 197 110 200 109 201 110 c 1
 283 190 344 312 358 422 c 1
 359 427 363 436 366 436 c 1
 371 436 381 406 381 372 c 1
 381 268 261 -4 180 -4 c 0
 176 -4 164 3 164 10 c 1
 164 163 157 337 63 364 c 0
 41 370 17 354 9 346 c 1
EndSplineSet
Validated: 33
EndChar

StartChar: xi
Encoding: 958 958 364
Width: 402
VWidth: 295
Flags: W
HStem: -4 69<87.7573 285.581> 12 74<133.244 315.559> 305 79<254.234 340.173> 672 20G<147 157>
VStem: 43 37<73.5154 178.39> 72 63<590.082 658.471> 72 50<344.755 458.988> 316 46<-46.5344 42.5>
LayerCount: 2
Back
Fore
SplineSet
80 119 m 0xb9
 80 93 92 65 123 65 c 0xb9
 152 65 181 70 209 75 c 0
 239 81 268 86 293 86 c 0
 341 86 362 57 362 28 c 0
 362 -38 310 -89 288 -104 c 1
 282 -104 266 -100 266 -90 c 1
 280 -82 316 -56 316 -14 c 0
 316 5 301 12 280 12 c 0x79
 266 12 243 8 219 4 c 0
 193 0 165 -4 141 -4 c 0
 74 -4 43 46 43 112 c 0xb9
 43 187 89 263 147 301 c 1
 117 312 72 346 72 412 c 0xb3
 72 489 130 545 147 560 c 1
 147 560 72 562 72 610 c 0
 72 666 142 689 152 692 c 1
 162 692 169 686 169 681 c 1
 153 672 135 641 135 626 c 0xb5
 135 599 154 586 174 586 c 1
 241 640 292 673 331 673 c 0
 355 673 358 632 358 621 c 0
 358 601 294 569 248 557 c 1
 207 533 122 467 122 392 c 0xb3
 122 358 151 329 184 329 c 1
 227 353 294 384 325 384 c 0
 338 384 348 380 348 368 c 0
 348 341 337 313 327 305 c 1
 246 293 80 225 80 119 c 0xb9
EndSplineSet
Validated: 1
EndChar

StartChar: omicron
Encoding: 959 959 365
Width: 465
Flags: W
HStem: -7 60<149.558 288.778> 375 62<175.965 309.699>
VStem: 41 55<113.863 285.496> 367 57<143.343 306.814>
LayerCount: 2
Back
Fore
SplineSet
96 189 m 0
 96 93 153 53 213 53 c 0
 304 53 367 134 367 243 c 0
 367 327 319 375 249 375 c 0
 157 375 96 286 96 189 c 0
41 221 m 0
 41 352 114 437 225 437 c 0
 341 437 424 325 424 201 c 0
 424 86 351 -7 239 -7 c 0
 111 -7 41 107 41 221 c 0
EndSplineSet
Validated: 1
EndChar

StartChar: pi
Encoding: 960 960 366
Width: 474
VWidth: 255
Flags: W
HStem: -3 63<377.772 437.903> 348 73<336 450.347> 362 72<73.5 172>
VStem: 305 31<166.272 350>
LayerCount: 2
Back
Fore
SplineSet
172 362 m 1xb0
 89 362 63 342 46 306 c 1
 43 303 36 303 31 305 c 1
 29 310 27 326 27 336 c 3
 27 421 109 434 153 434 c 0xb0
 239 434 268 421 366 421 c 0
 423 421 456 433 468 444 c 1
 473 444 485 440 486 435 c 1
 486 428 469 348 386 348 c 0xd0
 374 348 361 348 336 350 c 1
 340 285 346 186 358 125 c 0
 368 74 401 60 423 60 c 0
 435 60 449 65 455 69 c 1
 459 66 462 57 462 52 c 1
 462 44 428 -3 391 -3 c 3
 344 -3 320 38 315 88 c 0
 306 175 304 290 305 353 c 1
 274 356 237 358 205 360 c 1
 199 290 169 32 147 0 c 1
 140 -2 132 -3 126 -3 c 0
 102 -3 73 29 73 37 c 1
 122 125 155 194 172 362 c 1xb0
EndSplineSet
Validated: 33
EndChar

StartChar: rho
Encoding: 961 961 367
Width: 466
Flags: W
HStem: -228 21G<119 127> -6 62<170.629 292.538> 375 62<183.935 311.099>
VStem: 63 52<-154.738 67 87.7034 287.275> 369 57<140.948 312.658>
LayerCount: 2
Back
Fore
SplineSet
147 -211 m 1
 140 -221 132 -228 122 -228 c 0
 116 -228 62 -207 62 -192 c 2
 62 -192 60 225 63 252 c 0
 78 376 145 437 223 437 c 0
 344 437 426 332 426 206 c 0
 426 83 353 -6 251 -6 c 0
 182 -6 134 39 116 67 c 1
 116 -40 139 -190 147 -211 c 1
225 56 m 0
 296 56 369 122 369 240 c 0
 369 352 299 375 251 375 c 0
 150 375 115 264 115 164 c 0
 115 150 116 122 119 116 c 0
 130 92 152 56 225 56 c 0
EndSplineSet
Validated: 33
EndChar

StartChar: sigma1
Encoding: 962 962 368
Width: 409
VWidth: 295
Flags: W
HStem: -3 70<101.392 289.119> 14 74<159.135 323.02> 370 68<189.235 319.074>
VStem: 43 39<89.3609 247.773> 324 47<-46.8488 46.5>
LayerCount: 2
Back
Fore
SplineSet
353 350 m 1xb8
 346 353 313 370 275 370 c 3
 175 370 82 290 82 147 c 0
 82 80 127 67 161 67 c 3xb8
 202 67 251 88 297 88 c 3
 347 88 371 64 371 29 c 0
 371 -39 323 -84 295 -104 c 1
 291 -104 274 -103 274 -93 c 1
 292 -83 324 -52 324 -13 c 0
 324 8 304 14 285 14 c 3x78
 251 14 203 -3 153 -3 c 3
 67 -3 43 54 43 159 c 0
 43 330 144 438 229 438 c 3
 313 438 348 395 358 380 c 1
 361 372 358 352 353 350 c 1xb8
EndSplineSet
Validated: 1
EndChar

StartChar: sigma
Encoding: 963 963 369
Width: 490
Flags: W
HStem: -7 60<150.211 287.165> 348 73<321.201 492.347> 375 61<172.748 315.154>
VStem: 41 55<113.012 291.153> 357 57<133.462 296.015>
LayerCount: 2
Back
Fore
SplineSet
428 348 m 4xd8
 413 348 377 350 353 355 c 5
 369 339 414 277 414 207 c 4
 414 76 350 -8 239 -7 c 4
 111 -7 41 107 41 221 c 4
 41 352 113 437 224 436 c 4xb8
 310 436 326 421 408 421 c 4
 465 421 498 433 510 444 c 5
 515 444 527 440 528 435 c 5
 528 428 511 348 428 348 c 4xd8
249 375 m 4
 157 375 96 299 96 190 c 4
 96 95 149 53 213 53 c 4
 305 53 357 132 357 241 c 4
 357 293 332 346 304 364 c 4
 295 370 275 375 249 375 c 4
EndSplineSet
Validated: 33
EndChar

StartChar: tau
Encoding: 964 964 370
Width: 415
VWidth: 255
Flags: W
HStem: -3 63<205.5 281.205> 348 73<191.202 379.353> 362 72<64.7402 302.428>
VStem: 153 60<76.4973 257.531>
LayerCount: 2
Back
Fore
SplineSet
164 362 m 4xb0
 83 362 55 342 38 306 c 5
 35 303 28 303 23 305 c 5
 21 310 19 326 19 336 c 4
 19 421 101 434 145 434 c 4xb0
 204 434 271 421 304 421 c 4
 361 421 385 433 397 444 c 5
 402 444 414 440 415 435 c 5
 415 428 398 348 315 348 c 4xd0
 293 348 268 353 233 357 c 5
 221 312 213 206 213 148 c 4
 213 78 249 60 271 60 c 4
 283 60 297 65 303 69 c 5
 307 66 309 59 309 54 c 4
 309 46 274 -3 225 -3 c 4
 186 -3 153 38 153 88 c 4
 153 169 183 295 197 360 c 5
 185 361 174 362 164 362 c 4xb0
EndSplineSet
Validated: 1
EndChar

StartChar: upsilon
Encoding: 965 965 371
Width: 406
Flags: W
HStem: -6 64<114.75 230.265> 412 20G<34.5 46.5 257 264>
VStem: 33 54<83.7065 229.925> 70 71<260.846 387.255> 310 55<151.423 357.773>
LayerCount: 2
Back
Fore
SplineSet
35 410 m 1xd8
 32 413 32 432 37 432 c 1
 56 432 141 406 141 322 c 0xd8
 141 288 87 206 87 141 c 0
 87 87 115 58 169 58 c 3
 221 58 310 112 310 266 c 0
 310 343 272 402 252 424 c 1
 252 427 255 432 259 434 c 1
 269 434 318 401 325 391 c 0
 348 357 365 305 365 221 c 0
 365 80 294 -6 187 -6 c 3
 112 -6 33 64 33 180 c 3xe8
 33 242 70 304 70 356 c 0
 70 382 46 403 35 410 c 1xd8
EndSplineSet
Validated: 1
EndChar

StartChar: phi
Encoding: 966 966 372
Width: 594
Flags: W
HStem: -228 21G<319 327> -10 66<173 262 325 382.153> 378 54<359.974 464.694> 393 39<229.298 246.551>
VStem: 38 45<109.977 259.871> 262 63<-209.998 -8.18457> 262 53<61.7783 315.671> 503 51<171.544 327.581>
LayerCount: 2
Back
Fore
SplineSet
325 -11 m 1xed
 327 -82 339 -191 347 -211 c 1
 340 -221 332 -228 322 -228 c 0
 316 -228 262 -207 262 -192 c 2
 262 -192 262 -10 262 -10 c 1xed
 134 2 38 88 38 194 c 0
 38 326 152 432 206 432 c 0
 234 432 285 418 285 393 c 1
 218 386 83 296 83 178 c 0
 83 93 150 56 254 56 c 0
 257 56 259 56 262 56 c 1
 262 56 262 141 262 141 c 2xdb
 262 342 300 432 397 432 c 0
 476 432 554 340 554 226 c 0
 554 75 422 0 325 -11 c 1xed
319 60 m 1
 401 68 503 135 503 265 c 0
 503 334 472 378 408 378 c 0
 335 378 315 266 315 162 c 0xeb
 315 132 317 98 319 60 c 1
EndSplineSet
Validated: 1
EndChar

StartChar: chi
Encoding: 967 967 373
Width: 445
VWidth: 255
Flags: W
HStem: -226 60<334.563 409.75> 364 70<61.5853 131.391>
VStem: 21 63<-212.023 -148.487> 363 48<365.523 418.564>
LayerCount: 2
Back
Fore
SplineSet
432 -176 m 1
 427 -184 402 -226 359 -226 c 0
 266 -227 240 -35 223 54 c 1
 176 -11 96 -129 84 -225 c 1
 80 -226 77 -227 71 -227 c 0
 47 -227 21 -187 21 -179 c 1
 39 -74 153 72 207 138 c 1
 201 212 160 364 83 364 c 0
 61 364 41 344 37 339 c 1
 32 339 24 352 24 359 c 1
 36 396 77 434 117 434 c 0
 181 434 221 292 240 171 c 1
 305 269 342 360 363 428 c 1
 367 432 371 434 373 434 c 0
 378 434 411 397 411 366 c 0
 411 318 327 184 254 87 c 1
 268 -6 289 -73 303 -101 c 0
 338 -171 384 -166 397 -166 c 0
 411 -166 422 -160 426 -156 c 1
 430 -156 433 -170 432 -176 c 1
EndSplineSet
Validated: 33
EndChar

StartChar: psi
Encoding: 968 968 374
Width: 571
Flags: W
HStem: -228 21G<312 320> -7 61<316 368.729> -7 53<172.294 254> 412 20G<50 61.5 409 416>
VStem: 45 62<112.757 247.94> 85 68<268.583 396.113> 255 53<54 375.057> 478 54<170.623 329.067>
LayerCount: 2
Back
Fore
SplineSet
153 345 m 0xb7
 153 280 107 220 107 164 c 0
 107 80 161 46 236 46 c 0xbb
 243 46 248 46 255 47 c 1
 255 80 255 125 255 154 c 0
 255 308 246 488 239 509 c 1
 254 522 276 532 292 532 c 0
 297 532 317 530 317 518 c 2
 317 518 308 266 308 162 c 0
 308 132 309 92 311 54 c 1
 414 78 478 164 478 271 c 0
 478 348 421 401 402 424 c 1
 402 431 407 432 411 432 c 0
 421 432 451 416 463 402 c 0
 491 368 532 309 532 234 c 0
 532 92 419 4 316 -7 c 1xdb
 318 -78 332 -191 340 -211 c 1
 333 -221 325 -228 315 -228 c 0
 309 -228 255 -207 255 -192 c 2
 255 -192 254 -7 254 -7 c 1
 159 -4 45 83 45 196 c 0xbb
 45 251 85 295 85 356 c 0
 85 378 59 410 48 417 c 1
 46 420 48 430 52 432 c 1
 71 432 153 410 153 345 c 0xb7
EndSplineSet
Validated: 1
EndChar

StartChar: omega
Encoding: 969 969 375
Width: 597
Flags: W
HStem: -6 59<108.987 215.355> -5 66<352.473 455.489> 425 9<381.039 386.843>
VStem: 41 41<82.1521 247.844> 260 59<103.472 278.795> 498 58<109.552 273.051>
LayerCount: 2
Back
Fore
SplineSet
401 61 m 0x7c
 469 61 498 136 498 203 c 0
 498 320 412 406 381 425 c 1
 381 431 382 434 386 434 c 24
 404 433 421 428 430 422 c 1
 471 392 556 280 556 170 c 0
 556 51 487 -5 416 -5 c 0x7c
 353 -5 311 54 301 90 c 1
 277 28 238 -6 180 -6 c 0
 92 -6 41 78 41 174 c 0
 41 325 114 413 144 435 c 1
 153 435 166 428 174 422 c 0
 184 414 196 399 196 386 c 0
 196 382 188 377 181 371 c 0
 137 334 82 236 82 156 c 0
 82 101 105 53 158 53 c 0xbc
 234 53 260 133 260 204 c 0
 260 240 258 262 256 273 c 1
 260 282 266 288 273 288 c 0
 287 288 324 263 326 254 c 1
 326 234 319 170 319 141 c 0
 319 117 346 61 401 61 c 0x7c
EndSplineSet
Validated: 1
EndChar

StartChar: phi1
Encoding: 981 981 378
Width: 591
Flags: W
HStem: -228 21G<319 327> 382 68<201.929 263> 673 20G<294 304.5>
VStem: 39 48<127.533 268.906> 268 50<-181.453 -11.062 57 382 451.565 669.334> 514 38<173.079 316.677>
LayerCount: 2
Back
Fore
SplineSet
324 -12 m 1
 326 -83 339 -191 347 -211 c 1
 340 -221 332 -228 322 -228 c 0
 316 -228 262 -207 262 -192 c 2
 262 -12 l 1
 143 -5 39 99 39 219 c 0
 39 345 140 432 263 450 c 1
 259 566 253 657 249 670 c 1
 264 683 286 693 302 693 c 0
 307 693 326 691 326 679 c 2
 326 679 324 578 323 453 c 1
 477 440 552 353 552 221 c 0
 552 73 415 0 324 -12 c 1
264 382 m 1
 147 362 87 260 87 187 c 0
 87 78 196 52 265 52 c 1
 267 111 268 147 268 222 c 0
 268 277 266 322 264 382 c 1
321 387 m 1
 320 327 318 282 318 230 c 0
 318 150 319 123 321 57 c 1
 401 64 514 131 514 251 c 0
 514 350 426 387 321 387 c 1
EndSplineSet
Validated: 1
EndChar

StartChar: uni2010
Encoding: 8208 8208 411
Width: 378
Flags: W
HStem: 199 62<66 215.957> 210 63<169.043 307>
VStem: 59 261
LayerCount: 2
Back
Fore
SplineSet
59 210 m 0x60
 59 258 68 261 71 261 c 2
 71 261 72 261 72 261 c 1xa0
 72 261 313 273 313 273 c 1
 313 273 314 273 314 273 c 2
 316 273 320 272 320 264 c 0
 320 215 307 210 307 210 c 1x60
 307 210 66 199 66 199 c 1xa0
 66 199 59 198 59 210 c 0x60
EndSplineSet
Validated: 1
EndChar

StartChar: uni2011
Encoding: 8209 8209 412
Width: 378
Flags: W
HStem: 199 62<66 215.957> 210 63<169.043 307>
VStem: 59 261
LayerCount: 2
Back
Fore
SplineSet
59 210 m 0x60
 59 258 68 261 71 261 c 2
 71 261 72 261 72 261 c 1xa0
 72 261 313 273 313 273 c 1
 313 273 314 273 314 273 c 2
 316 273 320 272 320 264 c 0
 320 215 307 210 307 210 c 1x60
 307 210 66 199 66 199 c 1xa0
 66 199 59 198 59 210 c 0x60
EndSplineSet
Validated: 1
EndChar

StartChar: figuredash
Encoding: 8210 8210 413
Width: 529
Flags: W
HStem: 200 62<64 456>
LayerCount: 2
Back
Fore
SplineSet
58 209 m 0
 58 211 61 262 72 262 c 2
 466 262 l 2
 468 262 471 261 471 255 c 0
 471 250 468 225 463 207 c 0
 461 201 456 200 456 200 c 1
 64 200 l 1
 64 200 58 199 58 209 c 0
EndSplineSet
Validated: 1
EndChar

StartChar: endash
Encoding: 8211 8211 414
Width: 564
Flags: W
HStem: 200 62<66 489>
LayerCount: 2
Back
Fore
SplineSet
60 209 m 0
 60 211 63 262 74 262 c 2
 499 262 l 2
 501 262 505 261 505 253 c 0
 505 235 497 211 496 207 c 0
 494 201 489 200 489 200 c 1
 66 200 l 1
 66 200 60 199 60 209 c 0
EndSplineSet
Validated: 1
EndChar

StartChar: emdash
Encoding: 8212 8212 415
Width: 856
Flags: W
HStem: 210 62<66 780>
LayerCount: 2
Back
Fore
SplineSet
60 219 m 0
 60 221 63 272 74 272 c 2
 790 272 l 2
 792 272 796 271 796 263 c 0
 796 245 789 221 788 217 c 0
 786 211 780 210 780 210 c 1
 66 210 l 1
 66 210 60 209 60 219 c 0
EndSplineSet
Validated: 1
EndChar

StartChar: afii00208
Encoding: 8213 8213 416
Width: 1145
Flags: W
HStem: 210 62<66 1069>
LayerCount: 2
Back
Fore
SplineSet
60 219 m 0
 60 221 63 272 74 272 c 2
 1077 272 l 1
 1077 272 1085 272 1085 263 c 0
 1085 245 1077 221 1076 217 c 0
 1074 211 1069 210 1069 210 c 1
 66 210 l 1
 66 210 60 209 60 219 c 0
EndSplineSet
Validated: 1
EndChar

StartChar: quoteleft
Encoding: 8216 8216 417
Width: 183
Flags: W
HStem: 482 224
VStem: 44 59<542.5 628.809>
LayerCount: 2
Back
Fore
SplineSet
44 555 m 0
 44 649 145 706 154 706 c 0
 162 706 169 699 173 688 c 1
 113 652 103 606 103 597 c 0
 103 582 117 570 128 557 c 0
 137 547 144 537 144 525 c 0
 144 501 111 482 79 482 c 0
 72 482 66 483 59 485 c 1
 50 498 44 530 44 555 c 0
EndSplineSet
Validated: 1
EndChar

StartChar: quoteright
Encoding: 8217 8217 418
Width: 192
Flags: W
HStem: 484 224
VStem: 106 58<561.191 647.5>
LayerCount: 2
Back
Fore
SplineSet
164 635 m 0
 164 541 64 484 55 484 c 0
 47 484 39 491 35 502 c 1
 95 538 106 584 106 593 c 0
 106 607 93 619 82 632 c 0
 73 642 65 653 65 665 c 0
 65 689 98 708 130 708 c 0
 137 708 143 707 150 705 c 1
 159 692 164 660 164 635 c 0
EndSplineSet
Validated: 1
EndChar

StartChar: quotesinglbase
Encoding: 8218 8218 419
Width: 198
Flags: W
HStem: -97 223
VStem: 87 58<-20.7027 65.5>
LayerCount: 2
Back
Fore
SplineSet
145 53 m 0
 145 -41 45 -97 36 -97 c 0
 28 -97 20 -91 16 -80 c 1
 76 -44 87 2 87 11 c 0
 87 25 74 37 63 50 c 0
 54 60 46 71 46 83 c 0
 46 107 79 126 111 126 c 0
 118 126 124 125 131 123 c 1
 140 110 145 78 145 53 c 0
EndSplineSet
Validated: 1
EndChar

StartChar: quotedblleft
Encoding: 8220 8220 420
Width: 327
Flags: W
HStem: 482 224
VStem: 44 59<542.5 628.809> 188 58<542.5 628.809>
LayerCount: 2
Back
Fore
SplineSet
188 555 m 0
 188 649 288 706 297 706 c 0
 305 706 313 699 317 688 c 1
 257 652 246 606 246 597 c 0
 246 585 254 574 264 564 c 0
 275 552 287 540 287 525 c 0
 287 501 255 482 223 482 c 0
 216 482 209 483 202 485 c 1
 193 498 188 530 188 555 c 0
44 555 m 0
 44 649 145 706 154 706 c 0
 162 706 169 699 173 688 c 1
 113 652 103 606 103 597 c 0
 103 583 114 572 125 560 c 0
 135 549 144 538 144 525 c 0
 144 501 111 482 79 482 c 0
 72 482 66 483 59 485 c 1
 50 498 44 530 44 555 c 0
EndSplineSet
Validated: 1
EndChar

StartChar: quotedblright
Encoding: 8221 8221 421
Width: 336
Flags: W
HStem: 484 224
VStem: 106 58<561.191 647.5> 249 59<561.191 647.5>
LayerCount: 2
Back
Fore
SplineSet
308 635 m 0
 308 541 207 484 198 484 c 0
 190 484 183 491 179 502 c 1
 239 538 249 584 249 593 c 0
 249 607 236 619 225 632 c 0
 216 642 208 653 208 665 c 0
 208 689 241 708 273 708 c 0
 280 708 286 707 293 705 c 1
 302 692 308 660 308 635 c 0
164 635 m 0
 164 541 64 484 55 484 c 0
 47 484 39 491 35 502 c 1
 95 538 106 584 106 593 c 0
 106 605 98 616 88 626 c 0
 77 638 65 650 65 665 c 0
 65 689 98 708 130 708 c 0
 137 708 143 707 150 705 c 1
 159 692 164 660 164 635 c 0
EndSplineSet
Validated: 1
EndChar

StartChar: quotedblbase
Encoding: 8222 8222 422
Width: 342
Flags: W
HStem: -99 223
VStem: 87 58<-20.7027 65.5> 230 59<-22.7027 63.5>
LayerCount: 2
Back
Fore
SplineSet
289 51 m 0
 289 -43 188 -99 179 -99 c 0
 171 -99 164 -93 160 -82 c 1
 220 -46 230 0 230 9 c 0
 230 23 217 35 206 48 c 0
 197 58 189 69 189 81 c 0
 189 105 222 124 254 124 c 0
 261 124 267 123 274 121 c 1
 283 108 289 76 289 51 c 0
145 53 m 0
 145 -41 45 -97 36 -97 c 0
 28 -97 20 -91 16 -80 c 1
 76 -44 87 2 87 11 c 0
 87 27 72 40 60 54 c 0
 52 63 46 72 46 83 c 0
 46 107 79 126 111 126 c 0
 118 126 124 125 131 123 c 1
 140 110 145 78 145 53 c 0
EndSplineSet
Validated: 1
EndChar

StartChar: dagger
Encoding: 8224 8224 423
Width: 399
Flags: W
HStem: -8 21G<197.5 200.5> 437 81<40.0317 105.693 293.307 358.968> 465 21<105.693 174.986 223.49 293.307> 642 20G<188.5 210.5>
VStem: 158 82<559.146 657.648> 183 32<399.651 460.923 489.038 609.698> 193 12<-7.94876 74.8876>
LayerCount: 2
Back
Fore
SplineSet
154 486 m 8xb4
 168 486 175 492 185 505 c 1
 185 538 177 606 158 625 c 1
 158 646 177 662 200 662 c 0
 221 662 240 646 240 625 c 1
 221 606 213 538 213 505 c 1
 223 492 232 486 245 486 c 0xb8
 278 486 307 499 326 518 c 1
 347 518 364 497 364 476 c 0
 364 455 347 437 326 437 c 1xd8
 307 456 278 465 245 465 c 24xb8
 229 465 215 449 215 437 c 1xd4
 222 420 233 394 245 365 c 1
 223 227 218 171 205 4 c 1
 203 -2 202 -7 199 -8 c 1
 196 -7 195 0 193 4 c 1xd2
 180 171 175 227 153 365 c 1
 164 390 176 420 183 437 c 1xd4
 183 449 170 465 154 465 c 24xb4
 121 465 92 456 73 437 c 1
 52 437 35 455 35 476 c 0
 35 497 52 518 73 518 c 1xd4
 92 499 121 486 154 486 c 8xb4
EndSplineSet
Validated: 1
EndChar

StartChar: daggerdbl
Encoding: 8225 8225 424
Width: 423
Flags: W
HStem: -8 21G<200.5 222.5> 136 81<52.0317 117.693 305.307 370.968> 168 21<117.693 186.986 235.49 305.307> 437 81<52.0317 117.693 305.307 370.968> 465 21<117.693 186.986 235.49 305.307> 642 20G<200.5 222.5>
VStem: 170 82<-3.64819 94.8537 559.146 657.648> 197 28<54.7904 162.77 196.041 245.095 408.905 457.959 491.23 599.21>
LayerCount: 2
Back
Fore
SplineSet
257 289 m 1x95
 245 260 234 234 227 217 c 1xd5
 227 205 241 189 257 189 c 24xa5
 290 189 319 198 338 217 c 1
 359 217 376 199 376 178 c 0
 376 157 359 136 338 136 c 1xc5
 319 155 290 168 257 168 c 0
 244 168 235 162 225 149 c 1xa5
 225 116 233 48 252 29 c 1
 252 8 233 -8 212 -8 c 0
 189 -8 170 8 170 29 c 1xa6
 189 48 197 116 197 149 c 1
 187 162 180 168 166 168 c 16xa5
 133 168 104 155 85 136 c 1
 64 136 47 157 47 178 c 0
 47 199 64 217 85 217 c 1xc5
 104 198 133 189 166 189 c 24xa5
 182 189 195 205 195 217 c 1
 188 234 176 264 165 289 c 1
 178 306 182 311 195 327 c 1
 182 342 183 341 165 365 c 1
 176 390 188 420 195 437 c 1xd5
 195 449 182 465 166 465 c 24x8d
 133 465 104 456 85 437 c 1
 64 437 47 455 47 476 c 0
 47 497 64 518 85 518 c 1x95
 104 499 133 486 166 486 c 8
 180 486 187 492 197 505 c 1x8d
 197 538 189 606 170 625 c 1
 170 646 189 662 212 662 c 0
 233 662 252 646 252 625 c 1x8e
 233 606 225 538 225 505 c 1
 235 492 244 486 257 486 c 0x8d
 290 486 319 499 338 518 c 1
 359 518 376 497 376 476 c 0
 376 455 359 437 338 437 c 1x95
 319 456 290 465 257 465 c 24x8d
 241 465 227 449 227 437 c 1
 234 420 245 394 257 365 c 1
 240 343 239 342 227 327 c 1
 237 314 241 309 257 289 c 1x95
EndSplineSet
Validated: 1
EndChar

StartChar: bullet
Encoding: 8226 8226 425
Width: 375
Flags: W
HStem: 155 216<123.66 251.979>
VStem: 80 215<198.66 327.34>
LayerCount: 2
Back
Fore
SplineSet
80 263 m 0
 80 322 129 371 188 371 c 0
 247 371 295 322 295 263 c 0
 295 204 247 155 188 155 c 0
 129 155 80 204 80 263 c 0
EndSplineSet
Validated: 1
EndChar

StartChar: onedotenleader
Encoding: 8228 8228 426
Width: 210
Flags: W
HStem: -14 116<60.4414 148.745>
VStem: 48 114<-1.2356 90.0031>
LayerCount: 2
Back
Fore
SplineSet
48 45 m 0
 48 77 72 102 104 102 c 0
 136 102 162 77 162 45 c 0
 162 13 136 -14 104 -14 c 0
 72 -14 48 13 48 45 c 0
EndSplineSet
Validated: 1
EndChar

StartChar: ellipsis
Encoding: 8230 8230 427
Width: 838
Flags: W
HStem: -14 116<61.6616 151.152 374.662 464.152 687.662 777.152>
VStem: 48 116<-0.338379 89.1519> 361 116<-0.338379 89.1519> 674 116<-0.338379 89.1519>
CounterMasks: 1 70
LayerCount: 2
Back
Fore
SplineSet
674 45 m 0
 674 77 701 102 733 102 c 0
 765 102 790 77 790 45 c 0
 790 13 765 -14 733 -14 c 0
 701 -14 674 13 674 45 c 0
361 45 m 0
 361 77 388 102 420 102 c 0
 452 102 477 77 477 45 c 0
 477 13 452 -14 420 -14 c 0
 388 -14 361 13 361 45 c 0
48 45 m 0
 48 77 75 102 107 102 c 0
 139 102 164 77 164 45 c 0
 164 13 139 -14 107 -14 c 0
 75 -14 48 13 48 45 c 0
EndSplineSet
Validated: 1
EndChar

StartChar: perthousand
Encoding: 8240 8240 429
Width: 997
Flags: W
HStem: -7 25<455.434 525.588 789.934 858.267> 289 24<442.266 511.529 776.299 845.599> 325 25<166.934 235.267> 621 24<153.299 222.599>
VStem: 44 63<408.045 571.079> 275 66<398.394 570.458> 332 64<76.045 237.871> 563 67<69.2111 238.458> 667 63<76.045 239.079> 898 66<66.3943 238.458>
LayerCount: 2
Back
Fore
SplineSet
813 289 m 0xf9c0
 754 289 730 223 730 164 c 0
 730 95 773 18 823 18 c 0
 881 18 898 86 898 144 c 0
 898 211 866 289 813 289 c 0xf9c0
817 313 m 0
 904 313 964 239 964 152 c 0
 964 72 909 -7 817 -7 c 0
 734 -7 667 64 667 152 c 0
 667 241 728 313 817 313 c 0
190 621 m 0
 131 621 107 555 107 496 c 0
 107 427 150 350 200 350 c 0
 258 350 275 418 275 476 c 0xfdc0
 275 543 243 621 190 621 c 0
194 645 m 0
 281 645 341 571 341 484 c 0
 341 404 286 325 194 325 c 0
 111 325 44 396 44 484 c 0
 44 573 105 645 194 645 c 0
479 289 m 0
 420 289 396 223 396 164 c 0xfbc0
 396 95 439 18 489 18 c 0
 547 18 563 86 563 144 c 0
 563 211 532 289 479 289 c 0
483 313 m 0
 570 313 630 239 630 152 c 0
 630 72 574 -7 482 -7 c 0
 399 -7 332 64 332 152 c 0
 332 241 394 313 483 313 c 0
602 624 m 1
 602 624 119 0 119 0 c 2
 115 -5 98 -12 86 -12 c 0
 72 -12 69 -3 68 -1 c 1
 68 -1 550 624 550 624 c 2
 555 630 564 636 570 636 c 0
 599 636 593 633 602 624 c 1
EndSplineSet
Validated: 1
EndChar

StartChar: minute
Encoding: 8242 8242 430
Width: 160
Flags: W
HStem: 494 205
VStem: 49 87<589.411 680.213> 61 75<589.411 689.429>
LayerCount: 2
Back
Fore
SplineSet
111 699 m 0xa0
 121 699 136 695 136 675 c 0xc0
 136 628 101 559 72 502 c 0
 69 496 65 494 61 494 c 0xa0
 55 494 49 499 49 506 c 0xc0
 49 509 53 612 61 666 c 0
 63 678 92 699 111 699 c 0xa0
EndSplineSet
Validated: 1
EndChar

StartChar: second
Encoding: 8243 8243 431
Width: 272
Flags: W
HStem: 494 205
VStem: 49 87<589.411 680.213> 61 75<589.411 689.429> 161 87<589.411 679.4> 174 74<589.411 689.429>
LayerCount: 2
Back
Fore
SplineSet
224 699 m 0x88
 234 699 248 695 248 675 c 0x90
 248 628 214 559 185 502 c 0
 182 496 178 494 174 494 c 0x88
 168 494 161 499 161 506 c 0x90
 161 509 166 612 174 666 c 0
 176 678 205 699 224 699 c 0x88
111 699 m 0
 121 699 136 695 136 675 c 0xc0
 136 628 101 559 72 502 c 0
 69 496 65 494 61 494 c 0xa0
 55 494 49 499 49 506 c 0xc0
 49 509 53 612 61 666 c 0xa0
 63 678 92 699 111 699 c 0
EndSplineSet
Validated: 1
EndChar

StartChar: uni2038
Encoding: 8248 8248 432
Width: 425
Flags: W
HStem: -36 146
VStem: 90 235
LayerCount: 2
Back
Fore
SplineSet
314 -36 m 0
 301 -36 242 11 206 47 c 1
 174 10 112 -36 99 -36 c 0
 90 -36 90 -19 90 -19 c 1
 97 -9 158 31 194 100 c 1
 197 108 198 110 203 110 c 0
 222 110 213 95 261 41 c 0
 278 21 323 -15 325 -18 c 1
 325 -22 320 -36 314 -36 c 0
EndSplineSet
Validated: 1
EndChar

StartChar: guilsinglleft
Encoding: 8249 8249 433
Width: 309
Flags: W
VStem: 30 237
LayerCount: 2
Back
Fore
SplineSet
244 423 m 1
 267 417 267 408 267 404 c 0
 267 396 263 392 206 338 c 0
 183 316 137 266 118 247 c 1
 205 157 l 1
 258 104 266 102 266 91 c 0
 266 79 249 76 243 73 c 1
 242 75 184 132 37 227 c 1
 32 229 30 235 30 241 c 0
 30 251 31 260 38 268 c 1
 169 347 243 422 244 423 c 1
EndSplineSet
Validated: 1
EndChar

StartChar: guilsinglright
Encoding: 8250 8250 434
Width: 308
Flags: W
VStem: 44 236
LayerCount: 2
Back
Fore
SplineSet
67 73 m 1
 44 79 44 87 44 91 c 0
 44 102 54 107 104 157 c 1
 191 247 l 1
 172 266 126 316 103 338 c 0
 44 395 43 396 43 404 c 0
 43 416 60 420 66 423 c 1
 68 421 141 347 271 268 c 1
 278 260 280 251 280 241 c 0
 280 235 277 229 272 227 c 1
 145 145 79 86 67 73 c 1
EndSplineSet
Validated: 1
EndChar

StartChar: Euro
Encoding: 8364 8364 438
Width: 708
UnlinkRmOvrlpSave: 1
Flags: W
HStem: -6 36<344.14 523.398> 239 48<39.3047 440.883> 350 48<39.3047 440.883> 605 35<339.825 515.266>
VStem: 91 95<246.341 385.518> 608 33<464.191 515.366>
LayerCount: 2
Back
Fore
SplineSet
416 640 m 0
 479 640 548 635 619 620 c 1
 619 620 641 488 641 478 c 1
 641 468 631 464 621 464 c 0
 615 464 610 465 608 468 c 1
 602 498 580 605 420 605 c 0
 278 605 186 463 186 329 c 0
 186 179 269 30 436 30 c 0
 575 30 609 128 621 183 c 1
 634 183 652 176 652 176 c 1
 652 157 631 49 618 37 c 1
 565 7 500 -6 412 -6 c 0
 222 -6 91 139 91 309 c 0
 91 489 227 640 416 640 c 0
52 287 m 1
 81 287 430 287 444 287 c 0
 448 287 446 277 444 271 c 0
 442 264 438 250 428 239 c 1
 399 239 50 239 36 239 c 0
 32 239 34 248 36 254 c 0
 38 261 42 276 52 287 c 1
52 398 m 1
 81 398 430 398 444 398 c 0
 448 398 446 388 444 382 c 0
 442 375 438 361 428 350 c 1
 399 350 50 350 36 350 c 0
 32 350 34 359 36 365 c 0
 38 372 42 387 52 398 c 1
EndSplineSet
Validated: 5
EndChar

StartChar: arrowleft
Encoding: 8592 8592 439
Width: 765
Flags: W
HStem: 216 63<147 715>
LayerCount: 2
Back
Fore
SplineSet
265 404 m 0
 265 393 265 399 200 334 c 1
 147 279 l 1
 723 279 l 1
 723 279 730 279 730 269 c 0
 730 251 723 227 722 223 c 0
 720 217 715 216 715 216 c 1
 146 216 l 1
 203 157 l 1
 262 98 264 103 264 91 c 0
 264 78 246 76 241 73 c 1
 240 75 182 132 35 227 c 1
 30 229 28 235 28 241 c 0
 28 251 29 260 36 268 c 1
 167 347 241 422 242 423 c 1
 256 419 265 413 265 404 c 0
EndSplineSet
Validated: 1
EndChar

StartChar: arrowup
Encoding: 8593 8593 440
Width: 400
Flags: W
HStem: 438 20G<34.5 47 347 359.5>
VStem: 166 63<-13 555>
LayerCount: 2
Back
Fore
SplineSet
355 437 m 0
 339 437 352 439 229 555 c 1
 229 -22 l 1
 229 -22 229 -29 219 -29 c 0
 201 -29 177 -21 173 -20 c 0
 167 -18 166 -13 166 -13 c 1
 166 556 l 1
 107 499 l 1
 48 440 53 438 41 438 c 0
 28 438 26 456 23 461 c 1
 25 462 82 520 177 667 c 1
 179 672 185 674 191 674 c 0
 201 674 210 673 218 666 c 1
 297 535 372 461 373 460 c 1
 369 446 364 437 355 437 c 0
EndSplineSet
Validated: 1
EndChar

StartChar: arrowright
Encoding: 8594 8594 441
Width: 764
Flags: W
HStem: 217 63<45 614>
LayerCount: 2
Back
Fore
SplineSet
496 91 m 0
 496 105 499 95 614 217 c 1
 37 217 l 1
 37 217 30 216 30 226 c 0
 30 244 37 268 38 272 c 0
 40 278 45 280 45 280 c 1
 615 280 l 1
 557 339 l 2
 501 395 497 392 497 404 c 0
 497 417 515 420 520 423 c 1
 521 421 578 363 725 268 c 1
 730 266 732 261 732 255 c 0
 732 245 731 235 724 227 c 1
 593 148 519 74 518 73 c 1
 504 77 496 82 496 91 c 0
EndSplineSet
Validated: 1
EndChar

StartChar: arrowdown
Encoding: 8595 8595 442
Width: 401
Flags: W
VStem: 168 63<90 658>
LayerCount: 2
Back
Fore
SplineSet
42 208 m 0
 56 208 46 205 168 90 c 1
 168 667 l 1
 168 667 167 674 177 674 c 0
 195 674 220 667 224 666 c 0
 230 664 231 658 231 658 c 1
 231 89 l 1
 290 146 l 1
 350 206 342 207 356 207 c 0
 369 207 371 189 374 184 c 1
 372 183 314 125 219 -22 c 1
 217 -27 212 -29 206 -29 c 0
 196 -29 186 -27 178 -20 c 1
 99 111 25 184 24 185 c 1
 28 199 33 208 42 208 c 0
EndSplineSet
Validated: 1
EndChar

StartChar: universal
Encoding: 8704 8704 443
Width: 727
Flags: W
HStem: 348 50<295.001 464.045> 633 29<25.0511 77.5156 208.376 261.234 485.188 540.56 648.781 701.923>
LayerCount: 2
Back
Fore
SplineSet
491 407 m 2
 539 524 l 2
 548 547 556 565 556 583 c 0
 556 592 553 601 549 610 c 0
 541 626 500 633 488 633 c 0
 483 633 483 657 488 662 c 1
 525 660 546 656 583 656 c 0
 629 656 660 660 700 662 c 1
 701 659 702 650 702 645 c 0
 702 639 701 633 698 633 c 0
 690 633 648 629 634 603 c 0
 614 567 601 540 585 502 c 2
 385 19 l 2
 374 -8 363 -14 350 -14 c 0
 346 -14 342 -12 340 -8 c 2
 135 514 l 2
 120 553 107 582 90 608 c 0
 79 624 41 633 29 633 c 0
 27 633 25 640 25 646 c 0
 25 652 27 660 29 662 c 1
 75 660 101 656 147 656 c 0
 191 656 220 660 260 662 c 1
 262 656 263 633 258 633 c 0
 250 633 208 631 205 612 c 0
 204 607 204 603 204 598 c 0
 204 575 214 557 223 530 c 2
 270 403 l 2
 271 401 272 401 276 401 c 0
 310 399 342 398 375 398 c 0
 412 398 448 399 485 402 c 0
 487 402 491 406 491 407 c 2
464 342 m 2
 465 343 463 346 461 346 c 0
 434 348 409 348 382 348 c 0
 355 348 328 348 297 346 c 0
 296 346 295 345 295 344 c 2
 373 152 l 2
 374 150 375 148 377 148 c 0
 381 148 388 154 389 157 c 2
 464 342 l 2
EndSplineSet
Validated: 1
EndChar

StartChar: partialdiff
Encoding: 8706 8706 444
Width: 482
Flags: W
HStem: -4 30<205.156 297.904> 369 28<186.452 274.257> 594 39<107.408 212.321>
VStem: 56 74<104.428 287.477> 352 68<102.16 344.23>
LayerCount: 2
Back
SplineSet
230.623046875 368.685546875 m 4
 156.857421875 368.685546875 129.955078125 289.801757812 129.955078125 211.82421875 c 4
 129.955078125 123.873046875 172.478515625 24.134765625 250.583007812 24.134765625 c 4
 324.34765625 24.134765625 351.250976562 103.018554688 351.250976562 180.088867188 c 4
 351.250976562 268.041015625 307.859375 368.685546875 230.623046875 368.685546875 c 4
240.168945312 398.607421875 m 4
 354.721679688 398.607421875 425.883789062 314.282226562 425.883789062 200.943359375 c 4
 425.883789062 83.9775390625 346.911132812 -5.787109375 241.904296875 -5.787109375 c 4
 127.3515625 -5.787109375 55.322265625 80.3505859375 55.322265625 193.690429688 c 4
 55.322265625 310.65625 135.162109375 398.607421875 240.168945312 398.607421875 c 4
EndSplineSet
Fore
SplineSet
352 193 m 0
 352 280 301 369 226 369 c 0
 161 369 130 282 130 208 c 0
 130 131 168 26 254 26 c 0
 311 26 352 79 352 193 c 0
336 368 m 1
 323 446 265 594 141 594 c 0
 125 594 111 591 104 586 c 1
 101 586 91 593 90 598 c 1
 100 612 132 633 170 633 c 0
 323 633 420 449 420 260 c 0
 420 131 401 -4 224 -4 c 0
 126 -4 56 92 56 183 c 0
 56 285 114 397 234 397 c 0
 278 397 312 384 336 368 c 1
EndSplineSet
Validated: 1
EndChar

StartChar: uni2206
Encoding: 8710 8710 445
Width: 682
Flags: W
HStem: 0 61<106.911 535.046>
LayerCount: 2
Back
Fore
SplineSet
535 68 m 2
 328 485 l 1
 324 488 320 489 316 483 c 2
 107 72 l 1
 105 65 110 61 115 61 c 2
 532 61 l 2
 536 61 536 64 535 68 c 2
353 613 m 1
 655 14 l 1
 655 14 649 8 647 0 c 1
 36 0 l 1
 32 6 31 9 27 16 c 1
 336 613 l 1
 353 613 l 1
EndSplineSet
Validated: 1
EndChar

StartChar: gradient
Encoding: 8711 8711 446
Width: 683
Flags: W
HStem: 580 62<146.955 575.089>
LayerCount: 2
Back
Fore
SplineSet
147 574 m 2
 355 156 l 1
 359 153 363 153 367 159 c 2
 575 570 l 1
 577 577 573 580 568 580 c 2
 151 580 l 2
 147 580 146 578 147 574 c 2
330 28 m 1
 28 628 l 1
 28 628 34 634 36 642 c 1
 647 642 l 1
 651 636 652 632 656 625 c 1
 347 28 l 1
 330 28 l 1
EndSplineSet
Validated: 1
EndChar

StartChar: element
Encoding: 8712 8712 447
Width: 501
Flags: W
HStem: 10 47<180.113 430> 191 47<112.004 398> 374 47<176.728 430>
VStem: 52 60<173.992 303.322>
LayerCount: 2
Back
Fore
SplineSet
406 216 m 0
 406 189 398 192 397 191 c 1
 117 191 l 2
 116 191 111 190 112 187 c 0
 124 124 175 57 242 57 c 2
 430 57 l 1
 430 57 445 54 445 19 c 0
 445 10 438 10 438 10 c 1
 244 10 l 2
 132 10 52 104 52 216 c 0
 52 325 125 421 234 421 c 2
 438 421 l 1
 438 421 445 421 445 409 c 0
 445 378 430 374 430 374 c 1
 234 374 l 2
 171 374 123 305 112 243 c 0
 112 240 114 238 117 238 c 2
 398 238 l 1
 398 237 406 233 406 216 c 0
EndSplineSet
Validated: 1
EndChar

StartChar: notelement
Encoding: 8713 8713 448
Width: 494
Flags: W
HStem: 10 47<203.516 427> 191 47<109.003 220 298 395> 374 47<173.728 320 398 427>
VStem: 49 60<132.114 303.322>
LayerCount: 2
Back
Fore
SplineSet
403 216 m 0
 403 189 395 192 394 191 c 1
 272 191 l 1
 203 64 l 1
 214 60 226 57 239 57 c 2
 427 57 l 1
 427 57 442 54 442 19 c 0
 442 10 435 10 435 10 c 1
 241 10 l 2
 218 10 197 14 178 21 c 1
 154 -23 l 1
 154 -23 154 -25 150 -25 c 0
 147 -25 130 -21 117 -5 c 0
 113 -1 116 2 116 2 c 1
 137 42 l 1
 83 79 49 143 49 216 c 0
 49 325 122 421 231 421 c 2
 346 421 l 1
 372 467 l 1
 372 467 372 470 376 470 c 0
 388 470 399 461 407 452 c 0
 412 447 410 442 410 442 c 1
 398 421 l 1
 435 421 l 1
 435 421 442 421 442 409 c 0
 442 378 427 374 427 374 c 1
 373 374 l 1
 298 238 l 1
 395 238 l 1
 395 237 403 233 403 216 c 0
164 89 m 1
 220 191 l 1
 114 191 l 2
 113 191 109 190 109 188 c 0
 109 182 123 127 164 89 c 1
246 238 m 1
 320 374 l 1
 231 374 l 2
 168 374 120 305 109 243 c 0
 109 240 111 238 114 238 c 2
 246 238 l 1
EndSplineSet
Validated: 1
EndChar

StartChar: summation
Encoding: 8721 8721 449
Width: 621
Flags: W
HStem: 2 45<147.005 495.44> 627 31<34.0357 38 38.0358 69.169>
VStem: 510 31<523.037 568.839>
LayerCount: 2
Back
Fore
SplineSet
222 47 m 0
 256 47 295 48 328 48 c 0
 366 48 461 51 490 66 c 0
 509 76 532 109 548 162 c 0
 549 166 555 168 562 168 c 0
 572 168 584 165 587 162 c 1
 568 108 540 40 533 -4 c 1
 424 -4 247 2 156 2 c 0
 89 2 38 -3 38 -3 c 1
 36 -1 34 7 34 15 c 0
 34 23 36 31 38 31 c 0
 49 31 70 51 79 63 c 2
 283 317 l 2
 285 320 285 323 282 327 c 0
 269 347 167 490 90 592 c 0
 77 609 50 627 38 627 c 0
 36 627 34 634 34 641 c 0
 34 648 36 656 38 658 c 1
 38 658 87 656 154 656 c 0
 247 656 404 664 513 664 c 1
 520 615 532 573 541 528 c 1
 538 525 531 523 524 523 c 0
 517 523 511 525 510 530 c 0
 495 587 468 602 458 607 c 0
 441 615 402 616 367 616 c 2
 321 616 l 2
 301 616 270 617 242 617 c 0
 207 617 177 615 175 607 c 1
 364 358 l 1
 366 352 368 345 368 339 c 0
 368 334 366 330 363 327 c 0
 273 227 147 90 147 58 c 0
 147 51 154 47 222 47 c 0
EndSplineSet
Validated: 1
EndChar

StartChar: minus
Encoding: 8722 8722 450
Width: 611
Flags: W
HStem: 218 56<82.2964 532.998>
LayerCount: 2
Back
Fore
SplineSet
526 218 m 5
 365 218 246 218 74 218 c 5
 62 218 76 269 90 274 c 13
 539 274 l 21
 553 274 540 225 526 218 c 5
EndSplineSet
Validated: 33
EndChar

StartChar: uni2213
Encoding: 8723 8723 451
Width: 598
Flags: W
HStem: 221 57<77 273 329 524> 522 57<69 525>
VStem: 273 56<26 221 278 473>
LayerCount: 2
Back
Fore
SplineSet
525 579 m 1
 525 579 535 579 533 567 c 0
 526 519 520 525 517 522 c 1
 69 522 l 1
 69 522 61 522 63 536 c 0
 68 572 71 579 77 579 c 2
 525 579 l 1
329 218 m 2
 329 26 l 1
 329 26 329 16 284 10 c 0
 281 10 280 9 278 9 c 0
 271 9 273 13 273 17 c 2
 273 216 l 2
 273 218 272 221 267 221 c 2
 68 221 l 1
 68 221 62 221 62 231 c 0
 62 235 63 248 70 272 c 0
 72 278 77 278 77 278 c 1
 268 278 l 2
 271 278 273 281 273 283 c 2
 273 473 l 1
 273 473 272 478 278 480 c 0
 302 487 315 488 319 488 c 0
 329 488 329 482 329 482 c 1
 329 282 l 2
 329 279 330 278 333 278 c 2
 533 278 l 2
 537 278 541 279 541 272 c 0
 541 263 537 249 531 227 c 0
 529 221 524 221 524 221 c 1
 333 221 l 2
 330 221 329 220 329 218 c 2
EndSplineSet
Validated: 1
EndChar

StartChar: radical
Encoding: 8730 8730 452
Width: 516
Flags: W
LayerCount: 2
Back
Fore
SplineSet
10 168 m 1
 -4 174 -11 182 -11 186 c 0
 -11 193 1 200 12 206 c 0
 48 226 127 279 141 291 c 0
 149 298 164 298 167 290 c 1
 175 257 190 226 192 221 c 2
 309 -31 l 1
 317 12 451 791 451 791 c 1
 488 791 l 1
 488 791 348 -25 323 -153 c 1
 308 -171 296 -173 290 -173 c 0
 286 -173 281 -172 280 -168 c 2
 103 220 l 1
 10 168 l 1
EndSplineSet
Validated: 1
EndChar

StartChar: proportional
Encoding: 8733 8733 453
Width: 715
Flags: W
HStem: 41 56<177.329 302.805 603.812 656.399> 362 60<174.507 294.483 587.606 644>
VStem: 54 70<152.877 308.843>
LayerCount: 2
Back
Fore
SplineSet
124 229 m 0
 124 159 173 97 243 97 c 0
 309 97 361 172 404 218 c 0
 405 219 405 219 404 220 c 0
 371 259 306 362 236 362 c 0
 168 362 124 297 124 229 c 0
639 43 m 1
 508 43 440 180 429 180 c 2
 428 180 l 1
 375 117 315 41 216 41 c 0
 121 41 54 128 54 223 c 0
 54 332 139 422 248 422 c 0
 345 422 416 334 457 286 c 0
 458 284 462 283 463 285 c 0
 501 332 559 404 640 419 c 1
 642 419 l 2
 648 419 650 412 650 403 c 0
 650 388 644 367 644 367 c 1
 583 367 522 286 487 246 c 0
 486 245 485 244 486 243 c 0
 532 185 589 100 658 100 c 0
 664 100 666 96 666 91 c 0
 666 76 648 46 639 43 c 1
EndSplineSet
Validated: 1
EndChar

StartChar: infinity
Encoding: 8734 8734 454
Width: 890
Flags: W
HStem: 43 57<172.323 303.874 597.033 716.169> 362 60<174.36 294.483 587.152 717.085>
VStem: 54 69<154.167 308.843> 765 71<151.221 309.733>
LayerCount: 2
Back
Fore
SplineSet
643 367 m 0
 582 367 522 286 487 246 c 0
 486 245 485 244 486 243 c 0
 532 185 589 100 658 100 c 0
 725 100 765 166 765 233 c 0
 765 304 714 367 643 367 c 0
123 229 m 0
 123 159 173 97 243 97 c 0
 309 97 361 172 404 218 c 0
 405 219 405 219 404 220 c 0
 371 259 306 362 236 362 c 0
 168 362 123 297 123 229 c 0
248 422 m 0
 345 422 416 334 457 286 c 0
 458 284 462 283 463 285 c 0
 505 338 573 422 670 422 c 0
 765 422 836 337 836 242 c 0
 836 132 748 43 638 43 c 0
 507 43 439 180 428 180 c 2
 427 180 l 1
 374 117 313 41 215 41 c 0
 120 41 54 128 54 223 c 0
 54 332 139 422 248 422 c 0
EndSplineSet
Validated: 1
EndChar

StartChar: notequal
Encoding: 8800 8800 455
Width: 578
Flags: W
HStem: 117 56<71 204 287 507> 259 56<71 283 367 507>
LayerCount: 2
Back
Fore
SplineSet
367 315 m 1
 515 315 l 2
 519 315 523 317 523 310 c 0
 523 301 519 287 513 265 c 0
 511 259 507 259 507 259 c 1
 335 259 l 1
 287 173 l 1
 515 173 l 2
 519 173 523 175 523 168 c 0
 523 159 519 145 513 123 c 0
 511 117 507 117 507 117 c 1
 256 117 l 1
 199 13 l 1
 199 13 199 11 195 11 c 0
 192 11 174 15 161 31 c 0
 157 35 160 38 160 38 c 1
 204 117 l 1
 62 117 l 1
 62 117 55 117 55 127 c 0
 55 131 57 144 64 168 c 0
 66 174 71 173 71 173 c 1
 235 173 l 1
 283 259 l 1
 62 259 l 1
 62 259 55 259 55 269 c 0
 55 273 57 286 64 310 c 0
 66 316 71 315 71 315 c 1
 313 315 l 1
 364 406 l 1
 364 406 364 409 368 409 c 0
 374 409 387 406 400 391 c 0
 405 386 403 381 403 381 c 1
 367 315 l 1
EndSplineSet
Validated: 1
EndChar

StartChar: lessequal
Encoding: 8804 8804 456
Width: 517
Flags: W
HStem: 6 56<52 433>
LayerCount: 2
Back
Fore
SplineSet
433 62 m 1
 433 62 442 63 440 51 c 0
 433 3 428 9 425 6 c 1
 43 6 l 1
 43 6 34 5 36 19 c 0
 38 33 39 37 45 57 c 0
 47 63 52 62 52 62 c 1
 433 62 l 1
448 136 m 0
 448 129 438 86 432 86 c 0
 431 86 429 87 427 88 c 2
 52 279 l 2
 37 287 34 301 34 318 c 0
 34 329 42 337 52 342 c 2
 421 529 l 2
 423 530 425 531 426 531 c 0
 429 531 436 521 443 484 c 0
 444 478 440 475 440 475 c 1
 114 310 l 1
 445 142 l 1
 445 142 448 141 448 136 c 0
EndSplineSet
Validated: 1
EndChar

StartChar: greaterequal
Encoding: 8805 8805 457
Width: 516
Flags: W
HStem: 6 56<79 461>
LayerCount: 2
Back
Fore
SplineSet
74 483 m 0
 74 501 86 531 90 531 c 0
 91 531 93 530 95 529 c 2
 465 342 l 2
 475 337 482 329 482 318 c 0
 482 301 480 287 465 279 c 2
 90 88 l 2
 85 86 84 82 79 95 c 0
 73 110 68 132 68 136 c 0
 68 140 71 142 71 142 c 1
 402 310 l 1
 77 475 l 1
 77 475 74 476 74 483 c 0
72 15 m 0
 72 16 76 62 87 62 c 2
 470 62 l 2
 472 62 476 61 476 54 c 0
 476 46 473 29 468 13 c 0
 466 7 461 6 461 6 c 1
 79 6 l 1
 79 6 72 5 72 15 c 0
EndSplineSet
Validated: 1
EndChar

